<svg xmlns="http://www.w3.org/2000/svg" width="80" height="80" viewBox="0 0 80 80" fill="none">
  <circle opacity="0.8" cx="40" cy="40" r="40" fill="url(#paint0_linear_421_3040)"/>
  <path opacity="0.403" fill-rule="evenodd" clip-rule="evenodd" d="M52.3272 52.3272L59.2223 59.2223L52.3272 52.3272C49.0046 55.6498 44.4145 57.7049 39.3443 57.7049C29.204 57.7049 20.9836 49.4846 20.9836 39.3443C20.9836 29.2039 29.204 20.9836 39.3443 20.9836C49.4846 20.9836 57.705 29.2039 57.705 39.3443C57.705 44.4144 55.6499 49.0046 52.3272 52.3272Z" stroke="white" stroke-width="3.34426" stroke-linejoin="round"/>
  <path opacity="0.395" d="M31.3628 44.4098C30.901 44.4098 30.5267 44.7841 30.5267 45.2459C30.5267 45.7076 30.901 46.0819 31.3628 46.0819V44.4098ZM37.9202 46.0819C38.3819 46.0819 38.7562 45.7076 38.7562 45.2459C38.7562 44.7841 38.3819 44.4098 37.9202 44.4098V46.0819ZM31.3628 33.918C30.901 33.918 30.5267 34.2923 30.5267 34.7541C30.5267 35.2158 30.901 35.5901 31.3628 35.5901V33.918ZM47.1005 35.5901C47.5622 35.5901 47.9366 35.2158 47.9366 34.7541C47.9366 34.2923 47.5622 33.918 47.1005 33.918V35.5901ZM31.3628 39.1639C30.901 39.1639 30.5267 39.5383 30.5267 40C30.5267 40.4618 30.901 40.8361 31.3628 40.8361V39.1639ZM47.1005 40.8361C47.5622 40.8361 47.9366 40.4618 47.9366 40C47.9366 39.5383 47.5622 39.1639 47.1005 39.1639V40.8361ZM31.3628 46.0819H37.9202V44.4098H31.3628V46.0819ZM31.3628 35.5901H47.1005V33.918H31.3628V35.5901ZM31.3628 40.8361H47.1005V39.1639H31.3628V40.8361Z" fill="white"/>
  <defs>
    <linearGradient id="paint0_linear_421_3040" x1="0" y1="120" x2="80" y2="120" gradientUnits="userSpaceOnUse">
      <stop stop-color="#33CCFF"/>
      <stop offset="1" stop-color="#33ABFF"/>
    </linearGradient>
  </defs>
</svg>
