<svg width="256" height="175" viewBox="0 0 256 175" fill="none" xmlns="http://www.w3.org/2000/svg">
<g opacity="0.6">
<rect opacity="0.25" x="37" y="7.11389" width="46" height="162.602" fill="#F1F5F7"/>
<rect opacity="0.25" x="129" y="7.11389" width="46" height="162.602" fill="#F1F5F7"/>
<rect opacity="0.25" x="175" y="7.11389" width="46" height="162.602" fill="#F1F5F7"/>
<line x1="37" y1="6.61389" x2="219" y2="6.61391" stroke="#CFDAE1" stroke-dasharray="1 2"/>
<line x1="37" y1="47.2643" x2="219" y2="47.2643" stroke="#CFDAE1" stroke-dasharray="1 2"/>
<line x1="37" y1="87.9147" x2="219" y2="87.9147" stroke="#CFDAE1" stroke-dasharray="1 2"/>
<line x1="37" y1="128.565" x2="219" y2="128.565" stroke="#CFDAE1" stroke-dasharray="1 2"/>
<line x1="37" y1="169.215" x2="219" y2="169.215" stroke="#CFDAE1" stroke-dasharray="1 2"/>
<rect opacity="0.25" x="83" y="7.11389" width="46" height="162.602" fill="#F1F5F7"/>
<path d="M20.098 9H20.878V7.33H21.908V6.62H20.878V2.13H19.978L16.568 6.68L16.668 7.33H20.098V9ZM17.458 6.62L20.098 3.07V6.62H17.458ZM23.3184 9H24.0984V6.94L25.1784 5.8L27.7884 9H28.7984L25.7184 5.27L28.6084 2.13H27.5784L24.0984 5.93V2.13H23.3184V9Z" fill="#85909A"/>
<path d="M19.4391 49.7704C20.8691 49.7704 21.8291 48.9404 21.8291 47.7904C21.8291 46.8004 21.0491 46.2904 20.3491 46.1304C21.0591 45.9204 21.6791 45.4004 21.6791 44.5204C21.6791 43.4204 20.7191 42.6604 19.4091 42.6604C18.3391 42.6604 17.5791 43.1804 17.0591 43.8704L17.5791 44.3404C18.0691 43.7504 18.6091 43.3704 19.3691 43.3704C20.2291 43.3704 20.8891 43.8904 20.8891 44.6104C20.8891 45.3904 20.1991 45.8304 19.2791 45.8204L18.5391 45.8104V46.5304H19.2691C20.3491 46.5304 21.0391 46.9404 21.0391 47.7504C21.0391 48.5304 20.3991 49.0604 19.4391 49.0604C18.5991 49.0604 17.9291 48.6604 17.4791 48.0804L16.9391 48.5904C17.4391 49.2504 18.3091 49.7704 19.4391 49.7704ZM23.3184 49.6504H24.0984V47.5904L25.1784 46.4504L27.7884 49.6504H28.7984L25.7184 45.9204L28.6084 42.7804H27.5784L24.0984 46.5804V42.7804H23.3184V49.6504Z" fill="#85909A"/>
<path d="M16.9998 90.3008H21.7398V89.5608H18.2498L20.0498 88.0008C21.2098 87.0008 21.6698 86.2608 21.6698 85.3308C21.6698 84.1008 20.6698 83.3108 19.4798 83.3108C18.3998 83.3108 17.6298 83.8208 17.0598 84.6308L17.6098 85.0808C18.0798 84.4408 18.6498 84.0108 19.4498 84.0108C20.1798 84.0108 20.8798 84.5008 20.8798 85.3408C20.8798 86.0208 20.4798 86.6808 19.5098 87.5108L16.9998 89.6508V90.3008ZM23.3184 90.3008H24.0984V88.2408L25.1784 87.1008L27.7884 90.3008H28.7984L25.7184 86.5708L28.6084 83.4308H27.5784L24.0984 87.2308V83.4308H23.3184V90.3008Z" fill="#85909A"/>
<path d="M20.673 130.951H21.453V124.081H20.823L19.133 125.231L19.473 125.811L20.673 125.031V130.951ZM23.3184 130.951H24.0984V128.891L25.1784 127.751L27.7884 130.951H28.7984L25.7184 127.221L28.6084 124.081H27.5784L24.0984 127.881V124.081H23.3184V130.951Z" fill="#85909A"/>
<path d="M25.5555 171.722C27.2255 171.722 28.4055 170.252 28.4055 168.162C28.4055 166.082 27.2255 164.612 25.5555 164.612C23.8755 164.612 22.6955 166.082 22.6955 168.162C22.6955 170.252 23.8755 171.722 25.5555 171.722ZM25.5555 171.002C24.3455 171.002 23.4855 169.822 23.4855 168.162C23.4855 166.502 24.3455 165.332 25.5555 165.332C26.7655 165.332 27.6155 166.502 27.6155 168.162C27.6155 169.822 26.7655 171.002 25.5555 171.002Z" fill="#85909A"/>
<path d="M230.8 9H231.58V2.13H230.95L229.26 3.28L229.6 3.86L230.8 3.08V9ZM235.975 9.12C237.645 9.12 238.825 7.65 238.825 5.56C238.825 3.48 237.645 2.01 235.975 2.01C234.295 2.01 233.115 3.48 233.115 5.56C233.115 7.65 234.295 9.12 235.975 9.12ZM235.975 8.4C234.765 8.4 233.905 7.22 233.905 5.56C233.905 3.9 234.765 2.73 235.975 2.73C237.185 2.73 238.035 3.9 238.035 5.56C238.035 7.22 237.185 8.4 235.975 8.4ZM242.87 9.12C244.54 9.12 245.72 7.65 245.72 5.56C245.72 3.48 244.54 2.01 242.87 2.01C241.19 2.01 240.01 3.48 240.01 5.56C240.01 7.65 241.19 9.12 242.87 9.12ZM242.87 8.4C241.66 8.4 240.8 7.22 240.8 5.56C240.8 3.9 241.66 2.73 242.87 2.73C244.08 2.73 244.93 3.9 244.93 5.56C244.93 7.22 244.08 8.4 242.87 8.4ZM247.254 9H248.034V3.81L250.584 8.6L253.134 3.81V9H253.914V2.13H253.134L250.584 6.92L248.034 2.13H247.254V9Z" fill="#85909A"/>
<path d="M230.38 49.6504H231.28L234.24 43.3704V42.7804H229.59V43.5204H233.31L230.38 49.6504ZM237.976 49.7704C239.386 49.7704 240.416 48.8704 240.416 47.5104C240.416 46.1504 239.386 45.3704 238.146 45.3704C237.516 45.3704 237.046 45.5804 236.676 45.8304L236.746 43.5204H240.046V42.7804H235.986L235.886 46.3104L236.456 46.5904C236.886 46.2704 237.396 46.0604 237.986 46.0604C238.946 46.0604 239.626 46.6604 239.626 47.5404C239.626 48.4104 238.956 49.0704 238.006 49.0704C237.246 49.0704 236.596 48.6904 236.066 48.1104L235.556 48.6804C236.116 49.3204 236.916 49.7704 237.976 49.7704ZM241.922 49.6504H242.702V44.4604L245.252 49.2504L247.802 44.4604V49.6504H248.582V42.7804H247.802L245.252 47.5704L242.702 42.7804H241.922V49.6504Z" fill="#85909A"/>
<path d="M231.98 90.4208C233.39 90.4208 234.42 89.5208 234.42 88.1608C234.42 86.8008 233.39 86.0208 232.15 86.0208C231.52 86.0208 231.05 86.2308 230.68 86.4808L230.75 84.1708H234.05V83.4308H229.99L229.89 86.9608L230.46 87.2408C230.89 86.9208 231.4 86.7108 231.99 86.7108C232.95 86.7108 233.63 87.3108 233.63 88.1908C233.63 89.0608 232.96 89.7208 232.01 89.7208C231.25 89.7208 230.6 89.3408 230.07 88.7608L229.56 89.3308C230.12 89.9708 230.92 90.4208 231.98 90.4208ZM238.436 90.4208C240.106 90.4208 241.286 88.9508 241.286 86.8608C241.286 84.7808 240.106 83.3108 238.436 83.3108C236.756 83.3108 235.576 84.7808 235.576 86.8608C235.576 88.9508 236.756 90.4208 238.436 90.4208ZM238.436 89.7008C237.226 89.7008 236.366 88.5208 236.366 86.8608C236.366 85.2008 237.226 84.0308 238.436 84.0308C239.646 84.0308 240.496 85.2008 240.496 86.8608C240.496 88.5208 239.646 89.7008 238.436 89.7008ZM242.821 90.3008H243.601V85.1108L246.151 89.9008L248.701 85.1108V90.3008H249.481V83.4308H248.701L246.151 88.2208L243.601 83.4308H242.821V90.3008Z" fill="#85909A"/>
<path d="M229.49 130.951H234.23V130.211H230.74L232.54 128.651C233.7 127.651 234.16 126.911 234.16 125.981C234.16 124.751 233.16 123.961 231.97 123.961C230.89 123.961 230.12 124.471 229.55 125.281L230.1 125.731C230.57 125.091 231.14 124.661 231.94 124.661C232.67 124.661 233.37 125.151 233.37 125.991C233.37 126.671 232.97 127.331 232 128.161L229.49 130.301V130.951ZM237.869 131.071C239.279 131.071 240.309 130.171 240.309 128.811C240.309 127.451 239.279 126.671 238.039 126.671C237.409 126.671 236.939 126.881 236.569 127.131L236.639 124.821H239.939V124.081H235.879L235.779 127.611L236.349 127.891C236.779 127.571 237.289 127.361 237.879 127.361C238.839 127.361 239.519 127.961 239.519 128.841C239.519 129.711 238.849 130.371 237.899 130.371C237.139 130.371 236.489 129.991 235.959 129.411L235.449 129.981C236.009 130.621 236.809 131.071 237.869 131.071ZM241.815 130.951H242.595V125.761L245.145 130.551L247.695 125.761V130.951H248.475V124.081H247.695L245.145 128.871L242.595 124.081H241.815V130.951Z" fill="#85909A"/>
<path d="M232.45 171.722C234.12 171.722 235.3 170.252 235.3 168.162C235.3 166.082 234.12 164.612 232.45 164.612C230.77 164.612 229.59 166.082 229.59 168.162C229.59 170.252 230.77 171.722 232.45 171.722ZM232.45 171.002C231.24 171.002 230.38 169.822 230.38 168.162C230.38 166.502 231.24 165.332 232.45 165.332C233.66 165.332 234.51 166.502 234.51 168.162C234.51 169.822 233.66 171.002 232.45 171.002Z" fill="#85909A"/>
</g>
<circle cx="128" cy="88" r="56" fill="#F1F5F7"/>
<path opacity="0.5" fill-rule="evenodd" clip-rule="evenodd" d="M143 70.9999C143 69.343 144.343 67.9999 146 67.9999H147C148.657 67.9999 150 69.343 150 70.9999V104.273H147.044C147.001 104.211 146.953 104.153 146.898 104.098L143 100.2V70.9999ZM138 86.9999V95.2001L131 88.2001V86.9999C131 85.343 132.343 83.9999 134 83.9999H135C136.657 83.9999 138 85.343 138 86.9999ZM131 94.7999L126 89.7999V104H119V82.7999L112.9 76.6997C112.403 76.2027 112.403 75.3969 112.9 74.8998C113.397 74.4028 114.203 74.4028 114.7 74.8998L145.298 105.498C145.795 105.995 145.795 106.801 145.298 107.298C144.801 107.795 143.995 107.795 143.498 107.298L138 101.8V104H131V94.7999ZM126 79.9999V83.2001L120.316 77.5165C120.796 77.1904 121.376 76.9999 122 76.9999H123C124.657 76.9999 126 78.343 126 79.9999ZM110 87.9999C108.343 87.9999 107 89.343 107 90.9999V104H114V90.9999C114 89.343 112.657 87.9999 111 87.9999H110Z" fill="#ACBEC7"/>
</svg>
