<svg width="260" height="190" viewBox="0 0 260 190" fill="none" xmlns="http://www.w3.org/2000/svg">
<path fill-rule="evenodd" clip-rule="evenodd" d="M59.8137 170.599C59.8137 170.599 59.8136 170.599 59.8136 170.599C27.3763 170.599 0.986816 146.75 0.986816 117.435H1.81246C1.81246 146.339 27.8317 169.853 59.8136 169.853C59.8136 169.853 59.8137 169.853 59.8137 169.853V170.599ZM59.8137 164.001C31.4027 164.001 8.28865 143.112 8.28865 117.435H9.11429C9.11429 142.7 31.858 163.255 59.8137 163.255V164.001ZM59.8137 157.401C35.4292 157.401 15.5911 139.472 15.5911 117.435H16.4168C16.4168 139.06 35.8845 156.655 59.8137 156.655V157.401ZM59.8137 150.803C39.4551 150.803 22.8919 135.834 22.8919 117.435H23.7176C23.7176 135.423 39.9104 150.057 59.8137 150.057V150.803ZM59.8137 144.203C43.4817 144.202 30.1948 132.194 30.1948 117.434H31.0205C31.0205 131.782 43.9371 143.456 59.8137 143.457V144.203ZM59.8137 137.603C47.5082 137.602 37.4969 128.555 37.4969 117.433H38.3225C38.3225 128.143 47.9631 136.856 59.8137 136.857V137.603ZM59.8137 131.005C51.5343 131.004 44.7985 124.917 44.7985 117.434H45.6242C45.6242 124.505 51.9892 130.258 59.8137 130.258V131.005ZM59.8137 124.406C55.5606 124.406 52.1006 121.278 52.1006 117.435H52.9262C52.9262 120.867 56.0155 123.66 59.8137 123.66V124.406Z" fill="#9000FF"/>
<path fill-rule="evenodd" clip-rule="evenodd" d="M202.051 190C234.053 190 260 166.197 260 136.835V190H202.051Z" fill="#180A33"/>
<path fill-rule="evenodd" clip-rule="evenodd" d="M59.813 65.0667V117.438H0.986176C0.986176 88.5142 27.3257 65.0667 59.813 65.0667Z" fill="#E0E7EC"/>
<path d="M123.123 7.7207L124.914 9.00104L125.096 9.12908V9.03762C125.461 9.68826 125.935 10.2837 126.502 10.8027C126.888 11.1611 127.328 11.4689 127.808 11.7172L168.285 32.8521V25.1243C155.252 19.3353 137.522 11.58 129.194 8.39745L128.03 9.00104L127.737 9.15652L128.415 9.42173L128.597 9.49489H128.688H128.779C128.65 9.58462 128.492 9.63328 128.329 9.63328C128.166 9.63328 128.008 9.58462 127.879 9.49489L127.747 9.41259C127.658 9.34751 127.573 9.27724 127.494 9.20224C127.435 9.14858 127.381 9.09045 127.332 9.02848C127.276 8.96511 127.225 8.89783 127.18 8.82728C127.127 8.76054 127.08 8.69022 127.039 8.61694C127.039 8.54377 126.948 8.46147 126.917 8.3883L126.826 8.17796C126.826 8.17796 126.776 8.04078 126.755 7.96762V7.88531C126.755 7.8213 126.755 7.74813 126.755 7.68411C126.755 7.6201 126.755 7.5012 126.755 7.40975C126.123 7.12799 125.435 6.9632 124.732 6.92505L123.72 7.44633L123.305 7.65668L123.123 7.7207Z" fill="#CFDAE1"/>
<path d="M123.123 7.71807L124.914 8.99841L125.096 9.12645V9.03499C125.461 9.68563 125.935 10.2811 126.502 10.8C126.888 11.1584 127.328 11.4663 127.808 11.7146L168.285 32.8495V26.2465C155.575 20.6222 137.775 12.8303 128.82 9.33679C128.702 9.28086 128.58 9.23198 128.455 9.19047L127.97 8.99841L127.676 9.15389V9.2179C127.682 9.30929 127.682 9.40087 127.676 9.49226C127.587 9.42719 127.502 9.35693 127.423 9.28192C127.423 9.34594 127.423 9.40081 127.423 9.46483C127.423 9.83064 127.211 10.2239 126.867 10.2239C126.748 10.2211 126.633 10.1895 126.533 10.1324C126.2 9.89673 125.926 9.60091 125.727 9.26391C125.529 8.9269 125.41 8.55614 125.379 8.17533V8.06559L125.227 8.01072C124.687 7.81684 124.133 7.65792 123.568 7.53516L123.153 7.7455L123.123 7.71807Z" fill="#E0E7EC"/>
<path d="M123.071 7.7709C123.178 8.73484 123.533 9.66264 124.11 10.4793C124.687 11.2959 125.468 11.9784 126.39 12.4716L168.355 34.3656V26.5189C155.666 20.8945 137.825 13.0843 128.799 9.56338H128.708H128.617L128.435 9.49022L127.757 9.225V9.28903C127.762 9.38042 127.762 9.472 127.757 9.56338C127.665 10.3773 127.119 10.7614 126.451 10.4139C126.082 10.159 125.777 9.83664 125.556 9.46787C125.334 9.0991 125.202 8.69224 125.166 8.27389C124.543 8.01035 123.876 7.84045 123.193 7.7709C123.193 7.7709 123.071 7.73432 123.071 7.7709Z" fill="#E0E7EC"/>
<path d="M125.126 8.20224C125.161 8.61876 125.291 9.02414 125.509 9.39258C125.727 9.76102 126.027 10.0844 126.391 10.3423C127.049 10.6898 127.595 10.3423 127.686 9.49173L127.433 9.28139C127.374 9.22774 127.32 9.1696 127.271 9.10763C127.215 9.04425 127.164 8.97698 127.119 8.90643C127.066 8.83969 127.019 8.76937 126.978 8.69609L126.856 8.45831L126.765 8.25711C126.765 8.25711 126.715 8.12908 126.694 8.05591C126.69 8.02864 126.69 8.00088 126.694 7.97361C126.673 7.90451 126.656 7.83426 126.644 7.76326C126.621 7.67583 126.604 7.58727 126.593 7.49805L125.399 8.11993L125.126 8.20224Z" fill="#CFDAE1"/>
<path d="M145.21 117.866V122.283C145.21 128.209 155.906 134.849 170.235 134.849C184.564 134.849 195.26 128.209 195.26 122.283V117.829H190.737H149.723H145.21V117.866Z" fill="#CFDAE1"/>
<path d="M145.21 117.866V119.96C147.305 125.447 157.353 130.797 170.235 130.797C183.117 130.797 193.156 125.429 195.26 119.96V117.829H190.747C190.747 120.737 182.763 126.307 170.235 126.307C157.707 126.307 149.723 120.737 149.723 117.829H145.21V117.866Z" fill="#E0E7EC"/>
<path d="M145.21 117.866C145.21 123.792 155.906 130.432 170.235 130.432C184.564 130.432 195.26 123.792 195.26 117.866C195.26 111.94 184.554 105.3 170.235 105.3C155.916 105.3 145.21 111.931 145.21 117.866Z" fill="#CFDAE1"/>
<path d="M150.2 116.483C150.2 121.229 158.761 126.543 170.237 126.543C175.276 126.619 180.247 125.479 184.636 123.241C188.158 121.33 190.263 118.833 190.263 116.483C190.263 112.687 184.808 108.544 176.764 107.026C176.683 106.944 163.699 107.026 163.699 107.026C155.665 108.535 150.2 112.715 150.2 116.483Z" fill="#E0E7EC"/>
<path d="M150.2 116.134C150.2 120.881 158.761 126.194 170.237 126.194C175.276 126.271 180.247 125.131 184.636 122.893C188.158 120.981 190.263 118.485 190.263 116.134C190.263 112.339 184.808 108.196 176.764 106.678C176.683 106.587 176.581 106.513 176.5 106.431C175.551 105.5 174.885 104.363 174.568 103.13C174.512 102.952 174.468 102.772 174.436 102.59H170.237H169.822H166.037C166.037 102.59 166.037 102.791 165.905 103.13C165.563 104.382 164.865 105.533 163.882 106.468L163.659 106.678C155.665 108.196 150.2 112.339 150.2 116.134Z" fill="#CFDAE1"/>
<path style="mix-blend-mode:multiply" d="M150.2 116.135C150.2 120.881 158.761 126.195 170.237 126.195C175.276 126.271 180.247 125.132 184.636 122.893C172.584 123.424 166.037 122.381 166.037 112.385C166.037 107.694 169.467 106.779 169.822 102.563H166.037C165.756 104.012 165.026 105.36 163.932 106.45L163.699 106.66C155.665 108.188 150.2 112.34 150.2 116.135Z" fill="url(#paint0_linear_2906_40547)"/>
<path d="M165.91 103.13C166.376 104.044 168.025 104.959 170.241 104.959C172.457 104.959 174.097 104.044 174.572 103.13C174.517 102.952 174.473 102.772 174.441 102.59H170.241H169.826H166.042C166.042 102.59 166.001 102.791 165.91 103.13Z" fill="#E0E7EC"/>
<path d="M166.04 102.586C166.04 103.583 167.841 104.698 170.239 104.698C172.637 104.698 174.439 103.583 174.439 102.586C174.434 102.373 174.36 102.166 174.226 101.991C174.115 101.823 173.975 101.672 173.811 101.543C172.772 100.859 171.52 100.49 170.234 100.49C168.948 100.49 167.696 100.859 166.657 101.543C166.499 101.674 166.363 101.825 166.252 101.991C166.118 102.166 166.045 102.373 166.04 102.586Z" fill="#CFDAE1"/>
<path d="M167.021 35.9902V102.312C167.021 102.998 168.114 103.748 169.652 103.894C169.847 103.908 170.044 103.908 170.239 103.894C172.081 103.894 173.457 103.044 173.457 102.276V35.9902H167.021Z" fill="#E0E7EC"/>
<path style="mix-blend-mode:multiply" d="M167.021 35.9902V102.312C167.021 102.998 168.114 103.748 169.652 103.894V35.9902H167.021Z" fill="url(#paint1_linear_2906_40547)"/>
<path d="M167.021 35.9844C167.021 36.7435 168.397 37.594 170.239 37.594C172.081 37.594 173.457 36.7435 173.457 35.9844C173.455 35.818 173.398 35.6558 173.295 35.518C173.208 35.3926 173.103 35.2787 172.981 35.1796C172.187 34.6508 171.226 34.3655 170.239 34.3655C169.252 34.3655 168.291 34.6508 167.497 35.1796C167.375 35.2787 167.27 35.3926 167.183 35.518C167.08 35.6558 167.023 35.818 167.021 35.9844Z" fill="url(#paint2_linear_2906_40547)"/>
<path d="M161.09 18.5194L170.683 45.6811L171.594 45.2056L177.828 41.9955C178.044 41.8827 178.218 41.7151 178.33 41.5135C178.441 41.312 178.485 41.0853 178.455 40.8615V21.4642C178.408 20.8737 178.211 20.3009 177.879 19.7903C177.547 19.2796 177.09 18.8448 176.543 18.5194L169.672 14.8613C169.48 14.7341 169.253 14.656 169.017 14.6351C168.78 14.6142 168.541 14.6512 168.326 14.7424L162.062 17.9799L161.09 18.5194Z" fill="url(#paint3_linear_2906_40547)"/>
<path d="M161.09 18.5199L170.683 45.6816L171.594 45.206C171.68 44.9889 171.721 44.7596 171.716 44.5292V25.132C171.68 24.4725 171.471 23.8302 171.107 23.2578C170.743 22.6854 170.234 22.1994 169.621 21.8396L162.76 18.1815C162.543 18.067 162.307 17.9837 162.062 17.9346L161.09 18.5199Z" fill="#E0E7EC"/>
<path d="M162.568 41.8518L169.429 45.5099C170.441 46.0586 171.332 45.6197 171.332 44.5222V25.1341C171.291 24.5419 171.098 23.9665 170.767 23.4537C170.437 22.9409 169.979 22.5048 169.429 22.1801L162.568 18.522C161.557 17.9641 160.666 18.4122 160.666 19.5097V38.8612C160.702 39.4594 160.893 40.0416 161.224 40.5609C161.554 41.0803 162.015 41.5224 162.568 41.8518Z" fill="#E0E7EC"/>
<path d="M165.786 18.1615C165.786 19.1858 167.597 20.329 170.046 20.3747H170.208C172.728 20.3747 174.62 19.195 174.62 18.1524C174.59 17.902 174.499 17.6606 174.354 17.4456C174.209 17.2306 174.013 17.0472 173.78 16.9086C173.237 15.789 172.79 14.6333 172.444 13.4517C172.313 13.0036 172.181 12.5371 172.05 12.0799C171.756 11.019 171.483 9.93986 171.25 8.91558C170.602 6.11711 170.238 3.79419 170.238 3.79419C170.238 3.79419 169.52 7.93703 168.457 11.833C168.029 13.571 167.426 15.2699 166.656 16.9086C166.416 17.0453 166.214 17.2288 166.063 17.4456C165.912 17.6625 165.818 17.9071 165.786 18.1615Z" fill="#E0E7EC"/>
<path d="M173.455 27.2739V38.294C173.455 38.642 173.589 38.9791 173.835 39.2469C174.081 39.5148 174.422 39.6964 174.801 39.7605C175.179 39.8246 175.571 39.767 175.907 39.5977C176.243 39.4284 176.504 39.1581 176.643 38.8336C176.716 38.6613 176.753 38.4785 176.754 38.294V27.2739C176.754 26.8785 176.58 26.4994 176.271 26.2198C175.962 25.9403 175.542 25.7832 175.105 25.7832C174.667 25.7832 174.248 25.9403 173.938 26.2198C173.629 26.4994 173.455 26.8785 173.455 27.2739Z" fill="#7C7F82"/>
<path d="M173.455 27.3721V35.0907L215.096 56.8201C215.327 56.9462 215.571 57.0504 215.825 57.131L216.098 57.8627L216.898 57.4511L217.555 57.1127C217.829 56.9469 218.049 56.7177 218.191 56.4491C218.333 56.1805 218.393 55.8822 218.365 55.5855C218.365 55.4026 217.626 54.8081 216.341 53.8844L215.329 54.424L215.167 54.5063L214.985 54.5978C214.869 54.5285 214.763 54.4455 214.671 54.3508C214.612 54.2972 214.558 54.2391 214.509 54.1771L214.449 54.1131C214.396 54.0463 214.348 53.976 214.307 53.9027L214.165 53.6467C214.122 53.573 214.085 53.4966 214.054 53.418C213.974 53.2472 213.913 53.0695 213.872 52.8876C213.866 52.8298 213.866 52.7716 213.872 52.7138C213.862 52.6501 213.862 52.5855 213.872 52.5218C213.872 52.5218 213.872 52.4486 213.872 52.412C213.872 52.3754 213.872 52.2474 213.872 52.156C205.26 46.5316 186.995 35.484 173.455 27.3721Z" fill="#CFDAE1"/>
<path d="M173.455 28.6963V35.098L215.096 56.8274C215.327 56.9535 215.571 57.0576 215.825 57.1383L216.098 57.87L216.898 57.4584C217.079 57.1195 217.169 56.7466 217.161 56.3701C217.161 56.2146 217.161 56.0043 215.289 54.6874L215.086 54.541L214.904 54.6325C214.788 54.5632 214.682 54.4802 214.59 54.3856V54.6416C214.54 54.9709 214.368 55.3275 214.044 55.3275C213.925 55.3248 213.81 55.2932 213.71 55.2361C213.334 54.9589 213.032 54.6085 212.827 54.2109C212.622 53.8134 212.519 53.3791 212.526 52.9406V52.8217L212.455 52.7486C204.309 47.2888 186.863 36.7442 173.455 28.6963Z" fill="#BBC3C8"/>
<path d="M173.455 28.9995V36.6084L213.639 57.5787C213.988 57.811 214.397 57.9597 214.827 58.0108C215.257 58.062 215.694 58.014 216.098 57.8714C216.348 57.7423 216.549 57.5478 216.675 57.3135C216.831 57.0101 216.907 56.6784 216.898 56.3441C216.898 56.1795 216.28 55.6582 215.147 54.8626L214.843 54.6522C214.722 55.4113 214.196 55.7588 213.558 55.4296C213.138 55.1305 212.8 54.7481 212.571 54.3119C212.341 53.8758 212.225 53.3977 212.232 52.9146C204.107 47.4731 186.823 37.0108 173.455 28.9995Z" fill="#E0E7EC"/>
<path d="M212.273 52.8581C212.265 53.3412 212.381 53.8193 212.611 54.2555C212.841 54.6916 213.179 55.074 213.598 55.3731C214.236 55.7023 214.772 55.3731 214.884 54.5957H214.965C214.85 54.5205 214.745 54.4347 214.651 54.3397C214.592 54.2856 214.538 54.2275 214.489 54.1659L214.428 54.1019L214.287 53.9007L214.135 53.6538C214.092 53.577 214.054 53.4975 214.023 53.416C213.948 53.2469 213.887 53.0726 213.841 52.8947C213.841 52.8307 213.841 52.7758 213.841 52.721V52.5198C213.841 52.5198 213.841 52.4466 213.841 52.41C213.836 52.3278 213.836 52.2453 213.841 52.1631L212.627 52.7941L212.273 52.8581Z" fill="#CFDAE1"/>
<path style="mix-blend-mode:multiply" d="M165.786 18.1629C165.786 19.1872 167.597 20.3303 170.046 20.3761C169.629 19.3196 169.42 18.2053 169.429 17.0837C169.429 14.5048 172.464 13.4256 172.464 13.4256C172.333 12.9775 172.201 12.5111 172.07 12.0538L168.447 11.8069C168.019 13.5449 167.416 15.2439 166.646 16.8825C166.404 17.023 166.201 17.2113 166.052 17.4331C165.903 17.6549 165.812 17.9045 165.786 18.1629Z" fill="url(#paint4_linear_2906_40547)"/>
<path d="M165.593 11.0554C165.593 12.5827 167.668 13.799 170.208 13.799C170.512 13.7993 170.817 13.781 171.118 13.7442C173.223 13.4973 174.812 12.3815 174.812 11.0006C174.812 9.93057 173.8 8.99774 172.292 8.54962C171.62 8.34808 170.916 8.24617 170.208 8.24782C167.668 8.30269 165.593 9.53732 165.593 11.0554Z" fill="#E0E7EC"/>
<path style="mix-blend-mode:multiply" d="M165.593 11.0554C165.593 12.5827 167.668 13.799 170.208 13.799C170.512 13.7993 170.817 13.781 171.118 13.7442C171.793 13.4893 172.404 13.1154 172.917 12.6443C173.43 12.1732 173.833 11.6144 174.104 11.0006L172.292 8.54962C171.62 8.34808 170.916 8.24617 170.208 8.24782C167.668 8.30269 165.593 9.53732 165.593 11.0554Z" fill="url(#paint5_linear_2906_40547)"/>
<path d="M163.457 6.09081C163.455 7.29805 163.849 8.47867 164.59 9.4832C165.331 10.4877 166.385 11.271 167.619 11.7338C168.853 12.1966 170.211 12.3182 171.521 12.0831C172.831 11.8481 174.035 11.2669 174.979 10.4133C175.924 9.55962 176.567 8.47187 176.827 7.28775C177.087 6.10362 176.953 4.87637 176.441 3.76138C175.928 2.64638 175.062 1.69379 173.95 1.02422C172.839 0.354644 171.532 -0.00180174 170.197 6.84853e-06C169.311 6.84853e-06 168.435 0.157553 167.617 0.463645C166.8 0.769736 166.057 1.21838 165.431 1.78396C164.805 2.34954 164.309 3.02099 163.97 3.75996C163.631 4.49893 163.457 5.29096 163.457 6.09081Z" fill="#E0E7EC"/>
<path style="mix-blend-mode:multiply" d="M163.457 6.08924C163.46 7.27234 163.843 8.42917 164.561 9.41884C165.278 10.4085 166.298 11.1883 167.497 11.6632C168.696 12.1381 170.022 12.2877 171.314 12.0937C172.605 11.8997 173.806 11.3704 174.77 10.5705C170.794 10.415 166.675 7.26898 166.675 3.62914C166.675 2.27562 166.979 0.885529 168.82 0.126465C167.305 0.413819 165.946 1.16309 164.969 2.24868C163.993 3.33428 163.459 4.69022 163.457 6.08924Z" fill="url(#paint6_linear_2906_40547)"/>
<path d="M191.156 92.8538C191.199 93.8697 191.379 94.877 191.692 95.8535C193.028 100.198 197.663 107.742 213.773 107.742C228.719 107.742 233.799 100.765 235.519 96.3474C235.983 95.2077 236.279 94.0177 236.399 92.8081H232.352H195.284H191.237L191.156 92.8538Z" fill="url(#paint7_linear_2906_40547)"/>
<path d="M191.156 92.8526C191.199 93.8685 191.379 94.8758 191.692 95.8523C194.414 100.425 202.975 104.55 213.773 104.55C224.165 104.55 232.483 100.699 235.519 96.3644C235.983 95.2248 236.279 94.0348 236.399 92.8252H232.352C232.352 95.4591 225.137 100.498 213.813 100.498C202.489 100.498 195.204 95.4865 195.204 92.8526H191.156Z" fill="#FFDF85"/>
<path d="M191.156 92.854C191.156 98.2223 200.83 104.213 213.773 104.213C226.715 104.213 236.399 98.2223 236.399 92.854C236.399 87.4857 226.715 81.5046 213.773 81.5046C200.83 81.5046 191.156 87.4948 191.156 92.854Z" fill="url(#paint8_linear_2906_40547)"/>
<path d="M193.92 92.8625C193.923 93.1081 193.95 93.353 194.001 93.5941C194.001 93.7313 194.062 93.8685 194.092 94.0057C195.327 98.368 203.331 102.803 213.754 102.803C223.54 102.803 231.21 98.8801 233.103 94.783C233.163 94.655 233.214 94.5178 233.264 94.3898C233.463 93.9005 233.566 93.3836 233.568 92.8625C233.568 88.1526 225.088 82.9124 213.754 82.9124C202.421 82.9124 193.92 88.1526 193.92 92.8625Z" fill="url(#paint9_linear_2906_40547)"/>
<path d="M193.999 93.5946C193.999 93.7318 194.06 93.869 194.09 94.0062C195.325 98.3685 203.329 102.804 213.752 102.804C223.537 102.804 231.208 98.8806 233.1 94.7835C233.161 94.6555 233.212 94.5183 233.262 94.3903C231.734 90.1651 223.912 85.7388 213.448 85.7388C203.44 85.7388 196.073 89.7261 193.999 93.5946Z" fill="#FFDF85"/>
<path d="M194.088 94.0039C195.322 98.3662 203.317 102.802 213.74 102.802C223.545 102.802 231.206 98.8783 233.098 94.7812C231.874 90.4189 223.869 85.9834 213.446 85.9834C203.641 85.9834 195.98 89.9067 194.088 94.0039Z" fill="url(#paint10_linear_2906_40547)"/>
<path style="mix-blend-mode:multiply" d="M194.088 94.0072C195.322 98.3695 203.317 102.814 213.74 102.814C215.093 102.815 216.445 102.735 217.787 102.576C211.422 101.141 206.94 97.7202 206.94 93.7237C206.94 90.5502 209.783 87.7335 214.155 85.9959H213.416C203.641 85.9867 195.99 89.9101 194.088 94.0072Z" fill="url(#paint11_linear_2906_40547)"/>
<path d="M231.712 88.0254C231.71 88.1926 231.764 88.3565 231.865 88.4962C231.967 88.636 232.112 88.7453 232.282 88.8101C232.453 88.8749 232.641 88.8923 232.823 88.8601C233.004 88.828 233.171 88.7477 233.302 88.6294C233.433 88.5112 233.521 88.3605 233.557 88.1964C233.593 88.0324 233.573 87.8624 233.502 87.7083C233.43 87.5542 233.309 87.4229 233.154 87.3311C233 87.2394 232.818 87.1914 232.633 87.1932C232.39 87.1955 232.157 87.284 231.985 87.4395C231.813 87.5951 231.715 87.8054 231.712 88.0254Z" fill="url(#paint12_linear_2906_40547)"/>
<path d="M212.071 103.207C212.071 103.372 212.125 103.532 212.226 103.669C212.327 103.806 212.471 103.913 212.639 103.976C212.808 104.039 212.993 104.055 213.171 104.023C213.35 103.991 213.514 103.912 213.643 103.795C213.772 103.679 213.859 103.531 213.895 103.369C213.93 103.208 213.912 103.041 213.842 102.888C213.773 102.736 213.655 102.606 213.503 102.515C213.352 102.424 213.174 102.375 212.992 102.375C212.747 102.375 212.513 102.462 212.34 102.619C212.168 102.775 212.071 102.986 212.071 103.207Z" fill="url(#paint13_linear_2906_40547)"/>
<path d="M195.004 86.9089C195.004 87.0735 195.058 87.2344 195.16 87.3713C195.261 87.5081 195.405 87.6148 195.573 87.6778C195.741 87.7408 195.926 87.7572 196.105 87.7251C196.284 87.693 196.448 87.6137 196.576 87.4974C196.705 87.381 196.793 87.2327 196.828 87.0713C196.864 86.9098 196.846 86.7425 196.776 86.5904C196.706 86.4383 196.588 86.3084 196.437 86.2169C196.285 86.1255 196.107 86.0767 195.925 86.0767C195.681 86.0767 195.447 86.1643 195.274 86.3204C195.101 86.4765 195.004 86.6882 195.004 86.9089Z" fill="url(#paint14_linear_2906_40547)"/>
<path d="M232.444 87.5953C232.488 87.6037 232.533 87.6037 232.576 87.5953C232.607 87.5792 232.635 87.5576 232.657 87.5318C232.679 87.5061 232.695 87.4766 232.704 87.4451C232.714 87.4137 232.716 87.3809 232.712 87.3486C232.707 87.3163 232.695 87.2851 232.677 87.2569L214.978 58.76L195.964 86.1961C195.926 86.2533 195.914 86.3216 195.931 86.3865C195.948 86.4514 195.993 86.5078 196.055 86.5436C196.117 86.5774 196.191 86.5877 196.261 86.5722C196.331 86.5568 196.392 86.5169 196.429 86.4613L214.958 59.6745L232.161 87.4581C232.185 87.5061 232.226 87.5455 232.277 87.5704C232.328 87.5952 232.387 87.6039 232.444 87.5953Z" fill="url(#paint15_linear_2906_40547)"/>
<path d="M212.993 102.83C213.063 102.83 213.131 102.806 213.182 102.761C213.233 102.717 213.263 102.656 213.266 102.593L215.239 59.2162C215.239 59.1507 215.21 59.0879 215.159 59.0416C215.108 58.9953 215.038 58.9692 214.966 58.9692C214.894 58.9692 214.824 58.9953 214.773 59.0416C214.722 59.0879 214.693 59.1507 214.693 59.2162L212.72 102.593C212.717 102.625 212.721 102.658 212.733 102.689C212.745 102.72 212.764 102.749 212.789 102.773C212.814 102.797 212.844 102.816 212.877 102.829C212.91 102.842 212.946 102.849 212.983 102.849L212.993 102.83Z" fill="url(#paint16_linear_2906_40547)"/>
<path d="M214.967 60.9538C215.635 60.9538 216.435 60.8532 216.435 60.3777C216.435 59.9021 215.635 59.8015 214.967 59.8015C214.3 59.8015 213.51 59.9021 213.51 60.3777C213.51 60.8532 214.3 60.9538 214.967 60.9538Z" fill="url(#paint17_linear_2906_40547)"/>
<path d="M214.967 60.3579C215.635 60.3579 216.435 60.2573 216.435 59.7817C216.435 59.3062 215.635 59.2056 214.967 59.2056C214.3 59.2056 213.51 59.3062 213.51 59.7817C213.51 60.2573 214.3 60.3579 214.967 60.3579Z" fill="url(#paint18_linear_2906_40547)"/>
<path d="M214.967 59.7656C215.635 59.7656 216.435 59.665 216.435 59.1894C216.435 58.7139 215.635 58.6133 214.967 58.6133C214.3 58.6133 213.51 58.7139 213.51 59.1894C213.51 59.665 214.3 59.7656 214.967 59.7656Z" fill="url(#paint19_linear_2906_40547)"/>
<path d="M213.082 56.3357C213.082 57.8721 213.932 59.0793 215.015 59.0793C215.343 59.056 215.657 58.9503 215.921 58.7742C216.186 58.598 216.391 58.3584 216.512 58.0824C216.61 57.9101 216.688 57.7293 216.745 57.5429L216.209 57.8264C216.014 57.9343 215.797 58.0058 215.571 58.0367C215.508 58.1202 215.426 58.1904 215.33 58.2425C215.233 58.2946 215.126 58.3273 215.015 58.3385C214.489 58.3385 213.912 57.5154 213.912 56.3448C213.912 55.4943 214.286 54.8907 214.863 54.7627C214.869 54.7201 214.869 54.6772 214.863 54.6346L215.784 54.1591C214.752 53.6835 213.082 54.278 213.082 56.3357Z" fill="url(#paint20_linear_2906_40547)"/>
<path d="M103.714 47.7861C103.758 48.7989 103.938 49.8032 104.251 50.7766C105.586 55.1298 110.221 62.6656 126.331 62.6656C141.277 62.6656 146.357 55.6876 148.078 51.2704C148.543 50.1311 148.839 48.941 148.958 47.7312H144.91H107.833H103.785L103.714 47.7861Z" fill="url(#paint21_linear_2906_40547)"/>
<path d="M103.714 47.7861C103.758 48.799 103.938 49.8033 104.251 50.7766C106.973 55.3493 115.534 59.4738 126.331 59.4738C136.724 59.4738 145.032 55.6237 148.078 51.2888C148.543 50.1494 148.839 48.9593 148.958 47.7495H144.91C144.91 50.3742 137.695 55.4133 126.372 55.4133C115.048 55.4133 107.833 50.3742 107.833 47.7495H103.785L103.714 47.7861Z" fill="#FFDF85"/>
<path d="M103.714 47.7823C103.714 53.1415 113.378 59.1317 126.331 59.1317C139.284 59.1317 148.948 53.1415 148.948 47.7823C148.948 42.4232 139.274 36.4238 126.331 36.4238C113.388 36.4238 103.714 42.4598 103.714 47.7823Z" fill="url(#paint22_linear_2906_40547)"/>
<path d="M106.505 47.7834C106.507 48.032 106.534 48.28 106.586 48.5242C106.608 48.6598 106.638 48.7942 106.677 48.9266C107.902 53.2889 115.906 57.7244 126.339 57.7244C136.125 57.7244 143.795 53.801 145.688 49.7039C145.748 49.5759 145.799 49.4478 145.849 49.3198C146.044 48.8266 146.143 48.3069 146.143 47.7834C146.143 43.0827 137.673 37.8333 126.339 37.8333C115.006 37.8333 106.505 43.1193 106.505 47.7834Z" fill="url(#paint23_linear_2906_40547)"/>
<path d="M106.588 48.5635C106.61 48.6991 106.64 48.8335 106.679 48.9659C107.904 53.3282 115.908 57.7637 126.341 57.7637C136.127 57.7637 143.797 53.8404 145.69 49.7432C145.75 49.6152 145.801 49.4872 145.852 49.3591C144.324 45.1248 136.501 40.6985 126.038 40.6985C116.03 40.6985 108.663 44.6859 106.588 48.5635Z" fill="#FFDF85"/>
<path d="M106.677 48.9638C107.902 53.3262 115.906 57.7708 126.329 57.7708C136.125 57.7708 143.795 53.8383 145.687 49.7412C144.463 45.388 136.459 40.9434 126.036 40.9434C116.27 40.9434 108.57 44.8667 106.677 48.9638Z" fill="url(#paint24_linear_2906_40547)"/>
<path style="mix-blend-mode:multiply" d="M106.677 48.9765C107.912 53.3297 115.906 57.7744 126.329 57.7744C127.683 57.7748 129.035 57.6954 130.377 57.5366C124.012 56.1008 119.529 52.6804 119.529 48.6839C119.529 45.5105 122.362 42.7028 126.734 40.9561H126.015C116.27 40.9469 108.57 44.8703 106.677 48.9765Z" fill="url(#paint25_linear_2906_40547)"/>
<path d="M144.302 42.9747C144.304 43.1389 144.36 43.2989 144.462 43.4345C144.565 43.5702 144.709 43.6754 144.878 43.737C145.046 43.7986 145.231 43.8138 145.409 43.7806C145.587 43.7475 145.75 43.6675 145.878 43.5508C146.006 43.434 146.092 43.2857 146.127 43.1246C146.162 42.9634 146.143 42.7965 146.073 42.645C146.003 42.4934 145.885 42.364 145.734 42.2729C145.582 42.1819 145.405 42.1333 145.223 42.1333C145.101 42.1333 144.981 42.1551 144.868 42.1975C144.756 42.2399 144.654 42.302 144.568 42.3803C144.483 42.4585 144.415 42.5514 144.369 42.6534C144.324 42.7554 144.301 42.8646 144.302 42.9747Z" fill="url(#paint26_linear_2906_40547)"/>
<path d="M124.66 58.1756C124.662 58.3398 124.717 58.4998 124.82 58.6354C124.922 58.7711 125.067 58.8763 125.235 58.9379C125.404 58.9995 125.588 59.0147 125.766 58.9816C125.944 58.9484 126.107 58.8684 126.235 58.7517C126.363 58.635 126.45 58.4867 126.484 58.3255C126.519 58.1643 126.5 57.9974 126.43 57.8459C126.36 57.6944 126.242 57.5649 126.091 57.4739C125.94 57.3828 125.762 57.3342 125.581 57.3342C125.459 57.3342 125.338 57.356 125.226 57.3984C125.113 57.4408 125.011 57.5029 124.926 57.5812C124.84 57.6594 124.773 57.7523 124.727 57.8543C124.681 57.9563 124.658 58.0655 124.66 58.1756Z" fill="url(#paint27_linear_2906_40547)"/>
<path d="M107.58 41.8674C107.578 42.0342 107.631 42.1977 107.732 42.3373C107.833 42.4769 107.977 42.5861 108.147 42.6512C108.317 42.7163 108.505 42.7343 108.686 42.7028C108.867 42.6714 109.034 42.592 109.165 42.4747C109.296 42.3574 109.386 42.2075 109.423 42.0441C109.46 41.8806 109.442 41.711 109.372 41.5567C109.302 41.4024 109.182 41.2705 109.029 41.1776C108.876 41.0848 108.695 41.0352 108.511 41.0352C108.265 41.0351 108.03 41.1225 107.856 41.2783C107.682 41.4342 107.582 41.6458 107.58 41.8674Z" fill="url(#paint28_linear_2906_40547)"/>
<path d="M145.023 42.5619C145.069 42.5741 145.118 42.5741 145.164 42.5619C145.196 42.5458 145.223 42.5242 145.245 42.4985C145.267 42.4727 145.283 42.4432 145.293 42.4118C145.302 42.3803 145.305 42.3475 145.3 42.3152C145.295 42.2829 145.284 42.2517 145.266 42.2235L127.567 13.6809L108.552 41.1901C108.531 41.2177 108.515 41.2492 108.507 41.2824C108.5 41.3156 108.499 41.3499 108.507 41.3832C108.515 41.4165 108.53 41.448 108.551 41.4758C108.573 41.5036 108.601 41.527 108.633 41.5447C108.665 41.5624 108.701 41.5738 108.738 41.5784C108.775 41.583 108.813 41.5806 108.849 41.5714C108.885 41.5621 108.919 41.5462 108.948 41.5247C108.977 41.5032 109.001 41.4764 109.018 41.4462L127.547 14.6503L144.749 42.4339C144.776 42.4776 144.815 42.5131 144.864 42.536C144.913 42.5588 144.968 42.5679 145.023 42.5619Z" fill="url(#paint29_linear_2906_40547)"/>
<path d="M125.581 57.8437C125.651 57.8416 125.717 57.8162 125.768 57.7722C125.818 57.7283 125.849 57.6691 125.854 57.6059L127.827 14.2204C127.828 14.188 127.823 14.1556 127.81 14.1252C127.798 14.0948 127.779 14.0669 127.754 14.0431C127.73 14.0193 127.7 14.0001 127.668 13.9866C127.635 13.9731 127.6 13.9655 127.564 13.9643C127.528 13.9618 127.491 13.9661 127.457 13.9769C127.423 13.9877 127.391 14.0048 127.365 14.0272C127.338 14.0495 127.317 14.0766 127.302 14.1067C127.288 14.1368 127.281 14.1693 127.281 14.2021L125.307 57.5785C125.305 57.6449 125.33 57.7097 125.38 57.7592C125.429 57.8087 125.497 57.839 125.57 57.8437H125.581Z" fill="url(#paint30_linear_2906_40547)"/>
<path d="M127.554 15.9121C128.222 15.9121 129.012 15.8115 129.012 15.3359C129.012 14.8604 128.222 14.7598 127.554 14.7598C126.886 14.7598 126.097 14.8604 126.097 15.3359C126.097 15.8115 126.886 15.9121 127.554 15.9121Z" fill="url(#paint31_linear_2906_40547)"/>
<path d="M127.554 15.3171C128.222 15.3171 129.012 15.2165 129.012 14.741C129.012 14.2654 128.222 14.1648 127.554 14.1648C126.886 14.1648 126.097 14.2654 126.097 14.741C126.097 15.2165 126.886 15.3171 127.554 15.3171Z" fill="url(#paint32_linear_2906_40547)"/>
<path d="M127.554 14.7234C128.222 14.7234 129.012 14.6228 129.012 14.1472C129.012 13.6716 128.222 13.571 127.554 13.571C126.886 13.571 126.097 13.6716 126.097 14.1472C126.097 14.6228 126.886 14.7234 127.554 14.7234Z" fill="url(#paint33_linear_2906_40547)"/>
<path d="M125.672 11.2927C125.672 12.8292 126.522 14.0364 127.595 14.0364C127.974 14.0296 128.336 13.8922 128.606 13.6522L127.817 13.2407C127.75 13.2768 127.673 13.2957 127.595 13.2956C127.078 13.2956 126.502 12.4725 126.502 11.3019C126.502 10.3874 126.967 9.70146 127.665 9.70146C127.733 9.52858 127.757 9.34426 127.736 9.16188L128.04 9.00641C126.998 8.78692 125.672 9.46368 125.672 11.2927Z" fill="url(#paint34_linear_2906_40547)"/>
<path d="M41.3237 110.026V116.766C41.3237 125.833 57.6641 135.975 79.5599 135.975C101.456 135.975 117.806 125.86 117.806 116.766V109.971H110.898L48.2323 110.017H41.3237V110.026Z" fill="#180A33"/>
<path d="M41.3237 110.023C41.3237 119.08 57.6641 129.223 79.5599 129.223C101.456 129.223 117.806 119.108 117.806 110.023C117.806 100.938 101.445 90.8235 79.5599 90.8235C57.6743 90.8235 41.3237 100.957 41.3237 110.023Z" fill="#2D1C50"/>
<path d="M49.2778 101.614V107.169C49.2778 114.645 62.234 122.991 79.5692 122.991C96.9045 122.991 109.861 114.645 109.861 107.169V101.567H104.384H54.7542L49.2778 101.614Z" fill="#180A33"/>
<path d="M55.2672 149.991C55.6553 153.641 57.4569 157.051 60.3545 159.618C61.4227 160.527 62.6501 161.269 63.9868 161.816C65.7705 162.544 67.7068 162.917 69.6642 162.91C77.6106 162.91 85.6892 157.034 90.2474 147.949C95.0295 138.386 94.2054 128.869 88.7009 123.692C88.6899 123.665 88.6682 123.642 88.6398 123.628C87.4376 122.514 86.016 121.613 84.4479 120.97C82.6665 120.234 80.7292 119.858 78.7705 119.867C70.8241 119.867 62.7455 125.743 58.1873 134.837C55.7132 139.556 54.7039 144.793 55.2672 149.991Z" fill="#3C2864"/>
<path d="M55.7113 150.391C56.1033 153.834 57.7372 157.065 60.3611 159.586C61.4293 160.495 62.6567 161.238 63.9934 161.784C65.7771 162.512 67.7134 162.886 69.6708 162.878C77.6172 162.878 85.6958 157.002 90.254 147.917C95.0361 138.354 94.2119 128.837 88.7075 123.66C88.6965 123.633 88.6748 123.61 88.6464 123.596C87.5478 122.662 86.2862 121.897 84.9124 121.334C83.1296 120.603 81.1926 120.23 79.2349 120.24C71.2886 120.24 63.1998 126.106 58.6416 135.191C56.1563 139.923 55.1433 145.178 55.7113 150.391Z" fill="#2D1C50"/>
<path d="M70.6294 162.16C77.4158 162.16 84.8738 156.33 89.2387 147.659C94.6007 136.965 93.0948 126.261 85.8098 123.273C84.5753 122.771 83.2361 122.514 81.8825 122.519C75.096 122.519 67.638 128.349 63.2731 137.038C57.9111 147.723 59.4271 158.436 66.702 161.415C67.9372 161.914 69.2764 162.168 70.6294 162.16Z" fill="#180A33"/>
<path d="M63.4879 147.811C63.4354 149.838 63.8984 151.848 64.8411 153.687C65.4964 154.954 66.5376 156.025 67.8427 156.777L95.1716 170.772C95.5146 170.986 95.8791 171.171 96.2603 171.323C96.4583 171.409 96.6622 171.482 96.8708 171.544C97.6655 171.795 98.5014 171.922 99.3432 171.921C99.6596 171.921 99.9756 171.903 100.289 171.866C105.377 171.351 110.718 166.928 113.913 160.528C118.125 152.133 116.966 143.728 111.227 141.384L107.025 139.26L84.7833 127.857C84.439 127.64 84.0708 127.455 83.6845 127.306C82.7269 126.909 81.6854 126.705 80.6321 126.708C75.3006 126.708 69.4401 131.306 66.0214 138.101C64.4365 141.142 63.5735 144.45 63.4879 147.811Z" fill="#2D1C50"/>
<path d="M70.1309 151.221C70.1309 155.258 71.6265 158.577 74.4856 160.196L92.2606 169.281C90.2257 167.442 89.2082 164.563 89.2082 161.18C89.2783 157.743 90.1521 154.359 91.7722 151.249C95.2417 144.306 101.214 139.644 106.647 139.644C107.136 139.645 107.623 139.688 108.102 139.773L91.3958 131.24C91.0576 131.021 90.6963 130.833 90.3172 130.679C89.3585 130.286 88.3178 130.082 87.2649 130.081C81.9334 130.081 76.0728 134.679 72.644 141.474C71.0588 144.528 70.2026 147.849 70.1309 151.221Z" fill="url(#paint35_linear_2906_40547)"/>
<path style="mix-blend-mode:multiply" d="M64.8372 153.689C65.4924 154.956 66.5336 156.028 67.8387 156.779L103.307 174.967C103.654 175.179 104.018 175.367 104.396 175.528L105.006 175.749C106.024 175.859 107.194 175.969 108.435 176.061C113.523 175.556 118.864 171.124 122.059 164.724C126.271 156.328 125.111 147.924 119.373 145.588L107.021 139.262C97.1822 139.841 79.6616 141.368 71.1963 144.972C69.2833 145.671 67.6507 146.879 66.5149 148.436C65.3792 149.993 64.7941 151.825 64.8372 153.689Z" fill="url(#paint36_linear_2906_40547)"/>
<path d="M90.166 167.644C90.5577 171.297 92.3586 174.708 95.2533 177.281C97.7859 179.405 101.118 180.579 104.573 180.564C112.52 180.564 120.598 174.697 125.146 165.603C129.938 156.059 129.114 146.523 123.61 141.346L123.549 141.291C122.266 140.099 120.731 139.153 119.036 138.507C117.341 137.861 115.519 137.529 113.679 137.53C105.733 137.53 97.6443 143.406 93.0962 152.491C90.6152 157.208 89.6022 162.446 90.166 167.644Z" fill="#3C2864"/>
<path d="M90.6117 168.034C91.0037 171.477 92.6376 174.708 95.2615 177.229C97.7941 179.354 101.126 180.527 104.581 180.512C112.528 180.512 120.606 174.646 125.154 165.551C129.947 156.007 129.123 146.471 123.618 141.294L123.557 141.239C121.01 139.066 117.638 137.858 114.135 137.865C106.189 137.865 98.1002 143.74 93.5521 152.844C91.0618 157.571 90.0451 162.823 90.6117 168.034Z" fill="#2D1C50"/>
<path d="M107.167 179.118C113.455 179.118 120.394 173.711 124.464 165.666C129.439 155.744 128.035 145.813 121.29 143.045C120.144 142.581 118.902 142.343 117.647 142.346C111.349 142.346 104.42 147.753 100.35 155.808C95.3748 165.73 96.7789 175.661 103.535 178.419C104.675 178.888 105.915 179.127 107.167 179.118Z" fill="#180A33"/>
<path d="M40.5038 185.647C41.5898 185.643 42.6508 185.353 43.5561 184.81L82.0975 161.896C82.7148 161.529 83.246 161.055 83.6609 160.503C84.0758 159.95 84.3661 159.329 84.5154 158.675C84.6647 158.021 84.67 157.347 84.5309 156.691C84.3919 156.035 84.1113 155.41 83.7051 154.852C83.2989 154.294 82.7751 153.814 82.1636 153.439C81.5521 153.064 80.8649 152.802 80.1412 152.667C79.4174 152.532 78.6714 152.527 77.9456 152.653C77.2199 152.779 76.5286 153.032 75.9113 153.399L37.37 176.314C36.3614 176.914 35.593 177.79 35.1781 178.815C34.7633 179.839 34.724 180.957 35.0662 182.004C35.4084 183.05 36.1138 183.969 37.0783 184.625C38.0428 185.281 39.2152 185.64 40.4224 185.647H40.5038Z" fill="#180A33"/>
<path d="M30.2744 186.646C30.4856 186.932 30.7203 187.202 30.9764 187.456C32.1531 188.633 33.7573 189.391 35.4987 189.591C37.24 189.792 39.0033 189.423 40.4693 188.55L72.9466 169.24C74.5046 168.315 75.6153 166.889 76.0536 165.252C76.4919 163.615 76.2251 161.888 75.3071 160.422C75.2322 160.288 75.1472 160.159 75.0528 160.035C73.9794 158.567 72.3066 157.543 70.4001 157.186C68.4935 156.83 66.5082 157.17 64.8782 158.132L32.4111 177.442C30.781 178.409 29.6411 179.921 29.2407 181.646C28.8403 183.371 29.2119 185.169 30.2744 186.646Z" fill="#2D1C50"/>
<path style="mix-blend-mode:multiply" d="M30.9771 187.454C32.1537 188.632 33.7579 189.389 35.4993 189.59C37.2407 189.791 39.004 189.421 40.4699 188.548L72.9472 169.238C74.5052 168.314 75.6159 166.888 76.0542 165.251C76.4925 163.613 76.2257 161.886 75.3078 160.42L30.9771 187.454Z" fill="url(#paint37_linear_2906_40547)"/>
<path d="M48.9482 102.058C48.9482 109.313 62.0429 117.432 79.5636 117.432C97.0842 117.432 110.179 109.313 110.179 102.058C110.179 94.8026 97.0842 86.6924 79.5636 86.6924C62.0429 86.6924 48.9482 94.8026 48.9482 102.058Z" fill="#2D1C50"/>
<defs>
<linearGradient id="paint0_linear_2906_40547" x1="150.939" y1="106.514" x2="175.235" y2="122.065" gradientUnits="userSpaceOnUse">
<stop stop-color="#D1D3D4"/>
<stop offset="0.57" stop-color="#EEEFEF"/>
<stop offset="1" stop-color="white"/>
</linearGradient>
<linearGradient id="paint1_linear_2906_40547" x1="-2568.58" y1="7168.65" x2="-255.901" y2="9278.45" gradientUnits="userSpaceOnUse">
<stop stop-color="#D1D3D4"/>
<stop offset="0.57" stop-color="#EEEFEF"/>
<stop offset="1" stop-color="white"/>
</linearGradient>
<linearGradient id="paint2_linear_2906_40547" x1="-6546.82" y1="376.91" x2="-6505.89" y2="376.91" gradientUnits="userSpaceOnUse">
<stop stop-color="#18898E"/>
<stop offset="1" stop-color="#06616F"/>
</linearGradient>
<linearGradient id="paint3_linear_2906_40547" x1="164.167" y1="16.6538" x2="173.807" y2="35.3826" gradientUnits="userSpaceOnUse">
<stop stop-color="#E0E7EC"/>
<stop offset="0.5" stop-color="#B8C0C5"/>
<stop offset="1" stop-color="#E0E7EC"/>
</linearGradient>
<linearGradient id="paint4_linear_2906_40547" x1="-6747.1" y1="755.955" x2="-6802.69" y2="728.937" gradientUnits="userSpaceOnUse">
<stop stop-color="#D1D3D4"/>
<stop offset="0.57" stop-color="#EEEFEF"/>
<stop offset="1" stop-color="white"/>
</linearGradient>
<linearGradient id="paint5_linear_2906_40547" x1="-8656.03" y1="450.627" x2="-8712.03" y2="428.59" gradientUnits="userSpaceOnUse">
<stop stop-color="#D1D3D4"/>
<stop offset="0.57" stop-color="#EEEFEF"/>
<stop offset="1" stop-color="white"/>
</linearGradient>
<linearGradient id="paint6_linear_2906_40547" x1="-11523.1" y1="844.938" x2="-11626.5" y2="906.168" gradientUnits="userSpaceOnUse">
<stop stop-color="#D1D3D4"/>
<stop offset="0.57" stop-color="#EEEFEF"/>
<stop offset="1" stop-color="white"/>
</linearGradient>
<linearGradient id="paint7_linear_2906_40547" x1="236.369" y1="100.289" x2="191.125" y2="100.289" gradientUnits="userSpaceOnUse">
<stop stop-color="#E5B53E"/>
<stop offset="1" stop-color="#CAA239"/>
</linearGradient>
<linearGradient id="paint8_linear_2906_40547" x1="236.369" y1="92.854" x2="191.125" y2="92.854" gradientUnits="userSpaceOnUse">
<stop stop-color="#FCD24A"/>
<stop offset="1" stop-color="#E5BB2A"/>
</linearGradient>
<linearGradient id="paint9_linear_2906_40547" x1="-43520.8" y1="3430.19" x2="-41967.8" y2="3430.19" gradientUnits="userSpaceOnUse">
<stop stop-color="#E5B53E"/>
<stop offset="1" stop-color="#CAA239"/>
</linearGradient>
<linearGradient id="paint10_linear_2906_40547" x1="-42799.8" y1="2944.59" x2="-41296" y2="2944.59" gradientUnits="userSpaceOnUse">
<stop stop-color="#E5B53E"/>
<stop offset="1" stop-color="#CAA239"/>
</linearGradient>
<linearGradient id="paint11_linear_2906_40547" x1="-25539.6" y1="2773.73" x2="-25391.1" y2="3056.53" gradientUnits="userSpaceOnUse">
<stop stop-color="#D1D3D4"/>
<stop offset="0.57" stop-color="#EEEFEF"/>
<stop offset="1" stop-color="white"/>
</linearGradient>
<linearGradient id="paint12_linear_2906_40547" x1="-1821.26" y1="361.447" x2="-1817.85" y2="361.447" gradientUnits="userSpaceOnUse">
<stop stop-color="#E5B53E"/>
<stop offset="1" stop-color="#CAA239"/>
</linearGradient>
<linearGradient id="paint13_linear_2906_40547" x1="-1782.78" y1="401.31" x2="-1779.43" y2="401.31" gradientUnits="userSpaceOnUse">
<stop stop-color="#E5B53E"/>
<stop offset="1" stop-color="#CAA239"/>
</linearGradient>
<linearGradient id="paint14_linear_2906_40547" x1="-1768.81" y1="355.353" x2="-1765.46" y2="355.353" gradientUnits="userSpaceOnUse">
<stop stop-color="#E5B53E"/>
<stop offset="1" stop-color="#CAA239"/>
</linearGradient>
<linearGradient id="paint15_linear_2906_40547" x1="-40337.2" y1="4291.26" x2="-38999.5" y2="4291.26" gradientUnits="userSpaceOnUse">
<stop stop-color="#FCD24A"/>
<stop offset="1" stop-color="#E5BB2A"/>
</linearGradient>
<linearGradient id="paint16_linear_2906_40547" x1="-2520.68" y1="6869.05" x2="-2514.4" y2="6869.05" gradientUnits="userSpaceOnUse">
<stop stop-color="#FCD24A"/>
<stop offset="1" stop-color="#E5BB2A"/>
</linearGradient>
<linearGradient id="paint17_linear_2906_40547" x1="-2957.42" y1="211.998" x2="-2957.37" y2="213.656" gradientUnits="userSpaceOnUse">
<stop stop-color="#FCD24A"/>
<stop offset="1" stop-color="#E5BB2A"/>
</linearGradient>
<linearGradient id="paint18_linear_2906_40547" x1="-2957.51" y1="210.631" x2="-2957.44" y2="212.125" gradientUnits="userSpaceOnUse">
<stop stop-color="#FCD24A"/>
<stop offset="1" stop-color="#E5BB2A"/>
</linearGradient>
<linearGradient id="paint19_linear_2906_40547" x1="-2957.51" y1="209.038" x2="-2957.43" y2="211.047" gradientUnits="userSpaceOnUse">
<stop stop-color="#FCD24A"/>
<stop offset="1" stop-color="#E5BB2A"/>
</linearGradient>
<linearGradient id="paint20_linear_2906_40547" x1="-3765.01" y1="706.453" x2="-3751.75" y2="706.453" gradientUnits="userSpaceOnUse">
<stop stop-color="#FCD24A"/>
<stop offset="1" stop-color="#E5BB2A"/>
</linearGradient>
<linearGradient id="paint21_linear_2906_40547" x1="-45998.3" y1="1946.93" x2="-43975.4" y2="1946.93" gradientUnits="userSpaceOnUse">
<stop stop-color="#E5B53E"/>
<stop offset="1" stop-color="#CAA239"/>
</linearGradient>
<linearGradient id="paint22_linear_2906_40547" x1="-45987.5" y1="2739.57" x2="-43965.6" y2="2739.57" gradientUnits="userSpaceOnUse">
<stop stop-color="#FCD24A"/>
<stop offset="1" stop-color="#E5BB2A"/>
</linearGradient>
<linearGradient id="paint23_linear_2906_40547" x1="-40173.2" y1="2405.67" x2="-38620.2" y2="2405.67" gradientUnits="userSpaceOnUse">
<stop stop-color="#E5B53E"/>
<stop offset="1" stop-color="#CAA239"/>
</linearGradient>
<linearGradient id="paint24_linear_2906_40547" x1="-39517.5" y1="2072.35" x2="-38013.7" y2="2072.35" gradientUnits="userSpaceOnUse">
<stop stop-color="#E5B53E"/>
<stop offset="1" stop-color="#CAA239"/>
</linearGradient>
<linearGradient id="paint25_linear_2906_40547" x1="-23579.9" y1="1900.39" x2="-23431.3" y2="2183.19" gradientUnits="userSpaceOnUse">
<stop stop-color="#D1D3D4"/>
<stop offset="0.57" stop-color="#EEEFEF"/>
<stop offset="1" stop-color="white"/>
</linearGradient>
<linearGradient id="paint26_linear_2906_40547" x1="-1727.25" y1="231.448" x2="-1723.88" y2="231.448" gradientUnits="userSpaceOnUse">
<stop stop-color="#E5B53E"/>
<stop offset="1" stop-color="#CAA239"/>
</linearGradient>
<linearGradient id="paint27_linear_2906_40547" x1="-1711.12" y1="274.295" x2="-1707.77" y2="274.295" gradientUnits="userSpaceOnUse">
<stop stop-color="#E5B53E"/>
<stop offset="1" stop-color="#CAA239"/>
</linearGradient>
<linearGradient id="paint28_linear_2906_40547" x1="-1716.98" y1="230.394" x2="-1713.59" y2="230.394" gradientUnits="userSpaceOnUse">
<stop stop-color="#E5B53E"/>
<stop offset="1" stop-color="#CAA239"/>
</linearGradient>
<linearGradient id="paint29_linear_2906_40547" x1="-37257.7" y1="2830.47" x2="-35919.6" y2="2830.47" gradientUnits="userSpaceOnUse">
<stop stop-color="#FCD24A"/>
<stop offset="1" stop-color="#E5BB2A"/>
</linearGradient>
<linearGradient id="paint30_linear_2906_40547" x1="-2390.02" y1="4663.5" x2="-2383.75" y2="4663.5" gradientUnits="userSpaceOnUse">
<stop stop-color="#FCD24A"/>
<stop offset="1" stop-color="#E5BB2A"/>
</linearGradient>
<linearGradient id="paint31_linear_2906_40547" x1="-2782.11" y1="110.218" x2="-2782.05" y2="111.864" gradientUnits="userSpaceOnUse">
<stop stop-color="#FCD24A"/>
<stop offset="1" stop-color="#E5BB2A"/>
</linearGradient>
<linearGradient id="paint32_linear_2906_40547" x1="-2782.19" y1="108.851" x2="-2782.12" y2="110.334" gradientUnits="userSpaceOnUse">
<stop stop-color="#FCD24A"/>
<stop offset="1" stop-color="#E5BB2A"/>
</linearGradient>
<linearGradient id="paint33_linear_2906_40547" x1="-2782.2" y1="107.254" x2="-2782.12" y2="109.264" gradientUnits="userSpaceOnUse">
<stop stop-color="#FCD24A"/>
<stop offset="1" stop-color="#E5BB2A"/>
</linearGradient>
<linearGradient id="paint34_linear_2906_40547" x1="-2805.59" y1="411.103" x2="-2797.11" y2="411.103" gradientUnits="userSpaceOnUse">
<stop stop-color="#FCD24A"/>
<stop offset="1" stop-color="#E5BB2A"/>
</linearGradient>
<linearGradient id="paint35_linear_2906_40547" x1="-10023.5" y1="10804.1" x2="-11441.4" y2="10804.1" gradientUnits="userSpaceOnUse">
<stop stop-color="#FCD24A"/>
<stop offset="1" stop-color="#E5BB2A"/>
</linearGradient>
<linearGradient id="paint36_linear_2906_40547" x1="-14840.8" y1="10479.5" x2="-18353" y2="10479.5" gradientUnits="userSpaceOnUse">
<stop stop-color="#D1D3D4"/>
<stop offset="0.57" stop-color="#EEEFEF"/>
<stop offset="1" stop-color="white"/>
</linearGradient>
<linearGradient id="paint37_linear_2906_40547" x1="-13346.9" y1="8924.45" x2="-15362.5" y2="8924.45" gradientUnits="userSpaceOnUse">
<stop stop-color="#D1D3D4"/>
<stop offset="0.57" stop-color="#EEEFEF"/>
<stop offset="1" stop-color="white"/>
</linearGradient>
</defs>
</svg>
