<svg width="88" height="64" viewBox="0 0 88 64" fill="none" xmlns="http://www.w3.org/2000/svg">
<g clip-path="url(#clip0_2906_40529)">
<path d="M68.4724 3.57745C68.4333 3.53598 68.3914 3.49728 68.3495 3.45858C67.2792 2.47592 65.8704 1.93415 64.4104 1.94372H48.8694C48.2386 1.31328 47.4879 0.812818 46.6605 0.471267C45.8331 0.129717 44.9454 -0.0461426 44.0489 -0.0461426C43.1524 -0.0461426 42.2648 0.129717 41.4374 0.471267C40.61 0.812818 39.8592 1.31328 39.2285 1.94372H23.6874C22.2274 1.93415 20.8186 2.47592 19.7483 3.45858L19.6254 3.57745L14.6304 8.52286L23.0868 16.8905V17.2305H23.4304L32.7472 26.4469L37.7422 21.5153C38.1091 21.1536 38.4249 20.7444 38.6809 20.299C39.222 19.3636 40.004 18.5869 40.9472 18.0479C41.8904 17.5089 42.9611 17.2269 44.0503 17.2305C45.1383 17.2245 46.2083 17.5044 47.1512 18.0416C48.094 18.5787 48.8759 19.3539 49.4169 20.2879C49.6748 20.7321 49.9904 21.1411 50.3556 21.5042L55.3506 26.4469L64.6674 17.2305H65.0111V16.8905L73.473 8.52286L68.4724 3.57745Z" fill="#180A33"/>
<path d="M44.0501 11.4115C46.6993 11.4115 48.8468 9.28643 48.8468 6.66508C48.8468 4.04373 46.6993 1.9187 44.0501 1.9187C41.401 1.9187 39.2534 4.04373 39.2534 6.66508C39.2534 9.28643 41.401 11.4115 44.0501 11.4115Z" fill="#2D1763"/>
<path d="M45.3871 9.36944C46.8978 8.63838 47.5236 6.83386 46.7848 5.33893C46.046 3.844 44.2223 3.22477 42.7116 3.95584C41.2008 4.6869 40.575 6.49142 41.3138 7.98634C42.0526 9.48127 43.8763 10.1005 45.3871 9.36944Z" fill="black"/>
<path d="M70.0565 40.9237C80.0205 40.9237 88.0979 32.9311 88.0979 23.0716C88.0979 13.2122 80.0205 5.21948 70.0565 5.21948C60.0925 5.21948 52.0151 13.2122 52.0151 23.0716C52.0151 32.9311 60.0925 40.9237 70.0565 40.9237Z" fill="#180A33"/>
<path d="M70.0575 37.8382C78.2996 37.8382 84.9811 31.2267 84.9811 23.0711C84.9811 14.9154 78.2996 8.30396 70.0575 8.30396C61.8153 8.30396 55.1338 14.9154 55.1338 23.0711C55.1338 31.2267 61.8153 37.8382 70.0575 37.8382Z" fill="#9900FF"/>
<path d="M57.6332 24.2127C57.5574 24.2128 57.4824 24.1977 57.4127 24.1682C57.343 24.1387 57.2801 24.0955 57.2279 24.0412C57.1756 23.9869 57.135 23.9226 57.1087 23.8523C57.0823 23.782 57.0706 23.7071 57.0744 23.6322C57.2225 20.1302 58.6945 16.811 61.1987 14.3321C63.7029 11.8531 67.0567 10.3953 70.5957 10.2473C70.6714 10.2435 70.7471 10.255 70.8181 10.2811C70.8892 10.3073 70.9541 10.3474 71.009 10.3991C71.0639 10.4508 71.1075 10.513 71.1373 10.582C71.1671 10.6509 71.1825 10.7252 71.1824 10.8001C71.1825 10.9435 71.1263 11.0812 71.0257 11.1844C70.9251 11.2875 70.788 11.348 70.6432 11.353C67.3857 11.4874 64.2981 12.828 61.9924 15.109C59.6867 17.3899 58.3313 20.4448 58.1947 23.6682C58.1925 23.8138 58.1323 23.9527 58.0271 24.0547C57.922 24.1567 57.7804 24.2135 57.6332 24.2127Z" fill="white"/>
<path d="M18.0414 40.9237C28.0054 40.9237 36.0828 32.9311 36.0828 23.0716C36.0828 13.2122 28.0054 5.21948 18.0414 5.21948C8.07741 5.21948 0 13.2122 0 23.0716C0 32.9311 8.07741 40.9237 18.0414 40.9237Z" fill="#180A33"/>
<path d="M18.0423 37.8382C26.2845 37.8382 32.966 31.2267 32.966 23.0711C32.966 14.9154 26.2845 8.30396 18.0423 8.30396C9.80021 8.30396 3.11865 14.9154 3.11865 23.0711C3.11865 31.2267 9.80021 37.8382 18.0423 37.8382Z" fill="#9900FF"/>
<path d="M5.61753 24.2127C5.54175 24.2128 5.46674 24.1977 5.39706 24.1682C5.32739 24.1387 5.2645 24.0955 5.21224 24.0412C5.15997 23.9869 5.11942 23.9226 5.09304 23.8523C5.06666 23.782 5.05502 23.7071 5.0588 23.6322C5.20569 20.1294 6.67761 16.8091 9.18266 14.3298C11.6877 11.8505 15.0429 10.3933 18.5829 10.2473C18.6586 10.2435 18.7342 10.255 18.8053 10.2811C18.8763 10.3073 18.9413 10.3474 18.9961 10.3991C19.051 10.4508 19.0947 10.513 19.1245 10.582C19.1543 10.6509 19.1696 10.7252 19.1695 10.8001C19.1696 10.9439 19.113 11.0821 19.0119 11.1853C18.9107 11.2885 18.7728 11.3487 18.6276 11.353C15.3687 11.487 12.2799 12.8286 9.97437 15.1115C7.66881 17.3944 6.31506 20.4517 6.18185 23.6765C6.17747 23.8211 6.11591 23.9584 6.01039 24.0586C5.90488 24.1589 5.76382 24.2142 5.61753 24.2127Z" fill="white"/>
<path d="M3.02176 51.9225V54.8831H9.95281V57.5258H3.02176V62.9356H0.0493164V49.2798H10.6652V51.9225H3.02176Z" fill="#180A33"/>
<path d="M12.8281 49.2798H15.8006V62.9384H12.8281V49.2798Z" fill="#180A33"/>
<path d="M18.6738 49.2798H23.6186C28.2588 49.2798 31.5526 52.1022 31.5526 56.0994C31.5526 60.0966 28.2588 62.9384 23.6186 62.9384H18.6738V49.2798ZM23.9985 60.2736C26.6301 60.2736 28.4991 58.5431 28.4991 56.0994C28.4991 53.6557 26.6301 51.9529 23.9985 51.9529H21.6295V60.2819L23.9985 60.2736Z" fill="#180A33"/>
<path d="M36.8176 51.9225V54.6454H43.7486V57.2881H36.8176V60.2902H44.4694V62.9356H33.8535V49.2798H44.4694V51.9225H36.8176Z" fill="#180A33"/>
<path d="M56.4659 60.2929V62.9384H46.6211V49.2798H49.5963V60.2929H56.4659Z" fill="#180A33"/>
<path d="M58.4146 49.2798H61.387V62.9384H58.4146V49.2798Z" fill="#180A33"/>
<path d="M63.7222 60.7103L70.9857 51.9253H63.8814V49.2798H75.056V51.5078L67.7925 60.2929H75.1259V62.9384H63.7417L63.7222 60.7103Z" fill="#180A33"/>
<path d="M80.3961 51.9225V54.6454H87.3272V57.2881H80.3961V60.2902H88.0507V62.9356H77.4209V49.2798H88.0507V51.9225H80.3961Z" fill="#180A33"/>
</g>
<defs>
<clipPath id="clip0_2906_40529">
<rect width="88" height="63.027" fill="white"/>
</clipPath>
</defs>
</svg>
