<svg width="67" height="80" viewBox="0 0 67 80" fill="none" xmlns="http://www.w3.org/2000/svg">
<path opacity="0.8" fill-rule="evenodd" clip-rule="evenodd" d="M5.96503e-09 3.31394V76.0227C-3.0011e-05 76.5484 0.113228 77.0689 0.333223 77.5541C0.553219 78.0393 0.875585 78.4796 1.28168 78.8494C1.68777 79.2193 2.16953 79.5114 2.6991 79.7088C3.22866 79.9063 3.79552 80.0052 4.36689 79.9998L62.7217 79.447C63.8605 79.4362 64.9486 79.0125 65.7497 78.2678C66.5507 77.5231 67.0001 76.5176 67 75.4698V19.646C67 19.2015 66.8055 18.775 66.4597 18.4628L46.5347 0.474272C46.1978 0.170141 45.7446 -0.000159902 45.2726 1.49171e-07H3.60287C3.12979 -0.000130447 2.66131 0.0854907 2.22419 0.251973C1.78708 0.418455 1.38989 0.662538 1.05532 0.970278C0.72075 1.27802 0.455348 1.64339 0.274273 2.04552C0.0931988 2.44765 -1.5328e-08 2.87866 5.96503e-09 3.31394Z" fill="#F2E2FF"/>
<path opacity="0.4" fill-rule="evenodd" clip-rule="evenodd" d="M46.625 0V15.428C46.625 15.8657 46.7112 16.2991 46.8787 16.7035C47.0462 17.1079 47.2917 17.4753 47.6012 17.7848C47.9107 18.0943 48.2781 18.3398 48.6825 18.5073C49.0869 18.6748 49.5203 18.761 49.958 18.761H65.753" fill="#D6A2FF"/>
<path d="M48.1899 41.041C46.0779 47.408 40.0749 52 32.9999 52C25.9419 52 19.9519 47.43 17.8259 41.088" stroke="#9000FF" stroke-width="5" stroke-linecap="round" stroke-linejoin="round"/>
<path d="M40.5 28V34M24.5 28V34V28Z" stroke="#9000FF" stroke-width="5" stroke-linecap="round" stroke-linejoin="round"/>
</svg>
