<svg xmlns="http://www.w3.org/2000/svg" width="14" height="14" viewBox="0 0 14 14"><path fill="#9000FF" fill-rule="nonzero" d="M2.625 0h1.75a.875.875 0 0 1 .102 1.744l-.102.006h-1.75c-.466 0-.817.28-.869.6l-.006.08v9.14c0 .323.315.63.761.674l.114.006h1.75a.875.875 0 0 1 .102 1.744L4.375 14h-1.75c-1.377 0-2.54-.989-2.62-2.286L0 11.57V2.431C0 1.11 1.113.077 2.473.004L2.625 0h1.75-1.75zm7.536 2.809l.083.072 3.5 3.5a.85.85 0 0 1 .07.08l-.07-.08A.882.882 0 0 1 14 7l-.004-.075.003.047L14 7a.89.89 0 0 1-.193.547l-.063.072-3.5 3.5a.875.875 0 0 1-1.31-1.155l.072-.083 2.006-2.006H6.125a.875.875 0 0 1-.869-.773L5.25 7c0-.483.392-.875.875-.875h4.887L9.006 4.119a.875.875 0 0 1 1.155-1.31z"></path></svg>
