<svg width="56" height="40" viewBox="0 0 56 40" fill="none" xmlns="http://www.w3.org/2000/svg">
<g clip-path="url(#clip0_1133_22413)">
<path d="M43.2275 2.27041C43.2028 2.24409 43.1764 2.21953 43.1499 2.19497C42.4742 1.57132 41.5849 1.22749 40.6631 1.23357H30.8518C30.4537 0.83346 29.9797 0.515841 29.4573 0.299076C28.935 0.0823121 28.3746 -0.0292969 27.8086 -0.0292969C27.2427 -0.0292969 26.6823 0.0823121 26.1599 0.299076C25.6376 0.515841 25.1636 0.83346 24.7654 1.23357H14.9541C14.0324 1.22749 13.1431 1.57132 12.4674 2.19497L12.3898 2.27041L9.23633 5.40901L14.575 10.7195V10.9353H14.7919L20.6737 16.7844L23.8272 13.6546C24.0588 13.4251 24.2581 13.1654 24.4198 12.8827C24.7614 12.2891 25.255 11.7961 25.8505 11.4541C26.446 11.112 27.1219 10.933 27.8095 10.9353C28.4964 10.9315 29.1719 11.1091 29.7671 11.45C30.3624 11.7909 30.856 12.2829 31.1975 12.8757C31.3603 13.1576 31.5596 13.4171 31.7901 13.6476L34.9436 16.7844L40.8254 10.9353H41.0423V10.7195L46.3845 5.40901L43.2275 2.27041Z" fill="#180A33"/>
<path d="M27.8095 7.24233C29.4819 7.24233 30.8377 5.89369 30.8377 4.23005C30.8377 2.56642 29.4819 1.21777 27.8095 1.21777C26.137 1.21777 24.7812 2.56642 24.7812 4.23005C24.7812 5.89369 26.137 7.24233 27.8095 7.24233Z" fill="#2D1763"/>
<path d="M28.6533 5.94623C29.6071 5.48227 30.0022 4.33703 29.5357 3.38828C29.0693 2.43953 27.918 2.04653 26.9643 2.5105C26.0105 2.97447 25.6154 4.1197 26.0818 5.06845C26.5483 6.01721 27.6996 6.4102 28.6533 5.94623Z" fill="black"/>
<path d="M44.2277 25.9721C50.5181 25.9721 55.6174 20.8996 55.6174 14.6423C55.6174 8.38504 50.5181 3.3125 44.2277 3.3125C37.9373 3.3125 32.8379 8.38504 32.8379 14.6423C32.8379 20.8996 37.9373 25.9721 44.2277 25.9721Z" fill="#180A33"/>
<path d="M44.2282 24.0139C49.4315 24.0139 53.6497 19.8179 53.6497 14.642C53.6497 9.46598 49.4315 5.27002 44.2282 5.27002C39.0248 5.27002 34.8066 9.46598 34.8066 14.642C34.8066 19.8179 39.0248 24.0139 44.2282 24.0139Z" fill="#9900FF"/>
<path d="M36.3844 15.3665C36.3366 15.3666 36.2892 15.357 36.2452 15.3382C36.2012 15.3195 36.1616 15.2921 36.1286 15.2576C36.0956 15.2232 36.07 15.1824 36.0533 15.1378C36.0367 15.0932 36.0293 15.0456 36.0317 14.9981C36.1252 12.7756 37.0544 10.6691 38.6354 9.09579C40.2163 7.52253 42.3336 6.5973 44.5679 6.50337C44.6156 6.50099 44.6634 6.5083 44.7083 6.52487C44.7531 6.54143 44.7941 6.5669 44.8288 6.59972C44.8634 6.63255 44.891 6.67204 44.9098 6.71579C44.9286 6.75955 44.9383 6.80665 44.9382 6.85425C44.9383 6.94522 44.9028 7.03265 44.8393 7.09811C44.7758 7.16357 44.6892 7.20194 44.5978 7.20512C42.5413 7.29043 40.5921 8.14121 39.1365 9.58883C37.6809 11.0364 36.8251 12.9752 36.7389 15.0209C36.7375 15.1134 36.6995 15.2015 36.6331 15.2662C36.5667 15.331 36.4774 15.367 36.3844 15.3665Z" fill="white"/>
<path d="M11.3898 25.9721C17.6802 25.9721 22.7795 20.8996 22.7795 14.6423C22.7795 8.38504 17.6802 3.3125 11.3898 3.3125C5.09937 3.3125 0 8.38504 0 14.6423C0 20.8996 5.09937 25.9721 11.3898 25.9721Z" fill="#180A33"/>
<path d="M11.3903 24.0139C16.5936 24.0139 20.8118 19.8179 20.8118 14.642C20.8118 9.46598 16.5936 5.27002 11.3903 5.27002C6.18691 5.27002 1.96875 9.46598 1.96875 14.642C1.96875 19.8179 6.18691 24.0139 11.3903 24.0139Z" fill="#9900FF"/>
<path d="M3.54653 15.3665C3.49869 15.3666 3.45133 15.357 3.40735 15.3382C3.36336 15.3195 3.32366 15.2921 3.29066 15.2576C3.25767 15.2232 3.23207 15.1824 3.21541 15.1378C3.19876 15.0932 3.19141 15.0456 3.1938 14.9981C3.28653 12.775 4.21577 10.6678 5.79724 9.09433C7.37871 7.52086 9.49689 6.59607 11.7317 6.50337C11.7795 6.50099 11.8273 6.5083 11.8721 6.52487C11.917 6.54143 11.958 6.5669 11.9926 6.59972C12.0273 6.63255 12.0548 6.67204 12.0737 6.71579C12.0925 6.75955 12.1021 6.80665 12.1021 6.85425C12.1021 6.94551 12.0664 7.0332 12.0025 7.0987C11.9387 7.16421 11.8516 7.20239 11.7599 7.20512C9.70259 7.29015 7.7526 8.1416 6.29706 9.59045C4.84153 11.0393 3.98689 12.9796 3.9028 15.0262C3.90003 15.118 3.86117 15.2051 3.79455 15.2687C3.72794 15.3324 3.63889 15.3675 3.54653 15.3665Z" fill="white"/>
<path d="M1.90779 32.9526V34.8315H6.28345V36.5087H1.90779V39.9421H0.03125V31.2754H6.73319V32.9526H1.90779Z" fill="#180A33"/>
<path d="M8.09863 31.2754H9.97517V39.9438H8.09863V31.2754Z" fill="#180A33"/>
<path d="M11.7891 31.2754H14.9108C17.8402 31.2754 19.9196 33.0666 19.9196 35.6035C19.9196 38.1403 17.8402 39.9438 14.9108 39.9438H11.7891V31.2754ZM15.1506 38.2526C16.812 38.2526 17.9919 37.1543 17.9919 35.6035C17.9919 34.0526 16.812 32.9719 15.1506 32.9719H13.655V38.2578L15.1506 38.2526Z" fill="#180A33"/>
<path d="M23.2433 32.9526V34.6807H27.619V36.3578H23.2433V38.2631H28.074V39.9421H21.3721V31.2754H28.074V32.9526H23.2433Z" fill="#180A33"/>
<path d="M35.6478 38.2649V39.9438H29.4326V31.2754H31.3109V38.2649H35.6478Z" fill="#180A33"/>
<path d="M36.8779 31.2754H38.7545V39.9438H36.8779V31.2754Z" fill="#180A33"/>
<path d="M40.2285 38.5298L44.8141 32.9543H40.329V31.2754H47.3837V32.6894L42.7982 38.2649H47.4278V39.9438H40.2409L40.2285 38.5298Z" fill="#180A33"/>
<path d="M50.7553 32.9526V34.6807H55.1309V36.3578H50.7553V38.2631H55.5877V39.9421H48.877V31.2754H55.5877V32.9526H50.7553Z" fill="#180A33"/>
</g>
<defs>
<clipPath id="clip0_1133_22413">
<rect width="55.5556" height="40" fill="white"/>
</clipPath>
</defs>
</svg>
