 <svg
    width="20"
    height="20"
    viewBox="0 0 20 20"
    fill="none"
    xmlns="http://www.w3.org/2000/svg"
  >
    <path
      d="M18.6318 6.4155C18.1976 5.97976 17.6813 5.63447 17.1129 5.3996C16.5444 5.16474 15.9349 5.04497 15.3198 5.04723C14.4786 5.04282 13.6525 5.27069 12.9325 5.70573L10.9397 5.18379C10.006 4.93874 9.98816 4.93874 9.03765 5.18379L7.05136 5.69547C6.33503 5.26693 5.51494 5.04291 4.68023 5.04777C4.06513 5.04551 3.4557 5.16528 2.8872 5.40014C2.31871 5.63501 1.80245 5.98031 1.36831 6.41604C0.932534 6.85005 0.587212 7.3662 0.352342 7.93462C0.117472 8.50303 -0.00227554 9.1124 3.39667e-05 9.72742C-0.00231718 10.3425 0.117413 10.952 0.352283 11.5205C0.587153 12.089 0.932494 12.6053 1.36831 13.0393C1.80245 13.4751 2.31871 13.8204 2.8872 14.0552C3.4557 14.2901 4.06513 14.4099 4.68023 14.4076C5.80124 14.4074 6.88424 14.0011 7.72875 13.2639C8.48835 12.5976 9.01647 11.7072 9.23682 10.7211H10.7595C10.9766 11.7423 11.5326 12.6601 12.3372 13.3254C13.1754 14.0215 14.2303 14.4032 15.3198 14.4049C15.9349 14.4072 16.5444 14.2874 17.1129 14.0525C17.6813 13.8177 18.1976 13.4724 18.6318 13.0366C19.0676 12.6026 19.4129 12.0863 19.6478 11.5178C19.8826 10.9493 20.0024 10.3398 20 9.72472C20.0021 9.11006 19.8822 8.5011 19.6473 7.93308C19.4124 7.36506 19.0673 6.84925 18.6318 6.4155ZM18.6857 9.72688C18.6875 10.169 18.6016 10.6071 18.4331 11.0158C18.2646 11.4246 18.0168 11.7959 17.7039 12.1083C17.3915 12.4211 17.0202 12.669 16.6115 12.8375C16.2027 13.006 15.7647 13.0918 15.3225 13.0901C14.8805 13.092 14.4424 13.0061 14.0338 12.8376C13.6251 12.6691 13.2539 12.4212 12.9417 12.1083C12.6288 11.7959 12.381 11.4246 12.2125 11.0158C12.044 10.6071 11.9581 10.169 11.9599 9.72688C11.958 9.28483 12.0438 8.84679 12.2123 8.43812C12.3809 8.02945 12.6288 7.65827 12.9417 7.34604C13.2539 7.03311 13.6251 6.7852 14.0338 6.61668C14.4424 6.44815 14.8805 6.36235 15.3225 6.36422C15.7647 6.36245 16.2027 6.44831 16.6115 6.61682C17.0202 6.78534 17.3915 7.03319 17.7039 7.34604C18.0164 7.65849 18.2638 8.02978 18.4318 8.43844C18.5999 8.8471 18.6853 9.28502 18.683 9.72688H18.6857ZM8.32248 6.7291L9.24869 6.49053C9.36906 6.45976 9.46945 6.43278 9.55473 6.40957C9.99841 6.29028 9.99841 6.29028 10.4324 6.40957C10.5204 6.43386 10.6251 6.46354 10.753 6.49593L11.7321 6.75231L11.724 6.76148C11.3195 7.25261 11.0141 7.81756 10.8248 8.425L10.8215 8.43579C10.7339 8.75205 10.6778 9.07624 10.6542 9.40357H9.35017C9.32571 9.07514 9.26986 8.7498 9.18338 8.43202L9.18014 8.42176C8.99022 7.81281 8.68351 7.24668 8.27714 6.755L8.33705 6.73989L8.32248 6.7291ZM4.68293 13.0901C4.24081 13.0918 3.80273 13.006 3.39399 12.8375C2.98524 12.669 2.61394 12.4211 2.30154 12.1083C1.98869 11.7959 1.74085 11.4246 1.57233 11.0158C1.40381 10.6071 1.31796 10.169 1.31973 9.72688C1.31785 9.28483 1.40366 8.84679 1.57219 8.43812C1.74072 8.02945 1.98861 7.65827 2.30154 7.34604C2.61394 7.03319 2.98524 6.78534 3.39399 6.61682C3.80273 6.44831 4.24081 6.36245 4.68293 6.36422C5.12498 6.36235 5.56302 6.44815 5.97169 6.61668C6.38036 6.7852 6.75154 7.03311 7.06378 7.34604C7.3767 7.65827 7.62461 8.02945 7.79313 8.43812C7.96166 8.84679 8.04747 9.28483 8.04559 9.72688C8.04736 10.169 7.9615 10.6071 7.79298 11.0158C7.62446 11.4246 7.37662 11.7959 7.06378 12.1083C6.75122 12.4215 6.37959 12.6696 5.97043 12.8381C5.56128 13.0067 5.12273 13.0923 4.68023 13.0901H4.68293Z"
      fill="#9000FF"
    />
  </svg>
