<svg
    width="20"
    height="20"
    viewBox="0 0 20 20"
    fill="none"
    xmlns="http://www.w3.org/2000/svg"
  >
    <path
      fill-rule="evenodd"
      clip-rule="evenodd"
      d="M11 11.75C11 11.3358 11.3358 11 11.75 11H17.25C17.6642 11 18 11.3358 18 11.75V17.25C18 17.6642 17.6642 18 17.25 18H11.75C11.3358 18 11 17.6642 11 17.25V11.75ZM12.5 12.5V16.5H16.5V12.5H12.5Z"
      fill="#9000FF"
    />
    <path
      fill-rule="evenodd"
      clip-rule="evenodd"
      d="M2 11.75C2 11.3358 2.33579 11 2.75 11H8.25C8.66421 11 9 11.3358 9 11.75V17.25C9 17.6642 8.66421 18 8.25 18H2.75C2.33579 18 2 17.6642 2 17.25V11.75ZM3.5 12.5V16.5H7.5V12.5H3.5Z"
      fill="#9000FF"
    />
    <path
      fill-rule="evenodd"
      clip-rule="evenodd"
      d="M11 2.75C11 2.33579 11.3358 2 11.75 2H17.25C17.6642 2 18 2.33579 18 2.75V8.25C18 8.66421 17.6642 9 17.25 9H11.75C11.3358 9 11 8.66421 11 8.25V2.75ZM12.5 3.5V7.5H16.5V3.5H12.5Z"
      fill="#9000FF"
    />
    <path
      fill-rule="evenodd"
      clip-rule="evenodd"
      d="M2 2.75C2 2.33579 2.33579 2 2.75 2H8.25C8.66421 2 9 2.33579 9 2.75V8.25C9 8.66421 8.66421 9 8.25 9H2.75C2.33579 9 2 8.66421 2 8.25V2.75ZM3.5 3.5V7.5H7.5V3.5H3.5Z"
      fill="#9000FF"
    />
  </svg>
