<svg width="81" height="26" viewBox="0 0 81 26" fill="none" xmlns="http://www.w3.org/2000/svg">
<path d="M4.45492 21L0.294922 10.08H3.41492L5.51492 16.3C5.59492 16.54 5.66159 16.7933 5.71492 17.06C5.78159 17.3267 5.82826 17.5867 5.85492 17.84C5.89492 18.0933 5.92159 18.3267 5.93492 18.54H6.01492C6.02826 18.3133 6.05492 18.0733 6.09492 17.82C6.13492 17.5667 6.18159 17.3133 6.23492 17.06C6.30159 16.7933 6.37492 16.54 6.45492 16.3L8.55492 10.08H11.6749L7.51492 21H4.45492ZM17.7416 9.88C18.755 9.88 19.6216 10.0733 20.3416 10.46C21.075 10.8467 21.6416 11.4067 22.0416 12.14C22.4416 12.8733 22.6416 13.7733 22.6416 14.84V16.28H15.6016C15.6283 17.12 15.875 17.78 16.3416 18.26C16.8216 18.74 17.4816 18.98 18.3216 18.98C19.0283 18.98 19.6683 18.9133 20.2416 18.78C20.815 18.6333 21.4083 18.4133 22.0216 18.12V20.42C21.4883 20.6867 20.9216 20.88 20.3216 21C19.735 21.1333 19.0216 21.2 18.1816 21.2C17.0883 21.2 16.1216 21 15.2816 20.6C14.4416 20.1867 13.7816 19.5667 13.3016 18.74C12.8216 17.9133 12.5816 16.8733 12.5816 15.62C12.5816 14.34 12.795 13.28 13.2216 12.44C13.6616 11.5867 14.2683 10.9467 15.0416 10.52C15.815 10.0933 16.715 9.88 17.7416 9.88ZM17.7616 12C17.1883 12 16.7083 12.1867 16.3216 12.56C15.9483 12.9333 15.7283 13.5133 15.6616 14.3H19.8416C19.8416 13.86 19.7616 13.4667 19.6016 13.12C19.455 12.7733 19.2283 12.5 18.9216 12.3C18.615 12.1 18.2283 12 17.7616 12ZM31.258 9.88C32.4314 9.88 33.3714 10.2 34.078 10.84C34.7847 11.4667 35.138 12.48 35.138 13.88V21H32.158V14.62C32.158 13.8333 32.018 13.2467 31.738 12.86C31.458 12.46 31.0114 12.26 30.398 12.26C29.4914 12.26 28.8714 12.5733 28.538 13.2C28.2047 13.8133 28.038 14.7 28.038 15.86V21H25.058V10.08H27.338L27.738 11.48H27.898C28.138 11.1067 28.4314 10.8067 28.778 10.58C29.1247 10.34 29.5114 10.1667 29.938 10.06C30.3647 9.94 30.8047 9.88 31.258 9.88ZM41.6626 21.2C40.4492 21.2 39.4559 20.7267 38.6826 19.78C37.9226 18.82 37.5426 17.4133 37.5426 15.56C37.5426 13.6933 37.9292 12.28 38.7026 11.32C39.4759 10.36 40.4892 9.88 41.7426 9.88C42.2626 9.88 42.7226 9.95333 43.1226 10.1C43.5226 10.2333 43.8626 10.42 44.1426 10.66C44.4359 10.9 44.6826 11.1733 44.8826 11.48H44.9826C44.9426 11.2667 44.8959 10.96 44.8426 10.56C44.7892 10.1467 44.7626 9.72667 44.7626 9.3V5.8H47.7426V21H45.4626L44.8826 19.58H44.7626C44.5759 19.8733 44.3359 20.1467 44.0426 20.4C43.7626 20.64 43.4292 20.8333 43.0426 20.98C42.6559 21.1267 42.1959 21.2 41.6626 21.2ZM42.7026 18.82C43.5292 18.82 44.1092 18.58 44.4426 18.1C44.7759 17.6067 44.9492 16.8733 44.9626 15.9V15.58C44.9626 14.5133 44.7959 13.7 44.4626 13.14C44.1426 12.58 43.5426 12.3 42.6626 12.3C42.0092 12.3 41.4959 12.5867 41.1226 13.16C40.7492 13.72 40.5626 14.5333 40.5626 15.6C40.5626 16.6667 40.7492 17.4733 41.1226 18.02C41.4959 18.5533 42.0226 18.82 42.7026 18.82ZM60.7788 15.52C60.7788 16.4267 60.6522 17.2333 60.3988 17.94C60.1588 18.6467 59.8055 19.2467 59.3388 19.74C58.8855 20.22 58.3322 20.5867 57.6788 20.84C57.0255 21.08 56.2855 21.2 55.4588 21.2C54.6988 21.2 53.9922 21.08 53.3388 20.84C52.6988 20.5867 52.1455 20.22 51.6788 19.74C51.2122 19.2467 50.8455 18.6467 50.5788 17.94C50.3255 17.2333 50.1988 16.4267 50.1988 15.52C50.1988 14.3067 50.4122 13.2867 50.8388 12.46C51.2655 11.62 51.8788 10.98 52.6788 10.54C53.4788 10.1 54.4255 9.88 55.5188 9.88C56.5455 9.88 57.4522 10.1 58.2388 10.54C59.0255 10.98 59.6455 11.62 60.0988 12.46C60.5522 13.2867 60.7788 14.3067 60.7788 15.52ZM53.2388 15.52C53.2388 16.24 53.3122 16.8467 53.4588 17.34C53.6188 17.82 53.8655 18.1867 54.1988 18.44C54.5322 18.68 54.9655 18.8 55.4988 18.8C56.0322 18.8 56.4588 18.68 56.7788 18.44C57.1122 18.1867 57.3522 17.82 57.4988 17.34C57.6588 16.8467 57.7388 16.24 57.7388 15.52C57.7388 14.8 57.6588 14.2 57.4988 13.72C57.3522 13.24 57.1122 12.88 56.7788 12.64C56.4455 12.4 56.0122 12.28 55.4788 12.28C54.6922 12.28 54.1188 12.5533 53.7588 13.1C53.4122 13.6333 53.2388 14.44 53.2388 15.52ZM69.3416 9.88C69.4883 9.88 69.6616 9.88667 69.8616 9.9C70.0616 9.91333 70.2216 9.93333 70.3416 9.96L70.1216 12.76C70.0283 12.7333 69.8883 12.7133 69.7016 12.7C69.5283 12.6733 69.375 12.66 69.2416 12.66C68.855 12.66 68.4816 12.7133 68.1216 12.82C67.7616 12.9133 67.435 13.0667 67.1416 13.28C66.8616 13.4933 66.635 13.78 66.4616 14.14C66.3016 14.4867 66.2216 14.92 66.2216 15.44V21H63.2416V10.08H65.5016L65.9416 11.92H66.0816C66.295 11.5467 66.5616 11.2067 66.8816 10.9C67.2016 10.5933 67.5683 10.3467 67.9816 10.16C68.4083 9.97333 68.8616 9.88 69.3416 9.88ZM79.9437 17.76C79.9437 18.4933 79.7703 19.12 79.4237 19.64C79.077 20.1467 78.557 20.5333 77.8637 20.8C77.1703 21.0667 76.3103 21.2 75.2837 21.2C74.5237 21.2 73.8703 21.1467 73.3237 21.04C72.777 20.9467 72.2303 20.7867 71.6837 20.56V18.1C72.2703 18.3667 72.9037 18.5867 73.5837 18.76C74.2637 18.9333 74.8637 19.02 75.3837 19.02C75.9703 19.02 76.3837 18.9333 76.6237 18.76C76.877 18.5867 77.0037 18.36 77.0037 18.08C77.0037 17.8933 76.9503 17.7267 76.8437 17.58C76.7503 17.4333 76.537 17.2667 76.2037 17.08C75.8703 16.8933 75.3503 16.6533 74.6437 16.36C73.9637 16.0667 73.4037 15.78 72.9637 15.5C72.5237 15.2067 72.197 14.86 71.9837 14.46C71.7703 14.0467 71.6637 13.5333 71.6637 12.92C71.6637 11.9067 72.057 11.1467 72.8437 10.64C73.6303 10.1333 74.677 9.88 75.9837 9.88C76.6637 9.88 77.3103 9.94667 77.9237 10.08C78.537 10.2133 79.1703 10.4333 79.8237 10.74L78.9237 12.88C78.5637 12.72 78.217 12.58 77.8837 12.46C77.5503 12.34 77.2237 12.2467 76.9037 12.18C76.597 12.1133 76.277 12.08 75.9437 12.08C75.5037 12.08 75.1703 12.14 74.9437 12.26C74.7303 12.38 74.6237 12.56 74.6237 12.8C74.6237 12.9733 74.677 13.1333 74.7837 13.28C74.9037 13.4133 75.1237 13.56 75.4437 13.72C75.777 13.88 76.2637 14.0933 76.9037 14.36C77.5303 14.6133 78.0703 14.88 78.5237 15.16C78.977 15.4267 79.3237 15.7667 79.5637 16.18C79.817 16.58 79.9437 17.1067 79.9437 17.76Z" fill="white"/>
</svg>
