<svg width="188" height="146" viewBox="0 0 188 146" fill="none" xmlns="http://www.w3.org/2000/svg">
<g id="Dados em Constru&#195;&#167;&#195;&#163;o">
<g id="elementos">
<path id="Combined Shape Copy 8" opacity="0.351888" fill-rule="evenodd" clip-rule="evenodd" d="M172.252 47.4037C171.837 47.4037 171.5 47.7406 171.5 48.1562V50.413H169.243C168.827 50.413 168.49 50.7499 168.49 51.1654C168.49 51.581 168.827 51.9179 169.243 51.9179H171.5V54.1756C171.5 54.5911 171.837 54.928 172.252 54.928C172.668 54.928 173.005 54.5911 173.005 54.1756V51.9179H175.262C175.678 51.9179 176.014 51.581 176.014 51.1654C176.014 50.7499 175.678 50.413 175.262 50.413H173.005V48.1562C173.005 47.7406 172.668 47.4037 172.252 47.4037Z" fill="#ACBEC7"/>
<path id="Combined Shape Copy 7" opacity="0.8" fill-rule="evenodd" clip-rule="evenodd" d="M179.776 57.9366C179.361 57.9366 179.024 58.2735 179.024 58.6891V60.9459H176.766C176.351 60.9459 176.014 61.2828 176.014 61.6983C176.014 62.1139 176.351 62.4508 176.766 62.4508H179.024V64.7085C179.024 65.124 179.361 65.4609 179.776 65.4609C180.192 65.4609 180.529 65.124 180.529 64.7085V62.4508H182.786C183.201 62.4508 183.538 62.1139 183.538 61.6983C183.538 61.2828 183.201 60.9459 182.786 60.9459H180.529V58.6891C180.529 58.2735 180.192 57.9366 179.776 57.9366Z" fill="#ACBEC7"/>
<circle id="Oval Copy 6" opacity="0.6" cx="33.1064" cy="4.51495" r="1.7597" stroke="#ACBEC7" stroke-width="2.5"/>
<circle id="Oval Copy 8" opacity="0.6" cx="155.697" cy="19.5622" r="1.7597" stroke="#ACBEC7" stroke-width="2.5"/>
<path id="Combined Shape Copy 3" opacity="0.259184" fill-rule="evenodd" clip-rule="evenodd" d="M10.9903 79.4075C10.6964 79.1137 10.22 79.1137 9.92618 79.4075L8.33032 81.0034L6.73421 79.4073C6.44037 79.1134 5.96396 79.1134 5.67012 79.4073C5.37628 79.7011 5.37628 80.1775 5.67012 80.4714L7.26623 82.0675L5.66982 83.6639C5.37598 83.9577 5.37598 84.4341 5.66982 84.728C5.96366 85.0218 6.44007 85.0218 6.73391 84.728L8.33032 83.1316L9.92648 84.7277C10.2203 85.0216 10.6967 85.0216 10.9906 84.7277C11.2844 84.4339 11.2844 83.9575 10.9906 83.6636L9.39441 82.0675L10.9903 80.4716C11.2841 80.1778 11.2841 79.7014 10.9903 79.4075Z" fill="#ACBEC7"/>
<path id="Combined Shape Copy 6" opacity="0.513788" fill-rule="evenodd" clip-rule="evenodd" d="M33.5623 137.344C33.2684 137.05 32.792 137.05 32.4982 137.344L30.902 138.94L29.3057 137.344C29.0119 137.05 28.5355 137.05 28.2416 137.344C27.9478 137.638 27.9478 138.114 28.2416 138.408L29.8379 140.004L28.2418 141.6C27.948 141.894 27.948 142.37 28.2418 142.664C28.5357 142.958 29.0121 142.958 29.3059 142.664L30.902 141.068L32.498 142.664C32.7918 142.958 33.2682 142.958 33.5621 142.664C33.8559 142.37 33.8559 141.894 33.5621 141.6L31.9661 140.004L33.5623 138.408C33.8561 138.114 33.8561 137.638 33.5623 137.344Z" fill="#ACBEC7"/>
<rect id="Rectangle Copy 5" opacity="0.11563" x="171.734" y="116.136" width="9.53881" height="9.53881" transform="rotate(45 171.734 116.136)" stroke="#ACBEC7" stroke-width="2.5"/>
<rect id="Rectangle Copy 4" opacity="0.295038" x="8.5127" y="1.76777" width="9.53881" height="9.53881" transform="rotate(45 8.5127 1.76777)" stroke="#ACBEC7" stroke-width="2.5"/>
<rect id="Rectangle Copy 2" opacity="0.172247" x="183.281" y="106.355" width="3.51941" height="3.51941" transform="rotate(45 183.281 106.355)" stroke="#ACBEC7" stroke-width="2.5"/>
</g>
<circle id="Oval 3" cx="90.9903" cy="77.1242" r="66.2135" fill="#F1F5F7"/>
<g id="folha">
<g id="Group 5">
<g id="Group">
<path id="Mask" opacity="0.8" fill-rule="evenodd" clip-rule="evenodd" d="M48.1948 132.189C48.1948 134.398 49.9857 136.189 52.1948 136.189H137.882C139.723 136.189 141.215 134.696 141.215 132.856V41.049C141.215 40.6048 141.038 40.1789 140.722 39.866L118.475 17.7892C118.163 17.4794 117.741 17.3056 117.301 17.3056L52.1948 17.3056C49.9857 17.3056 48.1948 19.0965 48.1948 21.3056L48.1948 132.189Z" fill="url(#paint0_linear_1144_22106)"/>
<mask id="mask0_1144_22106" style="mask-type:alpha" maskUnits="userSpaceOnUse" x="48" y="17" width="94" height="120">
<path id="Mask_2" fill-rule="evenodd" clip-rule="evenodd" d="M48.1948 132.189C48.1948 134.398 49.9857 136.189 52.1948 136.189H137.882C139.723 136.189 141.215 134.696 141.215 132.856V41.049C141.215 40.6048 141.038 40.1789 140.722 39.866L118.475 17.7892C118.163 17.4794 117.741 17.3056 117.301 17.3056L52.1948 17.3056C49.9857 17.3056 48.1948 19.0965 48.1948 21.3056L48.1948 132.189Z" fill="white"/>
</mask>
<g mask="url(#mask0_1144_22106)">
</g>
</g>
<path id="Path 3" opacity="0.4" fill-rule="evenodd" clip-rule="evenodd" d="M118.061 17.3056V36.5781C118.061 38.419 119.553 39.9114 121.394 39.9114H140.853" fill="#ACBEC7"/>
</g>
<g id="Frame">
<g id="Group_2" opacity="0.7">
<path id="Vector" d="M122.141 74.0704H117.118C116.768 74.0704 116.483 74.3571 116.483 74.7107V113.916C116.483 114.269 116.768 114.556 117.118 114.556H122.141C122.492 114.556 122.776 114.269 122.776 113.916V74.7107C122.776 74.3571 122.492 74.0704 122.141 74.0704Z" fill="white"/>
<path id="Vector_2" d="M71.1195 91.5161H66.097C65.7462 91.5161 65.4619 91.8028 65.4619 92.1564V113.916C65.4619 114.269 65.7462 114.556 66.097 114.556H71.1195C71.4702 114.556 71.7545 114.269 71.7545 113.916V92.1564C71.7545 91.8028 71.4702 91.5161 71.1195 91.5161Z" fill="white"/>
<path id="Vector_3" d="M96.1395 88.7621H91.1329C90.7824 88.7621 90.4912 89.1022 90.4912 89.4981V113.794C90.4912 114.192 90.7824 114.556 91.1329 114.556H96.1395C96.3318 114.54 96.5116 114.454 96.6451 114.313C96.7785 114.173 96.8565 113.988 96.8642 113.794V89.4981C96.855 89.3068 96.7759 89.1257 96.642 88.9898C96.5082 88.8539 96.3292 88.7728 96.1395 88.7621Z" fill="white"/>
<path id="Vector_4" d="M83.6341 84.3369H78.6116C78.2609 84.3369 77.9766 84.6236 77.9766 84.9772V113.916C77.9766 114.269 78.2609 114.556 78.6116 114.556H83.6341C83.9848 114.556 84.2692 114.269 84.2692 113.916V84.9772C84.2692 84.6236 83.9848 84.3369 83.6341 84.3369Z" fill="white"/>
<path id="Vector_5" d="M109.626 79.6633H104.604C104.253 79.6633 103.969 79.95 103.969 80.3037V113.916C103.969 114.269 104.253 114.556 104.604 114.556H109.626C109.977 114.556 110.261 114.269 110.261 113.916V80.3037C110.261 79.95 109.977 79.6633 109.626 79.6633Z" fill="white"/>
</g>
<g id="Group_3">
<path id="Vector_6" d="M68.3497 83.7509L68.2114 83.4981L80.8507 77.6532L93.379 81.8256L106.841 75.0961L106.856 75.0869L119.371 67.3856L119.517 67.6353L107.018 75.326L93.4413 82.1688L80.8644 77.9749L68.3497 83.7509Z" fill="#9000FF"/>
<path id="Vector_7" d="M69.466 83.8347C69.4663 84.0421 69.4056 84.2448 69.2916 84.4174C69.1776 84.5899 69.0153 84.7245 68.8254 84.8041C68.6355 84.8836 68.4265 84.9046 68.2248 84.8643C68.023 84.8241 67.8377 84.7244 67.6922 84.5779C67.5467 84.4314 67.4475 84.2446 67.4073 84.0413C67.3671 83.8379 67.3876 83.6271 67.4662 83.4355C67.5448 83.2439 67.678 83.0802 67.849 82.9649C68.02 82.8497 68.221 82.7882 68.4266 82.7882C68.702 82.7882 68.9662 82.8984 69.161 83.0946C69.3559 83.2908 69.4656 83.557 69.466 83.8347Z" fill="#9000FF"/>
<path id="Vector_8" d="M80.9413 79.1083C81.5153 79.1083 81.9807 78.6391 81.9807 78.0602C81.9807 77.4814 81.5153 77.0122 80.9413 77.0122C80.3672 77.0122 79.9019 77.4814 79.9019 78.0602C79.9019 78.6391 80.3672 79.1083 80.9413 79.1083Z" fill="#9000FF"/>
<path id="Vector_9" d="M93.4559 82.959C94.03 82.959 94.4953 82.4898 94.4953 81.9109C94.4953 81.3321 94.03 80.8629 93.4559 80.8629C92.8819 80.8629 92.4165 81.3321 92.4165 81.9109C92.4165 82.4898 92.8819 82.959 93.4559 82.959Z" fill="#9000FF"/>
<path id="Vector_10" d="M106.933 76.2203C107.507 76.2203 107.973 75.7511 107.973 75.1722C107.973 74.5934 107.507 74.1242 106.933 74.1242C106.359 74.1242 105.894 74.5934 105.894 75.1722C105.894 75.7511 106.359 76.2203 106.933 76.2203Z" fill="#9000FF"/>
<path id="Vector_11" d="M120.487 67.4694C120.488 67.6768 120.427 67.8795 120.313 68.0521C120.199 68.2246 120.037 68.3592 119.847 68.4388C119.657 68.5183 119.448 68.5393 119.246 68.499C119.045 68.4588 118.859 68.3591 118.714 68.2126C118.568 68.0661 118.469 67.8793 118.429 67.676C118.389 67.4726 118.409 67.2618 118.488 67.0702C118.566 66.8786 118.7 66.7149 118.87 66.5996C119.041 66.4844 119.242 66.4229 119.448 66.4229C119.723 66.4229 119.988 66.5331 120.183 66.7293C120.377 66.9256 120.487 67.1917 120.487 67.4694Z" fill="#9000FF"/>
</g>
</g>
<g id="Frame_2" clip-path="url(#clip0_1144_22106)">
<path id="Vector_12" d="M78.0211 42.2574C79.4839 42.2552 80.9062 42.7421 82.0659 43.6421L84.4356 40.2571C82.6327 38.9472 80.4665 38.2442 78.2451 38.2482C77.9396 38.2482 77.6331 38.2655 77.3276 38.2925L77.9364 42.2595L78.0211 42.2574Z" fill="#9000FF"/>
<path id="Vector_13" opacity="0.2" d="M78.0214 55.676C74.3506 55.676 70.6262 52.9153 70.6262 49.2101C70.6262 45.5319 74.2992 42.3081 77.9432 42.2595L77.3344 38.2925C71.7762 38.7934 66.4238 43.7502 66.4238 49.3561C66.4238 55.2758 72.3818 59.6852 78.2465 59.6852C79.7337 59.6865 81.2044 59.3709 82.5625 58.7592L80.1746 55.3136C79.4816 55.5536 78.7541 55.676 78.0214 55.676Z" fill="#9000FF"/>
<path id="Vector_14" opacity="0.5" d="M88.8653 48.9667C88.8664 47.2643 88.465 45.5862 87.6946 44.0718C86.9242 42.5574 85.807 41.2503 84.4357 40.2592L82.066 43.642C83.0208 44.3802 83.7592 45.366 84.2025 46.4945C84.6458 47.6229 84.7774 48.8517 84.5833 50.0497C84.3891 51.2477 83.8764 52.37 83.1 53.2971C82.3235 54.2241 81.3124 54.9211 80.1743 55.3136L82.5611 58.7592C84.4377 57.9173 86.0321 56.5441 87.151 54.806C88.27 53.0679 88.8655 51.0395 88.8653 48.9667Z" fill="#9000FF"/>
<path id="Vector_15" d="M95.8593 44.9244H114.7C114.847 44.9244 114.989 44.9799 115.093 45.0788C115.197 45.1776 115.255 45.3117 115.255 45.4515C115.255 45.5913 115.197 45.7254 115.093 45.8243C114.989 45.9232 114.847 45.9787 114.7 45.9787H95.8593C95.7119 45.9787 95.5706 45.9232 95.4664 45.8243C95.3622 45.7254 95.3037 45.5913 95.3037 45.4515C95.3037 45.3117 95.3622 45.1776 95.4664 45.0788C95.5706 44.9799 95.7119 44.9244 95.8593 44.9244Z" fill="#9000FF"/>
<path id="Vector_16" d="M102.297 48.0874H114.718C114.86 48.0874 114.997 48.143 115.098 48.2418C115.199 48.3407 115.255 48.4748 115.255 48.6146C115.255 48.7544 115.199 48.8885 115.098 48.9874C114.997 49.0862 114.86 49.1418 114.718 49.1418H102.297C102.154 49.1418 102.018 49.0862 101.917 48.9874C101.816 48.8885 101.759 48.7544 101.759 48.6146C101.759 48.4748 101.816 48.3407 101.917 48.2418C102.018 48.143 102.154 48.0874 102.297 48.0874Z" fill="#9000FF"/>
</g>
</g>
<g id="lupa">
<path id="Vector_17" d="M50.5892 76.6701L25.925 111.332C25.6803 111.676 25.5095 112.066 25.4234 112.479C25.3372 112.892 25.3375 113.318 25.4243 113.73C25.5111 114.143 25.6824 114.533 25.9276 114.876C26.1727 115.219 26.4864 115.507 26.8489 115.723L27.0997 115.875C27.422 116.067 27.7792 116.194 28.1508 116.248C28.5225 116.302 28.9012 116.282 29.2653 116.189C29.6293 116.097 29.9715 115.933 30.2721 115.708C30.5727 115.483 30.8259 115.201 31.0169 114.878L52.7873 78.073L50.5892 76.6701Z" fill="#85909A"/>
<path id="Vector_18" opacity="0.42" d="M71.7602 74.9025C80.7391 68.7104 83.084 56.5632 76.9977 47.771C70.9114 38.9788 58.6986 36.871 49.7197 43.0631C40.7408 49.2552 38.3958 61.4024 44.4822 70.1946C50.5685 78.9868 62.7813 81.0946 71.7602 74.9025Z" fill="#CFDAE1"/>
<path id="Vector_19" d="M48.496 41.327C38.5035 48.2149 35.8933 61.7317 42.6643 71.5157C49.4353 81.2997 63.0251 83.651 73.0162 76.7559C83.0074 69.8608 85.619 56.3512 78.848 46.5672C72.0769 36.7833 58.4835 34.4327 48.496 41.327ZM71.2081 74.1559C62.683 80.032 51.0903 78.0314 45.3137 69.6843C39.5371 61.3371 41.7649 49.8077 50.2896 43.9298C58.8144 38.0519 70.4056 40.0546 76.1822 48.4018C81.9588 56.7489 79.7355 68.2719 71.2081 74.1559Z" fill="#85909A"/>
</g>
</g>
<defs>
<linearGradient id="paint0_linear_1144_22106" x1="48.1948" y1="194.368" x2="139.239" y2="194.368" gradientUnits="userSpaceOnUse">
<stop stop-color="#DDE5E9"/>
<stop offset="1" stop-color="#CAD2D6"/>
</linearGradient>
<clipPath id="clip0_1144_22106">
<rect width="52.9466" height="22.1413" fill="white" transform="translate(66.4238 37.5439)"/>
</clipPath>
</defs>
</svg>
