<svg
    width="170"
    height="16"
    viewBox="0 0 170 16"
    fill="none"
    xmlns="http://www.w3.org/2000/svg"
  >
    <path
      d="M78.684 12.168C81.414 12.168 83.724 9.886 83.724 7.184C83.724 4.482 81.414 2.214 78.684 2.214C75.94 2.214 73.63 4.482 73.63 7.184C73.63 9.886 75.94 12.168 78.684 12.168ZM78.684 10.572C76.906 10.572 75.408 9.032 75.408 7.184C75.408 5.35 76.906 3.81 78.684 3.81C80.448 3.81 81.932 5.35 81.932 7.184C81.932 9.032 80.448 10.572 78.684 10.572ZM101.566 3.978V2.382H94.328V12H96.078V8.01H101.048V6.414H96.078V3.978H101.566ZM119.33 3.978V2.382H112.092V12H113.842V8.01H118.812V6.414H113.842V3.978H119.33ZM129.883 12H131.619V2.382H129.883V12ZM147.319 12.168C148.733 12.168 150.021 11.566 150.945 10.6L149.713 9.452C149.111 10.138 148.257 10.572 147.319 10.572C145.541 10.572 144.043 9.032 144.043 7.184C144.043 5.35 145.541 3.81 147.319 3.81C148.243 3.81 149.111 4.244 149.699 4.93L150.945 3.768C150.021 2.816 148.733 2.214 147.319 2.214C144.575 2.214 142.265 4.482 142.265 7.184C142.265 9.886 144.575 12.168 147.319 12.168ZM168.533 3.978V2.382H161.295V12H168.533V10.404H163.045V7.898H168.015V6.302H163.045V3.978H168.533Z"
      fill="#9000FF"
    />
    <path
      d="M8.88 12H3.98C2.188 12 0.913999 10.922 0.913999 9.382C0.913999 8.332 1.572 7.45 2.678 6.918C1.824 6.456 1.32 5.77 1.32 4.79C1.32 3.39 2.496 2.382 4.162 2.382H8.88V12ZM7.144 6.316V3.894H4.582C3.728 3.894 3.112 4.398 3.112 5.112C3.112 5.812 3.728 6.316 4.582 6.316H7.144ZM7.144 10.488V7.744H4.33C3.378 7.744 2.706 8.318 2.706 9.116C2.706 9.914 3.378 10.488 4.33 10.488H7.144Z"
      fill="black"
    />
    <path
      d="M19.684 12H17.752L21.77 2.382H23.716L27.734 12H25.788L25.06 10.264H20.412L19.684 12ZM24.43 8.752L22.736 4.706L21.042 8.752H24.43Z"
      fill="black"
    />
    <path
      d="M40.316 12.168C38.902 12.168 37.614 11.566 36.69 10.6L37.922 9.452C38.524 10.138 39.378 10.572 40.316 10.572C42.094 10.572 43.592 9.032 43.592 7.184C43.592 5.35 42.094 3.81 40.316 3.81C39.392 3.81 38.524 4.244 37.936 4.93L36.69 3.768C37.614 2.816 38.902 2.214 40.316 2.214C43.06 2.214 45.37 4.482 45.37 7.184C45.37 9.886 43.06 12.168 40.316 12.168Z"
      fill="black"
    />
    <path
      d="M62.894 12H61.144V9.256L59.842 7.856L56.664 12H54.508L58.638 6.624L54.788 2.382H56.93L61.144 7.086V2.382H62.894V12Z"
      fill="black"
    />
  </svg>
