<svg width="102" height="102" viewBox="0 0 102 102" fill="none" xmlns="http://www.w3.org/2000/svg">
<path d="M102 51C102 68.1723 93.5129 83.3621 80.5045 92.604C72.176 98.521 61.0978 95.2266 50.1035 95.2266C37.8151 95.2266 27.4382 97.654 18.6331 90.415C7.25614 81.0613 0 66.8779 0 51C0 22.8335 22.8335 0 51 0C79.1665 0 102 22.8335 102 51Z" fill="#ACBEC7"/>
<path opacity="0.7" d="M90.3081 43.5031C90.3366 43.4641 90.3331 43.4095 90.2988 43.3752L90.2808 43.3572C90.2459 43.3223 90.1913 43.3188 90.1524 43.3473C87.9187 44.9986 85.685 44.998 83.4514 43.3467C83.4124 43.3182 83.3584 43.3223 83.3235 43.3572L83.3061 43.3746C83.2712 43.4095 83.2677 43.4641 83.2968 43.5036C84.9469 45.7373 84.948 47.9704 83.2962 50.2046C83.2671 50.243 83.2718 50.2976 83.3061 50.3319L83.3241 50.3499C83.3584 50.3842 83.413 50.3877 83.4519 50.3593C85.6856 48.708 87.9193 48.7086 90.1524 50.3592C90.1919 50.3883 90.2459 50.3842 90.2808 50.3494L90.3058 50.3244C90.336 50.2942 90.3395 50.2465 90.3145 50.2122C88.6574 47.9762 88.6551 45.7396 90.3081 43.5031Z" fill="white"/>
<path d="M26.2821 28.7052C26.3374 28.6966 26.3793 28.649 26.3793 28.5928V28.5633C26.3793 28.5061 26.3374 28.4585 26.2821 28.4499C23.0986 27.9727 21.2687 26.1418 20.7914 22.9583C20.7828 22.903 20.7352 22.8621 20.678 22.8621H20.6495C20.5923 22.8621 20.5447 22.904 20.5361 22.9602C20.0579 26.1428 18.2289 27.9736 15.0445 28.4509C14.9892 28.4585 14.9482 28.5071 14.9482 28.5633V28.5928C14.9482 28.649 14.9902 28.6966 15.0454 28.7052C18.2289 29.1825 20.0589 31.0133 20.5361 34.1959C20.5447 34.2521 20.5923 34.2931 20.6495 34.2931H20.6904C20.74 34.2931 20.7819 34.2569 20.7895 34.2083C21.2639 31.0181 23.0948 29.1834 26.2821 28.7052Z" fill="white"/>
<path opacity="0.5" d="M80.5044 92.6041C90.7873 85.2985 98.2436 74.276 100.917 61.4961C94.3118 62.441 88.4393 66.9234 86.0465 73.6466C85.6197 74.8451 85.3243 76.0584 85.1514 77.2708C79.6242 76.0408 73.9192 79.0929 71.9721 84.5642C71.8254 84.9766 71.7063 85.3922 71.6093 85.8087C70.9242 85.3569 70.1755 84.9784 69.3677 84.6909C63.9629 82.7673 58.0224 85.5896 56.0989 90.9944C55.5748 92.4674 55.4046 93.9795 55.5417 95.4398C64.6797 96.0633 73.5505 97.5445 80.5044 92.6041Z" fill="#E0E7EC"/>
<path opacity="0.5" d="M34.586 79.6846C31.4105 75.369 25.4018 74.3729 21.0112 77.3689C20.5981 76.3023 20.0415 75.2718 19.3308 74.3061C15.6529 69.3075 9.12187 67.6574 3.63599 69.9359C6.85237 77.9736 12.0508 85.0036 18.6328 90.415C21.9428 93.1363 25.4749 94.4914 29.2472 95.1231C30.3785 94.8095 31.4732 94.2902 32.4749 93.5531C36.8878 90.3064 37.8329 84.0973 34.586 79.6846Z" fill="#E0E7EC"/>
<path d="M13.9453 34.2529L85.6641 19.3242L29.2338 48.3829L13.9453 34.2529Z" fill="#9000FF"/>
<path d="M29.2852 62.2816V48.3829L85.6641 19.3242L29.2852 62.2816Z" fill="#C970E7"/>
<path opacity="0.8" d="M55.641 69.9258L38.8455 54.9971L85.6641 19.3242L55.641 69.9258Z" fill="#9000FF"/>
<path d="M72.7265 88.5297C71.6043 81.7439 65.7124 76.5682 58.6087 76.5682C54.6482 76.5682 51.0639 78.1769 48.4724 80.7765C45.6643 77.9874 41.797 76.2632 37.5266 76.2632C31.0103 76.2632 25.4348 80.277 23.1286 85.9661C20.9729 86.5076 19.3204 88.7042 18.9839 90.9343C27.7666 98.0994 38.9803 102 51.1992 102C62.1934 102 72.3749 98.5209 80.7035 92.6041C78.7433 90.3109 75.9156 88.7823 72.7265 88.5297Z" fill="#F1F5F7"/>
</svg>
