<svg width="153" height="134" viewBox="0 0 153 134" fill="none" xmlns="http://www.w3.org/2000/svg">
<g id="Dados em Constru&#195;&#167;&#195;&#163;o">
<circle id="Oval 3" cx="81.9903" cy="67.1236" r="66.2135" fill="#F1F5F7"/>
<g id="Group 277">
<g id="Group 275">
<path id="Vector" opacity="0.8" d="M17.1848 128.229C17.2735 128.292 17.3796 128.326 17.4885 128.326C17.5974 128.326 17.7035 128.292 17.7922 128.229L22.9874 124.555C25.7667 125.716 28.7162 126.415 31.7199 126.625L34.7268 132.235C34.7784 132.331 34.8585 132.409 34.956 132.457C35.0536 132.506 35.1637 132.523 35.2712 132.505L42.7947 131.284C42.9021 131.267 43.0014 131.216 43.0787 131.139C43.1561 131.063 43.2076 130.964 43.2261 130.856L44.308 124.578C47.0918 123.428 49.6696 121.83 51.9399 119.847L58.0282 121.684C58.1322 121.716 58.2434 121.714 58.3462 121.679C58.4491 121.644 58.5385 121.577 58.6019 121.489L63.0614 115.286C63.1243 115.197 63.1581 115.091 63.1581 114.982C63.1581 114.873 63.1243 114.767 63.0614 114.678L59.397 109.468C60.5557 106.682 61.2532 103.725 61.4618 100.714L67.0581 97.6992C67.1536 97.6475 67.2307 97.5673 67.2787 97.4697C67.3268 97.3721 67.3433 97.262 67.3262 97.1545L66.1125 89.6072C66.095 89.4997 66.0445 89.4002 65.968 89.3227C65.8916 89.2452 65.7929 89.1935 65.6858 89.1748L59.425 88.0901C58.2765 85.2998 56.6821 82.7158 54.7043 80.4399L56.5371 74.3362C56.5683 74.2317 56.5664 74.1201 56.5315 74.0169C56.4966 73.9136 56.4305 73.8238 56.3424 73.7599L50.155 69.2902C50.0665 69.227 49.9605 69.193 49.8518 69.193C49.7432 69.193 49.6372 69.227 49.5487 69.2902L44.3535 72.9639C41.5741 71.8034 38.6246 71.1046 35.621 70.8951L32.613 65.2846C32.5618 65.1883 32.482 65.1106 32.3845 65.0622C32.2871 65.0138 32.177 64.9971 32.0697 65.0145L24.5415 66.2407C24.4342 66.2578 24.3349 66.3083 24.2577 66.3851C24.1805 66.4618 24.1293 66.561 24.1113 66.6685L23.0282 72.9452C20.2447 74.0946 17.6668 75.6916 15.3963 77.6732L9.30804 75.8346C9.20395 75.8031 9.09263 75.8051 8.98974 75.8404C8.88684 75.8756 8.79755 75.9423 8.73441 76.031L4.27489 82.2329C4.21182 82.3217 4.17792 82.4279 4.17792 82.5368C4.17792 82.6458 4.21182 82.752 4.27489 82.8407L7.93462 88.048C6.7768 90.8344 6.07979 93.7914 5.871 96.8027L0.274726 99.8172C0.178981 99.8686 0.101653 99.9488 0.0535745 100.046C0.00549575 100.144 -0.0109363 100.254 0.00656599 100.362L1.22842 107.909C1.24577 108.017 1.29622 108.116 1.37271 108.194C1.44921 108.271 1.54795 108.323 1.65514 108.342L7.91596 109.426C9.06437 112.217 10.6588 114.801 12.6366 117.076L10.8039 123.18C10.7726 123.285 10.7745 123.396 10.8094 123.5C10.8443 123.603 10.9104 123.693 10.9986 123.756L17.1848 128.229Z" fill="url(#paint0_linear_2159_5125)"/>
<path id="Vector_2" d="M33.6728 106.135C31.8499 106.139 30.0907 105.464 28.7356 104.242C27.3805 103.019 26.526 101.336 26.3374 99.5187C26.1488 97.7011 26.6396 95.8779 27.7147 94.4021C28.7899 92.9264 30.373 91.9031 32.1574 91.5302C33.9419 91.1574 35.801 91.4616 37.3746 92.3839C38.9482 93.3062 40.1246 94.7811 40.6759 96.523C41.2273 98.2648 41.1144 100.15 40.3591 101.813C39.6038 103.476 38.2599 104.799 36.5875 105.526C35.6676 105.927 34.6756 106.134 33.6728 106.135ZM33.6658 92.5497C32.746 92.5494 31.8377 92.7546 31.0069 93.1502C30.1761 93.5459 29.4436 94.1222 28.8627 94.8371C28.2819 95.5521 27.8672 96.3879 27.6488 97.2836C27.4304 98.1794 27.4138 99.1127 27.6003 100.016C27.7867 100.919 28.1714 101.769 28.7265 102.504C29.2816 103.239 29.9931 103.841 30.8094 104.266C31.6256 104.691 32.526 104.929 33.4452 104.961C34.3645 104.994 35.2794 104.821 36.1235 104.455C37.4291 103.887 38.4998 102.885 39.1554 101.618C39.8109 100.352 40.0113 98.8976 39.7228 97.5003C39.4344 96.103 38.6746 94.8479 37.5715 93.9463C36.4683 93.0446 35.0891 92.5515 33.6658 92.5497Z" fill="#F1F5F7"/>
<path id="Vector_3" d="M33.725 117.654C33.6084 117.654 33.4813 117.654 33.3589 117.654H33.1082L32.8902 117.646L32.7806 117.64H32.7584L32.8179 116.471C34.0848 116.535 35.3549 116.465 36.607 116.261C36.8231 116.226 37.0369 116.187 37.2483 116.144C45.7815 114.436 51.7625 106.786 51.569 98.2336C51.55 97.4061 51.474 96.5808 51.3416 95.7638C49.7677 86.0401 40.5967 79.4162 30.8965 80.9918C22.1616 82.4132 15.9311 90.013 15.9299 98.6123C15.9317 102.83 17.418 106.911 20.1272 110.137L19.2364 110.891C16.3535 107.452 14.7727 103.104 14.7722 98.6123C14.7722 89.4497 21.4096 81.3542 30.7158 79.8393C41.0491 78.1585 50.8193 85.2161 52.497 95.5768C52.6608 96.5874 52.7435 97.6095 52.7442 98.6333C52.7442 107.798 46.1079 115.898 36.7994 117.413C35.7827 117.576 34.7546 117.656 33.725 117.654Z" fill="#F1F5F7"/>
</g>
</g>
<g id="Group" opacity="0.6">
<rect id="text-input copy" x="19.8032" y="7" width="89.1964" height="45" rx="4" fill="url(#paint1_linear_2159_5125)"/>
<g id="Group 12 Copy" opacity="0.6">
<path id="Rectangle 27" opacity="0.3" d="M24.228 26.6868C24.228 26.054 24.741 25.541 25.3739 25.541H68.6395C69.2723 25.541 69.7853 26.054 69.7853 26.6868C69.7853 27.3197 69.2723 27.8327 68.6395 27.8327H25.3739C24.741 27.8327 24.228 27.3197 24.228 26.6868Z" fill="white"/>
<path id="Rectangle 27 Copy 2" opacity="0.4" d="M24.228 35.8529C24.228 35.22 24.741 34.707 25.3739 34.707H36.7494C37.3822 34.707 37.8952 35.22 37.8952 35.8529C37.8952 36.4857 37.3822 36.9987 36.7494 36.9987H25.3739C24.741 36.9987 24.228 36.4857 24.228 35.8529Z" fill="white"/>
<path id="Rectangle 27 Copy 3" opacity="0.3" d="M24.228 42.7279C24.228 42.095 24.741 41.582 25.3739 41.582H48.1387C48.7715 41.582 49.2846 42.095 49.2846 42.7279C49.2846 43.3607 48.7715 43.8737 48.1387 43.8737H25.3739C24.741 43.8737 24.228 43.3607 24.228 42.7279Z" fill="white"/>
</g>
<path id="Path" opacity="0.260538" fill-rule="evenodd" clip-rule="evenodd" d="M44.7139 18.875C44.7139 17.4943 45.8332 16.375 47.2139 16.375H103.536C104.917 16.375 106.036 17.4943 106.036 18.875C106.036 20.2557 104.917 21.375 103.536 21.375H47.2139C45.8332 21.375 44.7139 20.2557 44.7139 18.875Z" fill="white"/>
<path id="Path Copy 4" opacity="0.260538" fill-rule="evenodd" clip-rule="evenodd" d="M23.821 18.875C23.821 17.4943 24.9403 16.375 26.321 16.375H39.8032C41.1839 16.375 42.3032 17.4943 42.3032 18.875C42.3032 20.2557 41.1839 21.375 39.8032 21.375H26.321C24.9403 21.375 23.821 20.2557 23.821 18.875Z" fill="white"/>
</g>
<g id="Group_2">
<g id="Group 3">
<path id="Clip 2" opacity="0.4" fill-rule="evenodd" clip-rule="evenodd" d="M98.3931 100.062C98.3931 100.346 98.6505 100.578 98.9676 100.578C99.2744 100.578 99.5421 100.347 99.5421 100.062V83.515C99.5421 83.2306 99.2847 83 98.9676 83C98.6608 83 98.3931 83.2296 98.3931 83.515V100.062ZM108.59 100.062C108.59 100.346 108.848 100.578 109.165 100.578C109.472 100.578 109.739 100.347 109.739 100.062V83.515C109.739 83.2306 109.482 83 109.165 83C108.858 83 108.59 83.2296 108.59 83.515V100.062ZM94.8022 99.5364C94.8022 100.113 95.1883 100.578 95.6639 100.578C96.1431 100.578 96.5257 100.111 96.5257 99.5364V84.0402C96.5257 83.4633 96.1396 83 95.6639 83C95.1857 83 94.8022 83.4653 94.8022 84.0402V99.5364ZM101.409 102.456C101.409 103.135 101.795 103.681 102.27 103.681C102.75 103.681 103.132 103.132 103.132 102.456V84.2239C103.132 83.545 102.746 83 102.27 83C101.792 83 101.409 83.5475 101.409 84.2239V102.456ZM105 99.5364C105 100.113 105.386 100.578 105.861 100.578C106.34 100.578 106.723 100.111 106.723 99.5364V84.0402C106.723 83.4633 106.337 83 105.861 83C105.383 83 105 83.4653 105 84.0402V99.5364ZM111.606 102.455C111.606 103.134 111.992 103.681 112.468 103.681C112.947 103.681 113.329 103.132 113.329 102.455V84.2239C113.329 83.545 112.943 83 112.468 83C111.989 83 111.606 83.5475 111.606 84.2239V102.455ZM91.7866 100.062C91.7866 100.346 92.0428 100.578 92.3611 100.578C92.669 100.578 92.9356 100.347 92.9356 100.062V83.515C92.9356 83.2306 92.6782 83 92.3611 83C92.0532 83 91.7866 83.2296 91.7866 83.515V100.062ZM88.1968 99.5364C88.1968 100.113 88.5828 100.578 89.0585 100.578C89.5376 100.578 89.9202 100.111 89.9202 99.5364V84.0402C89.9202 83.4633 89.5341 83 89.0585 83C88.5794 83 88.1968 83.4653 88.1968 84.0402V99.5364ZM84.6059 99.5364C84.6059 100.113 84.9919 100.578 85.4676 100.578C85.9467 100.578 86.3293 100.111 86.3293 99.5364V84.0402C86.3293 83.4633 85.9424 83 85.4676 83C84.9894 83 84.6059 83.4653 84.6059 84.0402V99.5364ZM81.5903 100.062C81.5903 100.346 81.8465 100.578 82.1648 100.578C82.4727 100.578 82.7393 100.347 82.7393 100.062V83.515C82.7393 83.2306 82.4831 83 82.1648 83C81.8569 83 81.5903 83.2296 81.5903 83.515V100.062ZM77.9995 102.653C77.9995 103.22 78.3864 103.681 78.8612 103.681C79.3403 103.681 79.7229 103.22 79.7229 102.653V84.0258C79.7229 83.4591 79.3369 83 78.8612 83C78.3821 83 77.9995 83.4591 77.9995 84.0258V102.653ZM92.9927 102.646H99.6021V101.612H92.9927V102.646ZM105.057 102.647H109.633V101.613H105.057V102.647ZM89.3735 102.646H91.4416V101.612H89.3735V102.646ZM82.1353 102.646H86.2714V101.612H82.1353V102.646Z" fill="white"/>
</g>
<g id="Group 4">
<path id="Combined Shape" opacity="0.8" fill-rule="evenodd" clip-rule="evenodd" d="M89.3328 39C87.4919 39 85.9995 40.4924 85.9995 42.3333V115.667C85.9995 117.508 87.4919 119 89.3328 119H149.666C151.507 119 153 117.508 153 115.667V60.5798C153 60.1364 152.823 59.7112 152.508 59.3984L132.496 39.4852C132.183 39.1745 131.761 39 131.32 39H89.3328Z" fill="url(#paint2_linear_2159_5125)"/>
<path id="Path 3" opacity="0.4" fill-rule="evenodd" clip-rule="evenodd" d="M132.062 39V56.2266C132.062 58.0675 133.554 59.5599 135.395 59.5599H152.733" fill="#174798"/>
<g id="Group_3">
<path id="Path 5" opacity="0.4" d="M99.3999 78.1667H134.5" stroke="white" stroke-width="1.66667" stroke-linecap="round" stroke-linejoin="round"/>
<path id="Path 5 Copy" opacity="0.4" d="M99.3999 86.9167H139.6" stroke="white" stroke-width="1.66667" stroke-linecap="round" stroke-linejoin="round"/>
<path id="Path 5 Copy 2" opacity="0.4" d="M99.3999 95.2487H134.5" stroke="white" stroke-width="1.66667" stroke-linecap="round" stroke-linejoin="round"/>
<path id="Path 5 Copy 3" opacity="0.4" d="M99.3999 103.583H118.662" stroke="white" stroke-width="1.66667" stroke-linecap="round" stroke-linejoin="round"/>
</g>
</g>
</g>
</g>
<defs>
<linearGradient id="paint0_linear_2159_5125" x1="13.4772" y1="124.645" x2="51.1886" y2="69.1874" gradientUnits="userSpaceOnUse">
<stop stop-color="#174798"/>
<stop offset="1" stop-color="#6FBAFF"/>
</linearGradient>
<linearGradient id="paint1_linear_2159_5125" x1="63.7721" y1="74.1825" x2="99.4548" y2="3.45449" gradientUnits="userSpaceOnUse">
<stop stop-color="#6FBAFF"/>
<stop offset="1" stop-color="#6FBAFF"/>
</linearGradient>
<linearGradient id="paint2_linear_2159_5125" x1="85.9995" y1="159" x2="153" y2="159" gradientUnits="userSpaceOnUse">
<stop stop-color="#174798"/>
<stop offset="1" stop-color="#6FBAFF"/>
</linearGradient>
</defs>
</svg>
