<svg width="102" height="102" viewBox="0 0 102 102" fill="none" xmlns="http://www.w3.org/2000/svg">
<g id="Group">
<circle id="Oval" opacity="0.8" cx="51" cy="51" r="51" fill="url(#paint0_linear_108_4970)"/>
<path id="Path" opacity="0.403" fill-rule="evenodd" clip-rule="evenodd" d="M66.7172 66.7172L75.5084 75.5084L66.7172 66.7172C62.4809 70.9535 56.6284 73.5738 50.1639 73.5738C37.235 73.5738 26.7541 63.0929 26.7541 50.1639C26.7541 37.235 37.235 26.7541 50.1639 26.7541C63.0929 26.7541 73.5738 37.235 73.5738 50.1639C73.5738 56.6284 70.9535 62.4809 66.7172 66.7172Z" stroke="white" stroke-width="3.34426" stroke-linejoin="round"/>
<path id="Shape" opacity="0.395" d="M39.9873 56.8525C39.5256 56.8525 39.1513 57.2268 39.1513 57.6885C39.1513 58.1503 39.5256 58.5246 39.9873 58.5246V56.8525ZM48.348 58.5246C48.8097 58.5246 49.1841 58.1503 49.1841 57.6885C49.1841 57.2268 48.8097 56.8525 48.348 56.8525V58.5246ZM39.9873 43.4754C39.5256 43.4754 39.1513 43.8497 39.1513 44.3115C39.1513 44.7732 39.5256 45.1475 39.9873 45.1475V43.4754ZM60.0529 45.1475C60.5147 45.1475 60.889 44.7732 60.889 44.3115C60.889 43.8497 60.5147 43.4754 60.0529 43.4754V45.1475ZM39.9873 50.1639C39.5256 50.1639 39.1513 50.5383 39.1513 51C39.1513 51.4617 39.5256 51.8361 39.9873 51.8361V50.1639ZM60.0529 51.8361C60.5147 51.8361 60.889 51.4617 60.889 51C60.889 50.5383 60.5147 50.1639 60.0529 50.1639V51.8361ZM39.9873 58.5246H48.348V56.8525H39.9873V58.5246ZM39.9873 45.1475H60.0529V43.4754H39.9873V45.1475ZM39.9873 51.8361H60.0529V50.1639H39.9873V51.8361Z" fill="white"/>
</g>
<defs>
<linearGradient id="paint0_linear_108_4970" x1="0" y1="153" x2="102" y2="153" gradientUnits="userSpaceOnUse">
<stop stop-color="#33CCFF"/>
<stop offset="1" stop-color="#33ABFF"/>
</linearGradient>
</defs>
</svg>
