<svg width="153" height="132" viewBox="0 0 153 132" fill="none" xmlns="http://www.w3.org/2000/svg">
<circle cx="84" cy="66" r="66" fill="#F1F5F7"/>
<g opacity="0.6">
<rect y="15" width="111" height="56" rx="4" fill="url(#paint0_linear_2159_5236)"/>
<g opacity="0.6">
<path opacity="0.3" d="M5.50586 39.5001C5.50586 38.7126 6.14427 38.0742 6.93179 38.0742H60.7735C61.561 38.0742 62.1994 38.7126 62.1994 39.5001V39.5001C62.1994 40.2877 61.561 40.9261 60.7735 40.9261H6.93178C6.14427 40.9261 5.50586 40.2877 5.50586 39.5001V39.5001Z" fill="white"/>
<path opacity="0.4" d="M5.50586 50.9083C5.50586 50.1208 6.14427 49.4824 6.93179 49.4824H21.088C21.8755 49.4824 22.5139 50.1208 22.5139 50.9083V50.9083C22.5139 51.6959 21.8755 52.3343 21.088 52.3343H6.93179C6.14427 52.3343 5.50586 51.6959 5.50586 50.9083V50.9083Z" fill="white"/>
<path opacity="0.3" d="M5.50586 59.463C5.50586 58.6755 6.14427 58.0371 6.93179 58.0371H35.2614C36.0489 58.0371 36.6873 58.6755 36.6873 59.463V59.463C36.6873 60.2506 36.0489 60.889 35.2614 60.889H6.93179C6.14427 60.889 5.50586 60.2506 5.50586 59.463V59.463Z" fill="white"/>
</g>
<path opacity="0.260538" fill-rule="evenodd" clip-rule="evenodd" d="M31 29.7791C31 28.0609 32.3929 26.668 34.1111 26.668H104.201C105.92 26.668 107.312 28.0609 107.312 29.7791V29.7791C107.312 31.4973 105.92 32.8902 104.201 32.8902H34.1111C32.3929 32.8902 31 31.4973 31 29.7791V29.7791Z" fill="white"/>
<path opacity="0.260538" fill-rule="evenodd" clip-rule="evenodd" d="M5 29.7791C5 28.0609 6.39289 26.668 8.11111 26.668H24.8889C26.6071 26.668 28 28.0609 28 29.7791V29.7791C28 31.4973 26.6071 32.8902 24.8889 32.8902H8.11111C6.39289 32.8902 5 31.4973 5 29.7791V29.7791Z" fill="white"/>
</g>
<g opacity="0.6">
<path fill-rule="evenodd" clip-rule="evenodd" d="M21 96C21 93.7909 22.7909 92 25 92H71C73.2091 92 75 93.7909 75 96V120.17C75 122.379 73.2091 124.17 71 124.17H25C22.7909 124.17 21 122.379 21 120.17V96Z" fill="#174798"/>
<path opacity="0.4" fill-rule="evenodd" clip-rule="evenodd" d="M50.3936 115.062C50.3936 115.346 50.651 115.578 50.9681 115.578C51.2749 115.578 51.5426 115.347 51.5426 115.062V98.515C51.5426 98.2306 51.2852 98 50.9681 98C50.6613 98 50.3936 98.2296 50.3936 98.515V115.062ZM60.5908 115.062C60.5908 115.346 60.8482 115.578 61.1653 115.578C61.4721 115.578 61.7398 115.347 61.7398 115.062V98.515C61.7398 98.2306 61.4824 98 61.1653 98C60.8585 98 60.5908 98.2296 60.5908 98.515V115.062ZM46.8027 114.536C46.8027 115.113 47.1888 115.578 47.6644 115.578C48.1435 115.578 48.5261 115.111 48.5261 114.536V99.0402C48.5261 98.4633 48.1401 98 47.6644 98C47.1862 98 46.8027 98.4653 46.8027 99.0402V114.536ZM53.4092 117.456C53.4092 118.135 53.7952 118.681 54.2709 118.681C54.75 118.681 55.1326 118.132 55.1326 117.456V99.2239C55.1326 98.545 54.7465 98 54.2709 98C53.7926 98 53.4092 98.5475 53.4092 99.2239V117.456ZM57 114.536C57 115.113 57.386 115.578 57.8617 115.578C58.3408 115.578 58.7234 115.111 58.7234 114.536V99.0402C58.7234 98.4633 58.3374 98 57.8617 98C57.3835 98 57 98.4653 57 99.0402V114.536ZM63.6064 117.455C63.6064 118.134 63.9924 118.681 64.4681 118.681C64.9472 118.681 65.3298 118.132 65.3298 117.455V99.2239C65.3298 98.545 64.9437 98 64.4681 98C63.9898 98 63.6064 98.5475 63.6064 99.2239V117.455ZM43.7871 115.062C43.7871 115.346 44.0433 115.578 44.3616 115.578C44.6695 115.578 44.936 115.347 44.936 115.062V98.515C44.936 98.2306 44.6787 98 44.3616 98C44.0537 98 43.7871 98.2296 43.7871 98.515V115.062ZM40.1973 114.536C40.1973 115.113 40.5833 115.578 41.059 115.578C41.5381 115.578 41.9207 115.111 41.9207 114.536V99.0402C41.9207 98.4633 41.5346 98 41.059 98C40.5799 98 40.1973 98.4653 40.1973 99.0402V114.536ZM36.6064 114.536C36.6064 115.113 36.9924 115.578 37.4681 115.578C37.9472 115.578 38.3298 115.111 38.3298 114.536V99.0402C38.3298 98.4633 37.9429 98 37.4681 98C36.9898 98 36.6064 98.4653 36.6064 99.0402V114.536ZM33.5908 115.062C33.5908 115.346 33.847 115.578 34.1653 115.578C34.4732 115.578 34.7398 115.347 34.7398 115.062V98.515C34.7398 98.2306 34.4835 98 34.1653 98C33.8574 98 33.5908 98.2296 33.5908 98.515V115.062ZM30 117.653C30 118.22 30.3869 118.681 30.8617 118.681C31.3408 118.681 31.7234 118.22 31.7234 117.653V99.0258C31.7234 98.4591 31.3374 98 30.8617 98C30.3826 98 30 98.4591 30 99.0258V117.653ZM44.9932 117.647H51.6026V116.613H44.9932V117.647ZM57.0576 117.647H61.6331V116.613H57.0576V117.647ZM41.374 117.647H43.4421V116.613H41.374V117.647ZM34.1357 117.647H38.2719V116.613H34.1357V117.647Z" fill="white"/>
</g>
<path opacity="0.8" fill-rule="evenodd" clip-rule="evenodd" d="M89.3333 38C87.4924 38 86 39.4924 86 41.3333V114.667C86 116.508 87.4924 118 89.3333 118H149.667C151.508 118 153 116.508 153 114.667V59.5798C153 59.1364 152.823 58.7112 152.509 58.3984L132.496 38.4852C132.184 38.1745 131.761 38 131.321 38H89.3333Z" fill="url(#paint1_linear_2159_5236)"/>
<path opacity="0.4" fill-rule="evenodd" clip-rule="evenodd" d="M132.062 38V55.2266C132.062 57.0675 133.555 58.5599 135.396 58.5599H152.733" fill="#174798"/>
<path opacity="0.4" d="M99.4004 77.1667H134.5" stroke="white" stroke-width="1.66667" stroke-linecap="round" stroke-linejoin="round"/>
<path opacity="0.4" d="M99.4004 85.9167H139.6" stroke="white" stroke-width="1.66667" stroke-linecap="round" stroke-linejoin="round"/>
<path opacity="0.4" d="M99.4004 94.2487H134.5" stroke="white" stroke-width="1.66667" stroke-linecap="round" stroke-linejoin="round"/>
<path opacity="0.4" d="M99.4004 102.583H118.663" stroke="white" stroke-width="1.66667" stroke-linecap="round" stroke-linejoin="round"/>
<defs>
<linearGradient id="paint0_linear_2159_5236" x1="54.7169" y1="98.6049" x2="99.1219" y2="10.5878" gradientUnits="userSpaceOnUse">
<stop stop-color="#6FBAFF"/>
<stop offset="1" stop-color="#6FBAFF"/>
</linearGradient>
<linearGradient id="paint1_linear_2159_5236" x1="86" y1="158" x2="153" y2="158" gradientUnits="userSpaceOnUse">
<stop stop-color="#174798"/>
<stop offset="1" stop-color="#6FBAFF"/>
</linearGradient>
</defs>
</svg>
