<svg width="528" height="112" viewBox="0 0 528 112" fill="none" xmlns="http://www.w3.org/2000/svg">
<rect opacity="0.8" x="184" width="160" height="112" rx="8" fill="url(#paint0_linear_2159_4994)"/>
<path opacity="0.5" fill-rule="evenodd" clip-rule="evenodd" d="M274.222 45.296C271.39 42.5251 267.69 41.0001 263.805 41C263.806 41 263.806 41 263.806 41H263.805C263.805 41 263.805 41 263.805 41C255.642 41.0003 249 47.4982 249 55.484C249 56.746 250.046 57.77 251.337 57.77C252.628 57.77 253.676 56.747 253.676 55.484C253.676 50.02 258.22 45.574 263.806 45.574C266.442 45.574 268.966 46.623 270.916 48.529C272.865 50.436 273.938 52.906 273.938 55.484C273.938 59.828 270.97 63.732 266.722 64.978C263.579 65.899 261.469 68.653 261.469 71.831V72.559C261.469 73.822 262.515 74.846 263.807 74.846C265.098 74.846 266.145 73.822 266.145 72.559V71.831C266.145 70.689 266.916 69.695 268.066 69.359C274.276 67.537 278.614 61.832 278.614 55.485C278.614 51.685 277.054 48.066 274.222 45.296ZM265.923 82.8835C265.923 81.7175 264.976 80.7705 263.81 80.7705L263.806 80.7695C262.698 80.7703 261.778 81.6269 261.698 82.7325L261.693 82.8845V82.8875C261.704 84.0189 262.604 84.9413 263.734 84.9815C264.865 85.0216 265.827 84.1652 265.918 83.0375L265.923 82.8855V82.8835Z" fill="white"/>
<path opacity="0.8" d="M192 0H336C340.418 0 344 3.58172 344 8V23H184V8C184 3.58172 187.582 0 192 0Z" fill="url(#paint1_linear_2159_4994)"/>
<path opacity="0.395" d="M200 11H304" stroke="white" stroke-width="4" stroke-linecap="round" stroke-linejoin="round"/>
<circle opacity="0.4" cx="314" cy="11" r="2" fill="white"/>
<circle opacity="0.4" cx="322" cy="11" r="2" fill="white"/>
<circle opacity="0.4" cx="330" cy="11" r="2" fill="white"/>
<rect opacity="0.8" width="160" height="112" rx="8" fill="url(#paint2_linear_2159_4994)"/>
<path opacity="0.5" fill-rule="evenodd" clip-rule="evenodd" d="M90.222 45.296C87.3901 42.5251 83.6903 41.0001 79.8055 41C79.8057 41 79.8058 41 79.806 41H79.805C79.8052 41 79.8053 41 79.8055 41C71.6417 41.0003 65 47.4982 65 55.484C65 56.746 66.046 57.77 67.337 57.77C68.628 57.77 69.676 56.747 69.676 55.484C69.676 50.02 74.22 45.574 79.806 45.574C82.442 45.574 84.966 46.623 86.916 48.529C88.865 50.436 89.938 52.906 89.938 55.484C89.938 59.828 86.97 63.732 82.722 64.978C79.579 65.899 77.469 68.653 77.469 71.831V72.559C77.469 73.822 78.515 74.846 79.807 74.846C81.098 74.846 82.145 73.822 82.145 72.559V71.831C82.145 70.689 82.916 69.695 84.066 69.359C90.276 67.537 94.614 61.832 94.614 55.485C94.614 51.685 93.054 48.066 90.222 45.296ZM81.9234 82.8835C81.9234 81.7175 80.9764 80.7705 79.8104 80.7705L79.8064 80.7695C78.6978 80.7703 77.778 81.6269 77.6984 82.7325L77.6934 82.8845V82.8875C77.7044 84.0189 78.6035 84.9413 79.7342 84.9815C80.8649 85.0216 81.8271 84.1652 81.9184 83.0375L81.9234 82.8855V82.8835Z" fill="white"/>
<path opacity="0.8" d="M8 0H152C156.418 0 160 3.58172 160 8V23H0V8C0 3.58172 3.58172 0 8 0Z" fill="url(#paint3_linear_2159_4994)"/>
<path opacity="0.395" d="M16 11H120" stroke="white" stroke-width="4" stroke-linecap="round" stroke-linejoin="round"/>
<circle opacity="0.4" cx="130" cy="11" r="2" fill="white"/>
<circle opacity="0.4" cx="138" cy="11" r="2" fill="white"/>
<circle opacity="0.4" cx="146" cy="11" r="2" fill="white"/>
<rect opacity="0.8" x="368" width="160" height="112" rx="8" fill="url(#paint4_linear_2159_4994)"/>
<path opacity="0.5" fill-rule="evenodd" clip-rule="evenodd" d="M458.222 45.296C455.39 42.5251 451.69 41.0001 447.805 41C447.806 41 447.806 41 447.806 41H447.805C447.805 41 447.805 41 447.805 41C439.642 41.0003 433 47.4982 433 55.484C433 56.746 434.046 57.77 435.337 57.77C436.628 57.77 437.676 56.747 437.676 55.484C437.676 50.02 442.22 45.574 447.806 45.574C450.442 45.574 452.966 46.623 454.916 48.529C456.865 50.436 457.938 52.906 457.938 55.484C457.938 59.828 454.97 63.732 450.722 64.978C447.579 65.899 445.469 68.653 445.469 71.831V72.559C445.469 73.822 446.515 74.846 447.807 74.846C449.098 74.846 450.145 73.822 450.145 72.559V71.831C450.145 70.689 450.916 69.695 452.066 69.359C458.276 67.537 462.614 61.832 462.614 55.485C462.614 51.685 461.054 48.066 458.222 45.296ZM449.923 82.8835C449.923 81.7175 448.976 80.7705 447.81 80.7705L447.806 80.7695C446.698 80.7703 445.778 81.6269 445.698 82.7325L445.693 82.8845V82.8875C445.704 84.0189 446.604 84.9413 447.734 84.9815C448.865 85.0216 449.827 84.1652 449.918 83.0375L449.923 82.8855V82.8835Z" fill="white"/>
<path opacity="0.8" d="M376 0H520C524.418 0 528 3.58172 528 8V23H368V8C368 3.58172 371.582 0 376 0Z" fill="url(#paint5_linear_2159_4994)"/>
<path opacity="0.395" d="M384 11H488" stroke="white" stroke-width="4" stroke-linecap="round" stroke-linejoin="round"/>
<circle opacity="0.4" cx="498" cy="11" r="2" fill="white"/>
<circle opacity="0.4" cx="506" cy="11" r="2" fill="white"/>
<circle opacity="0.4" cx="514" cy="11" r="2" fill="white"/>
<path d="M80 0H160V112H80V0Z" fill="url(#paint6_linear_2159_4994)"/>
<path d="M448 0H368V112H448V0Z" fill="url(#paint7_linear_2159_4994)"/>
<path d="M0 0H80V112H0V0Z" fill="white"/>
<path d="M448 0H528V112H448V0Z" fill="white"/>
<defs>
<linearGradient id="paint0_linear_2159_4994" x1="262.872" y1="167.21" x2="366.622" y2="18.9947" gradientUnits="userSpaceOnUse">
<stop stop-color="#174798"/>
<stop offset="1" stop-color="#6FBAFF"/>
</linearGradient>
<linearGradient id="paint1_linear_2159_4994" x1="262.862" y1="34.3355" x2="269.25" y2="-10.0971" gradientUnits="userSpaceOnUse">
<stop stop-color="#174798"/>
<stop offset="1" stop-color="#174798"/>
</linearGradient>
<linearGradient id="paint2_linear_2159_4994" x1="78.8718" y1="167.21" x2="182.622" y2="18.9947" gradientUnits="userSpaceOnUse">
<stop stop-color="#174798"/>
<stop offset="1" stop-color="#6FBAFF"/>
</linearGradient>
<linearGradient id="paint3_linear_2159_4994" x1="78.8616" y1="34.3355" x2="85.2495" y2="-10.0971" gradientUnits="userSpaceOnUse">
<stop stop-color="#174798"/>
<stop offset="1" stop-color="#174798"/>
</linearGradient>
<linearGradient id="paint4_linear_2159_4994" x1="446.872" y1="167.21" x2="550.622" y2="18.9947" gradientUnits="userSpaceOnUse">
<stop stop-color="#174798"/>
<stop offset="1" stop-color="#6FBAFF"/>
</linearGradient>
<linearGradient id="paint5_linear_2159_4994" x1="446.862" y1="34.3355" x2="453.25" y2="-10.0971" gradientUnits="userSpaceOnUse">
<stop stop-color="#174798"/>
<stop offset="1" stop-color="#174798"/>
</linearGradient>
<linearGradient id="paint6_linear_2159_4994" x1="160" y1="0" x2="80" y2="0" gradientUnits="userSpaceOnUse">
<stop stop-color="white" stop-opacity="0.01"/>
<stop offset="1" stop-color="white"/>
</linearGradient>
<linearGradient id="paint7_linear_2159_4994" x1="368" y1="0" x2="448" y2="0" gradientUnits="userSpaceOnUse">
<stop stop-color="white" stop-opacity="0.01"/>
<stop offset="1" stop-color="white"/>
</linearGradient>
</defs>
</svg>
