<svg width="410" height="360" viewBox="0 0 410 360" fill="none" xmlns="http://www.w3.org/2000/svg">
<path d="M334.351 306.109C326.072 314.643 318.664 319.659 312.992 323.447C257.678 360.381 194.447 349.736 174.897 346.095C143.357 340.225 116.734 336.083 93.8567 315.417C41.8771 268.457 44.4037 170.492 84.1249 109.807C88.8335 102.612 128.492 43.8251 191.861 35.5423C193.41 35.3388 194.566 35.2243 195.579 35.1168C205.382 34.0761 266.128 28.6008 315.661 70.0994C322.751 76.0394 334.163 86.7506 344.743 103.095C383.432 162.849 383.557 255.393 334.351 306.109Z" fill="#F1F5F7"/>
<path d="M199.722 100.425C199.624 100.424 199.529 100.395 199.448 100.341C199.367 100.287 199.304 100.21 199.266 100.12C198.756 98.8919 198.285 97.625 197.862 96.3552C197.822 96.2317 197.833 96.0974 197.891 95.9815C197.95 95.8657 198.052 95.7778 198.175 95.7368C198.298 95.6959 198.433 95.7053 198.549 95.763C198.665 95.8206 198.754 95.9219 198.796 96.0448C199.21 97.2924 199.683 98.5371 200.175 99.7404C200.2 99.8001 200.213 99.8641 200.213 99.9288C200.213 99.9934 200.201 100.057 200.176 100.117C200.151 100.177 200.115 100.231 200.069 100.277C200.023 100.323 199.969 100.359 199.909 100.383C199.85 100.41 199.786 100.424 199.722 100.425ZM196.648 90.4422C196.535 90.4422 196.426 90.4032 196.338 90.3318C196.251 90.2605 196.191 90.1611 196.168 90.0505C196.122 89.8332 196.078 89.607 196.035 89.3941C195.822 88.2988 195.639 87.1871 195.491 86.0888C195.481 86.024 195.484 85.9579 195.499 85.8943C195.515 85.8307 195.544 85.7708 195.583 85.7183C195.622 85.6658 195.671 85.6217 195.728 85.5885C195.785 85.5554 195.847 85.5338 195.912 85.5251C195.977 85.5165 196.043 85.5209 196.106 85.5381C196.17 85.5553 196.229 85.5849 196.28 85.6253C196.332 85.6657 196.375 85.716 196.407 85.7733C196.439 85.8305 196.459 85.8935 196.466 85.9587C196.614 87.0378 196.79 88.1302 197 89.2108C197.043 89.4267 197.086 89.641 197.13 89.8568C197.144 89.92 197.144 89.9853 197.132 90.0488C197.12 90.1123 197.096 90.1728 197.061 90.2268C197.025 90.2808 196.979 90.3272 196.926 90.3635C196.872 90.3997 196.812 90.4249 196.749 90.4378C196.716 90.4429 196.682 90.4444 196.648 90.4422ZM195.492 80.0634C195.363 80.0631 195.239 80.0121 195.147 79.9214C195.055 79.8308 195.002 79.7077 195 79.5786C195 79.2829 195 78.971 195 78.668C195 77.6332 195.03 76.5866 195.087 75.5636C195.094 75.4333 195.153 75.3111 195.251 75.2241C195.348 75.137 195.476 75.0922 195.606 75.0995C195.736 75.1067 195.859 75.1655 195.946 75.2628C196.033 75.3601 196.078 75.488 196.07 75.6183C196.013 76.625 195.985 77.6509 195.985 78.668C195.985 78.9636 195.985 79.2627 195.985 79.5653C195.985 79.6299 195.974 79.6941 195.95 79.7542C195.926 79.8143 195.891 79.8691 195.846 79.9155C195.801 79.9619 195.747 79.999 195.687 80.0246C195.628 80.0503 195.564 80.0639 195.5 80.0649L195.492 80.0634ZM196.317 69.6506C196.288 69.6528 196.259 69.6528 196.23 69.6506C196.166 69.6394 196.105 69.6157 196.051 69.5809C195.997 69.5461 195.95 69.5009 195.913 69.4479C195.876 69.3949 195.849 69.3351 195.836 69.272C195.822 69.2089 195.821 69.1436 195.832 69.08C196.063 67.7629 196.347 66.4399 196.672 65.1479C196.704 65.0213 196.785 64.9126 196.897 64.8458C197.01 64.7789 197.144 64.7595 197.271 64.7916C197.397 64.8238 197.506 64.9049 197.573 65.0172C197.64 65.1295 197.659 65.2637 197.627 65.3903C197.306 66.6572 197.036 67.9566 196.801 69.2515C196.779 69.3638 196.719 69.4651 196.631 69.538C196.542 69.6108 196.432 69.6506 196.317 69.6506ZM199.099 59.5823C199.019 59.5823 198.941 59.5629 198.87 59.5257C198.799 59.4886 198.739 59.4348 198.694 59.369C198.648 59.3033 198.62 59.2275 198.61 59.1483C198.601 59.069 198.611 58.9887 198.639 58.9141C199.115 57.6665 199.643 56.4218 200.208 55.2185C200.231 55.1535 200.267 55.0939 200.314 55.0437C200.361 54.9935 200.418 54.9538 200.482 54.9271C200.545 54.9004 200.613 54.8873 200.682 54.8886C200.751 54.89 200.819 54.9058 200.881 54.935C200.944 54.9642 200.999 55.0062 201.044 55.0582C201.09 55.1102 201.123 55.1711 201.143 55.237C201.164 55.3029 201.17 55.3722 201.161 55.4406C201.153 55.509 201.13 55.5748 201.095 55.6339C200.54 56.8165 200.022 58.0449 199.554 59.2689C199.519 59.3606 199.456 59.4394 199.375 59.4953C199.294 59.5511 199.198 59.5814 199.099 59.5823ZM203.728 50.2205C203.636 50.2208 203.546 50.1952 203.469 50.1466C203.358 50.0779 203.279 49.9681 203.249 49.8411C203.219 49.7142 203.241 49.5806 203.309 49.4696C204.011 48.3328 204.764 47.2093 205.543 46.1287C205.619 46.0229 205.735 45.9517 205.864 45.9309C205.993 45.9101 206.124 45.9414 206.23 46.0179C206.336 46.0943 206.407 46.2097 206.428 46.3386C206.449 46.4675 206.418 46.5994 206.341 46.7052C205.575 47.7666 204.836 48.8709 204.146 49.987C204.102 50.0584 204.04 50.1174 203.967 50.1583C203.894 50.1991 203.811 50.2206 203.728 50.2205ZM210.028 41.8935C209.932 41.8937 209.839 41.866 209.759 41.8138C209.678 41.7617 209.615 41.6873 209.577 41.5999C209.538 41.5124 209.526 41.4156 209.541 41.3212C209.557 41.2269 209.6 41.1392 209.664 41.0687C210.564 40.0871 211.514 39.1248 212.485 38.2083C212.532 38.1639 212.587 38.1292 212.647 38.1062C212.707 38.0831 212.772 38.0722 212.836 38.074C212.901 38.0758 212.964 38.0902 213.023 38.1166C213.082 38.1429 213.135 38.1806 213.179 38.2275C213.224 38.2744 213.259 38.3295 213.282 38.3898C213.305 38.4501 213.316 38.5143 213.314 38.5788C213.312 38.6434 213.298 38.7069 213.271 38.7658C213.245 38.8247 213.207 38.8779 213.16 38.9223C212.207 39.824 211.274 40.7701 210.39 41.7309C210.345 41.782 210.289 41.8229 210.226 41.8509C210.164 41.8789 210.096 41.8934 210.028 41.8935ZM217.777 34.8999C217.673 34.9003 217.572 34.8679 217.488 34.8075C217.404 34.747 217.341 34.6616 217.308 34.5633C217.276 34.4651 217.275 34.359 217.306 34.2602C217.337 34.1614 217.398 34.0749 217.481 34.013C218.553 33.2162 219.666 32.449 220.788 31.735C220.843 31.7003 220.903 31.6766 220.967 31.6654C221.031 31.6541 221.096 31.6556 221.159 31.6696C221.222 31.6836 221.282 31.7099 221.335 31.747C221.388 31.7841 221.433 31.8312 221.468 31.8858C221.503 31.9403 221.526 32.0012 221.538 32.0649C221.549 32.1286 221.547 32.1939 221.533 32.257C221.519 32.3202 221.493 32.3799 221.456 32.4329C221.419 32.4859 221.372 32.531 221.317 32.5658C220.214 33.2665 219.121 34.0204 218.065 34.8024C217.982 34.8651 217.881 34.8993 217.777 34.8999ZM226.708 29.4969C226.597 29.4971 226.489 29.4593 226.401 29.3899C226.314 29.3204 226.253 29.2233 226.228 29.1146C226.203 29.0058 226.216 28.8918 226.264 28.7913C226.312 28.6908 226.394 28.6096 226.494 28.5612C227.693 27.9847 228.932 27.4436 230.176 26.9514C230.296 26.9101 230.428 26.9167 230.543 26.9698C230.658 27.0229 230.748 27.1184 230.795 27.2363C230.841 27.3543 230.84 27.4857 230.792 27.603C230.744 27.7204 230.653 27.8148 230.537 27.8664C229.315 28.3498 228.098 28.882 226.921 29.4482C226.855 29.48 226.782 29.4967 226.708 29.4969ZM236.503 25.8826C236.384 25.8827 236.268 25.8391 236.178 25.7602C236.088 25.6813 236.03 25.5723 236.015 25.4537C236 25.3351 236.028 25.2149 236.095 25.1157C236.161 25.0164 236.262 24.9449 236.378 24.9144C237.571 24.598 238.793 24.3231 240.011 24.0806L240.298 24.0245C240.426 24.0007 240.559 24.029 240.666 24.103C240.774 24.177 240.848 24.2907 240.872 24.4191C240.895 24.5475 240.867 24.6801 240.793 24.7877C240.719 24.8952 240.605 24.969 240.477 24.9927L240.2 25.0459C239.003 25.2795 237.801 25.5544 236.629 25.8663C236.588 25.8767 236.546 25.8822 236.503 25.8826ZM261.181 25.0267C261.149 25.0268 261.118 25.0234 261.087 25.0164C259.799 24.7665 258.486 24.5611 257.187 24.4058C257.06 24.3869 256.946 24.3193 256.868 24.2175C256.791 24.1157 256.756 23.9877 256.771 23.8606C256.786 23.7335 256.85 23.6173 256.95 23.5367C257.049 23.456 257.176 23.4173 257.304 23.4287C258.634 23.5869 259.965 23.7968 261.274 24.0511C261.395 24.0742 261.502 24.1414 261.575 24.2394C261.649 24.3374 261.683 24.4593 261.671 24.5812C261.66 24.7031 261.603 24.8164 261.512 24.8987C261.422 24.9811 261.304 25.0267 261.181 25.0267ZM246.799 24.1619C246.669 24.1664 246.542 24.1191 246.447 24.0302C246.352 23.9414 246.296 23.8183 246.292 23.6881C246.287 23.558 246.334 23.4314 246.423 23.3361C246.512 23.2409 246.635 23.1849 246.765 23.1804C248.078 23.0858 249.407 23.0325 250.715 23.0325C250.783 23.0294 250.85 23.0396 250.914 23.0627C250.977 23.0858 251.036 23.1212 251.085 23.167C251.135 23.2128 251.175 23.268 251.204 23.3294C251.232 23.3908 251.248 23.4572 251.25 23.5248C251.252 23.5895 251.24 23.6537 251.216 23.7137C251.191 23.7737 251.155 23.8282 251.11 23.874C251.064 23.9198 251.01 23.9559 250.95 23.9802C250.89 24.0046 250.826 24.0166 250.761 24.0156C249.431 24.0156 248.125 24.0629 246.835 24.1545L246.799 24.1619Z" fill="#CFDAE1"/>
<path d="M269.342 27.2735C269.285 27.2737 269.228 27.2642 269.175 27.2454C268.564 27.0252 267.943 26.8138 267.33 26.6172C267.265 26.6009 267.203 26.5714 267.15 26.5306C267.097 26.4898 267.052 26.4385 267.02 26.38C266.987 26.3214 266.966 26.2567 266.96 26.1899C266.953 26.1231 266.96 26.0556 266.98 25.9916C267 25.9276 267.033 25.8684 267.077 25.8176C267.121 25.7668 267.175 25.7256 267.235 25.6964C267.296 25.6672 267.362 25.6507 267.429 25.6479C267.496 25.6451 267.563 25.656 267.625 25.68C268.251 25.8796 268.882 26.0954 269.504 26.3201C269.614 26.3588 269.706 26.435 269.764 26.5352C269.823 26.6354 269.844 26.7531 269.824 26.8675C269.804 26.9818 269.744 27.0853 269.655 27.1596C269.566 27.234 269.453 27.2743 269.337 27.2735H269.342Z" fill="#CFDAE1"/>
<path d="M250.686 134.413C249.692 134.403 248.708 134.389 247.729 134.337C247.599 134.331 247.477 134.272 247.389 134.175C247.302 134.078 247.257 133.95 247.264 133.82C247.266 133.755 247.281 133.691 247.308 133.632C247.335 133.573 247.374 133.52 247.423 133.477C247.471 133.433 247.528 133.4 247.589 133.379C247.651 133.358 247.716 133.35 247.781 133.354C248.74 133.406 249.703 133.439 250.684 133.428C251.011 133.428 251.338 133.425 251.664 133.419C251.795 133.418 251.921 133.468 252.014 133.559C252.108 133.651 252.161 133.775 252.162 133.906C252.164 134.036 252.114 134.162 252.022 134.256C251.931 134.349 251.807 134.402 251.676 134.404C251.352 134.41 251.018 134.413 250.686 134.413ZM258.024 133.913C257.899 133.913 257.779 133.865 257.688 133.78C257.597 133.695 257.542 133.578 257.533 133.454C257.525 133.329 257.565 133.206 257.643 133.109C257.722 133.013 257.835 132.95 257.959 132.933C259.017 132.785 260.095 132.614 261.161 132.405C261.371 132.364 261.579 132.323 261.789 132.278C261.915 132.255 262.046 132.282 262.153 132.354C262.259 132.426 262.334 132.537 262.36 132.663C262.386 132.789 262.362 132.92 262.292 133.028C262.223 133.136 262.114 133.213 261.988 133.242C261.776 133.286 261.563 133.329 261.348 133.371C260.263 133.582 259.166 133.764 258.089 133.909C258.067 133.912 258.045 133.913 258.024 133.913ZM241.427 133.635C241.4 133.637 241.372 133.637 241.345 133.635C240.051 133.415 238.747 133.145 237.472 132.833C237.409 132.817 237.35 132.79 237.298 132.751C237.245 132.713 237.201 132.665 237.168 132.609C237.134 132.554 237.112 132.493 237.102 132.429C237.093 132.365 237.095 132.3 237.111 132.237C237.126 132.174 237.154 132.115 237.192 132.063C237.231 132.011 237.279 131.967 237.334 131.933C237.389 131.9 237.451 131.877 237.515 131.868C237.579 131.858 237.644 131.861 237.707 131.876C238.96 132.184 240.239 132.448 241.51 132.666C241.631 132.687 241.74 132.753 241.815 132.85C241.89 132.947 241.926 133.069 241.916 133.192C241.905 133.315 241.849 133.429 241.759 133.512C241.669 133.596 241.55 133.642 241.427 133.643V133.635ZM268.036 131.607C267.919 131.607 267.806 131.565 267.717 131.49C267.628 131.414 267.569 131.309 267.55 131.193C267.531 131.078 267.554 130.96 267.615 130.86C267.676 130.76 267.77 130.685 267.881 130.648C269.109 130.241 270.335 129.789 271.523 129.301C271.584 129.272 271.649 129.256 271.716 129.254C271.783 129.251 271.85 129.262 271.912 129.286C271.974 129.31 272.031 129.347 272.079 129.393C272.127 129.44 272.165 129.496 272.19 129.558C272.216 129.62 272.228 129.686 272.227 129.753C272.226 129.82 272.211 129.886 272.184 129.947C272.157 130.008 272.117 130.063 272.068 130.108C272.018 130.153 271.96 130.188 271.897 130.21C270.688 130.708 269.44 131.17 268.19 131.582C268.141 131.599 268.089 131.608 268.037 131.609L268.036 131.607ZM277.448 127.49C277.339 127.491 277.233 127.455 277.146 127.388C277.06 127.321 276.998 127.228 276.971 127.122C276.944 127.017 276.952 126.905 276.996 126.805C277.039 126.705 277.114 126.622 277.21 126.569C278.339 125.942 279.457 125.268 280.535 124.566C280.589 124.529 280.65 124.502 280.714 124.489C280.779 124.475 280.845 124.475 280.91 124.487C280.975 124.5 281.036 124.525 281.091 124.562C281.146 124.599 281.192 124.647 281.228 124.702C281.264 124.757 281.289 124.819 281.3 124.884C281.312 124.949 281.31 125.015 281.296 125.08C281.281 125.144 281.254 125.205 281.215 125.258C281.176 125.312 281.128 125.357 281.071 125.391C279.976 126.105 278.836 126.791 277.687 127.43C277.615 127.47 277.533 127.491 277.449 127.492L277.448 127.49ZM285.923 121.694C285.822 121.694 285.723 121.663 285.64 121.605C285.557 121.547 285.494 121.464 285.46 121.369C285.425 121.274 285.421 121.17 285.448 121.073C285.474 120.975 285.53 120.888 285.608 120.823C286.6 120 287.574 119.129 288.504 118.236C288.55 118.189 288.605 118.151 288.666 118.125C288.727 118.099 288.792 118.086 288.859 118.086C288.925 118.086 288.99 118.1 289.051 118.125C289.112 118.151 289.167 118.189 289.213 118.237C289.259 118.285 289.295 118.342 289.318 118.403C289.342 118.465 289.352 118.531 289.35 118.597C289.347 118.664 289.331 118.729 289.303 118.788C289.275 118.848 289.235 118.902 289.185 118.946C288.238 119.855 287.246 120.741 286.238 121.58C286.15 121.654 286.039 121.694 285.924 121.695L285.923 121.694ZM293.177 114.421C293.083 114.421 292.992 114.394 292.913 114.344C292.835 114.294 292.772 114.222 292.732 114.138C292.693 114.054 292.678 113.96 292.689 113.867C292.701 113.775 292.739 113.687 292.798 113.615C293.62 112.622 294.424 111.587 295.163 110.536C295.2 110.482 295.248 110.435 295.303 110.399C295.358 110.363 295.42 110.339 295.484 110.327C295.549 110.316 295.616 110.317 295.68 110.332C295.744 110.346 295.804 110.374 295.858 110.412C295.911 110.45 295.957 110.499 295.991 110.555C296.025 110.611 296.048 110.674 296.058 110.739C296.068 110.804 296.064 110.87 296.048 110.934C296.032 110.998 296.003 111.057 295.963 111.11C295.199 112.177 294.389 113.232 293.552 114.242C293.506 114.297 293.449 114.341 293.384 114.371C293.32 114.401 293.249 114.417 293.178 114.418L293.177 114.421ZM298.967 105.931C298.883 105.932 298.801 105.91 298.729 105.869C298.672 105.838 298.622 105.796 298.582 105.746C298.542 105.695 298.512 105.637 298.494 105.575C298.476 105.513 298.471 105.448 298.478 105.384C298.485 105.32 298.505 105.258 298.537 105.201C299.162 104.072 299.755 102.907 300.297 101.738C300.36 101.633 300.459 101.555 300.576 101.52C300.692 101.484 300.818 101.493 300.928 101.545C301.039 101.597 301.126 101.687 301.173 101.8C301.221 101.912 301.224 102.038 301.184 102.153C300.631 103.336 300.028 104.529 299.391 105.677C299.35 105.753 299.289 105.817 299.214 105.862C299.14 105.907 299.055 105.931 298.968 105.933L298.967 105.931ZM303.091 96.5179C303.041 96.5168 302.991 96.5083 302.943 96.4928C302.82 96.4516 302.717 96.3629 302.659 96.2462C302.6 96.1295 302.59 95.9943 302.631 95.8704C303.038 94.642 303.405 93.387 303.721 92.1408C303.735 92.0761 303.762 92.0148 303.8 91.9606C303.838 91.9065 303.886 91.8606 303.943 91.8257C303.999 91.7908 304.062 91.7676 304.127 91.7575C304.193 91.7474 304.259 91.7506 304.324 91.7669C304.388 91.7832 304.448 91.8123 304.501 91.8524C304.553 91.8926 304.597 91.9429 304.63 92.0005C304.663 92.058 304.684 92.1216 304.691 92.1873C304.699 92.2531 304.693 92.3197 304.674 92.3832C304.352 93.6516 303.98 94.9303 303.566 96.1809C303.533 96.2803 303.47 96.3669 303.385 96.4277C303.3 96.4887 303.197 96.5208 303.093 96.5194L303.091 96.5179ZM305.396 86.4998H305.331C305.201 86.4825 305.084 86.4146 305.005 86.3109C304.926 86.2072 304.891 86.0763 304.908 85.9469C305.078 84.6682 305.204 83.3674 305.282 82.0813C305.29 81.9509 305.349 81.829 305.447 81.7424C305.545 81.6558 305.673 81.6115 305.803 81.6194C305.933 81.6272 306.055 81.6865 306.142 81.7842C306.229 81.8819 306.273 82.0101 306.265 82.1404C306.185 83.4516 306.057 84.7747 305.884 86.077C305.867 86.1945 305.809 86.302 305.72 86.38C305.63 86.4579 305.516 86.501 305.397 86.5013L305.396 86.4998ZM305.789 76.2333C305.663 76.2328 305.543 76.1843 305.451 76.0978C305.36 76.0113 305.305 75.8932 305.298 75.7677C305.226 74.4787 305.108 73.1778 304.946 71.8991C304.935 71.8336 304.937 71.7664 304.952 71.7017C304.968 71.637 304.996 71.576 305.036 71.5225C305.075 71.469 305.125 71.4241 305.182 71.3904C305.24 71.3568 305.303 71.3351 305.369 71.3267C305.435 71.3183 305.502 71.3234 305.566 71.3416C305.63 71.3598 305.69 71.3908 305.742 71.4327C305.793 71.4746 305.836 71.5265 305.867 71.5853C305.898 71.6441 305.917 71.7087 305.922 71.7749C306.088 73.0773 306.207 74.4018 306.28 75.713C306.284 75.7775 306.275 75.8421 306.253 75.9031C306.232 75.9641 306.199 76.0203 306.156 76.0685C306.113 76.1167 306.061 76.1559 306.003 76.184C305.945 76.212 305.882 76.2283 305.817 76.2319L305.789 76.2333ZM304.275 66.0674C304.165 66.0672 304.058 66.0302 303.972 65.9621C303.885 65.894 303.824 65.7989 303.798 65.6919C303.49 64.4339 303.136 63.1789 302.742 61.9534C302.712 61.8318 302.729 61.703 302.79 61.5936C302.851 61.4841 302.952 61.4021 303.072 61.3644C303.191 61.3266 303.321 61.336 303.434 61.3905C303.547 61.445 303.635 61.5407 303.68 61.6578C304.079 62.9025 304.441 64.1826 304.754 65.4643C304.784 65.5907 304.762 65.7236 304.694 65.8342C304.627 65.9449 304.518 66.0244 304.392 66.0556C304.354 66.065 304.316 66.0694 304.277 66.0689L304.275 66.0674Z" fill="#CFDAE1"/>
<path d="M229.703 115.565C229.816 115.645 229.95 115.688 230.088 115.688C230.226 115.688 230.361 115.645 230.473 115.565L237.06 110.919C240.584 112.387 244.324 113.272 248.133 113.537L251.945 120.633C252.01 120.754 252.112 120.852 252.236 120.913C252.359 120.975 252.499 120.996 252.635 120.974L262.174 119.429C262.311 119.407 262.437 119.343 262.535 119.246C262.633 119.149 262.698 119.024 262.721 118.888L264.093 110.949C267.623 109.494 270.891 107.472 273.77 104.965L281.489 107.288C281.621 107.328 281.762 107.326 281.892 107.281C282.023 107.237 282.136 107.153 282.217 107.042L287.871 99.1964C287.951 99.0841 287.993 98.9498 287.993 98.8121C287.993 98.6744 287.951 98.54 287.871 98.4277L283.225 91.8392C284.694 88.3155 285.578 84.5756 285.843 80.7671L292.938 76.9547C293.059 76.8893 293.157 76.7879 293.218 76.6644C293.279 76.541 293.3 76.4017 293.278 76.2658L291.739 66.7208C291.717 66.5847 291.653 66.4589 291.556 66.3609C291.459 66.2629 291.334 66.1975 291.198 66.1738L283.26 64.802C281.804 61.2731 279.782 58.0052 277.275 55.1268L279.599 47.4074C279.638 47.2754 279.636 47.1342 279.592 47.0036C279.547 46.873 279.463 46.7594 279.352 46.6786L271.507 41.0258C271.394 40.9459 271.26 40.9029 271.122 40.9029C270.985 40.9029 270.85 40.9459 270.738 41.0258L264.151 45.672C260.627 44.2043 256.887 43.3205 253.079 43.0555L249.265 35.9599C249.2 35.8382 249.099 35.7398 248.975 35.6786C248.852 35.6174 248.712 35.5963 248.576 35.6184L239.031 37.1691C238.895 37.1907 238.769 37.2546 238.671 37.3517C238.573 37.4488 238.508 37.5741 238.486 37.7101L237.112 45.6483C233.583 47.1019 230.314 49.1216 227.436 51.6278L219.716 49.3025C219.584 49.2627 219.443 49.2652 219.313 49.3098C219.182 49.3543 219.069 49.4386 218.989 49.5509L213.335 57.3945C213.255 57.5067 213.212 57.641 213.212 57.7788C213.212 57.9166 213.255 58.051 213.335 58.1632L217.975 64.7488C216.507 68.2728 215.623 72.0125 215.358 75.8209L208.263 79.6333C208.141 79.6983 208.043 79.7997 207.982 79.9232C207.921 80.0467 207.901 80.1862 207.923 80.3221L209.472 89.8672C209.494 90.0034 209.558 90.1292 209.655 90.2273C209.752 90.3253 209.877 90.3907 210.013 90.4142L217.951 91.786C219.407 95.3149 221.429 98.5828 223.937 101.461L221.613 109.181C221.573 109.313 221.576 109.454 221.62 109.584C221.664 109.715 221.748 109.829 221.86 109.909L229.703 115.565Z" fill="#CFDAE1"/>
<path d="M250.607 87.6247C248.295 87.6289 246.065 86.7755 244.347 85.2296C242.629 83.6838 241.545 81.5554 241.306 79.2566C241.067 76.9578 241.689 74.6521 243.052 72.7857C244.416 70.9193 246.423 69.6251 248.685 69.1536C250.948 68.6821 253.305 69.0668 255.3 70.2332C257.295 71.3997 258.787 73.265 259.486 75.4679C260.185 77.6709 260.042 80.0548 259.084 82.1583C258.127 84.2618 256.423 85.9352 254.302 86.8545C253.136 87.3608 251.878 87.6229 250.607 87.6247ZM250.598 70.4429C249.432 70.4426 248.28 70.702 247.227 71.2024C246.173 71.7028 245.244 72.4316 244.508 73.3358C243.771 74.2401 243.246 75.2971 242.969 76.4299C242.692 77.5628 242.671 78.7431 242.907 79.8851C243.144 81.0272 243.631 82.1022 244.335 83.0321C245.039 83.962 245.941 84.7234 246.976 85.261C248.011 85.7986 249.153 86.0989 250.318 86.1401C251.484 86.1812 252.644 85.9622 253.714 85.4989C255.369 84.7806 256.727 83.5139 257.558 81.9121C258.389 80.3103 258.643 78.4711 258.278 76.7039C257.912 74.9367 256.949 73.3495 255.55 72.2092C254.151 71.0689 252.402 70.4451 250.598 70.4429Z" fill="#F1F5F7"/>
<path d="M250.676 102.193C250.528 102.193 250.367 102.193 250.212 102.193H249.894L249.618 102.182L249.479 102.175H249.451L249.526 100.697C251.132 100.778 252.743 100.689 254.33 100.431C254.604 100.386 254.875 100.337 255.143 100.283C265.963 98.1232 273.546 88.448 273.301 77.6317C273.277 76.5851 273.18 75.5414 273.012 74.5081C271.017 62.2106 259.389 53.8334 247.09 55.826C236.015 57.6236 228.115 67.2352 228.113 78.1106C228.116 83.4442 230 88.6059 233.435 92.6862L232.306 93.6396C228.65 89.2906 226.646 83.7917 226.646 78.1106C226.646 66.5226 235.061 56.2843 246.861 54.3685C259.962 52.2428 272.35 61.1684 274.477 74.2716C274.685 75.5497 274.79 76.8424 274.791 78.1372C274.791 89.7282 266.377 99.9724 254.574 101.888C253.285 102.094 251.981 102.196 250.676 102.193Z" fill="#F1F5F7"/>
<path d="M203.544 107.942C203.46 107.942 203.377 107.92 203.303 107.878C203.23 107.837 203.168 107.777 203.124 107.705C202.784 107.149 202.447 106.574 202.121 105.993C202.089 105.937 202.069 105.875 202.061 105.811C202.053 105.746 202.058 105.681 202.076 105.619C202.093 105.557 202.123 105.499 202.163 105.448C202.203 105.397 202.253 105.355 202.309 105.323C202.365 105.291 202.428 105.271 202.492 105.263C202.556 105.256 202.621 105.261 202.683 105.278C202.746 105.296 202.804 105.325 202.855 105.365C202.905 105.405 202.948 105.455 202.979 105.511C203.3 106.081 203.631 106.648 203.964 107.194C204.009 107.268 204.034 107.354 204.036 107.441C204.037 107.528 204.015 107.614 203.973 107.69C203.93 107.766 203.868 107.83 203.792 107.874C203.717 107.918 203.631 107.942 203.544 107.942Z" fill="#CFDAE1"/>
<path d="M300.921 56.3553C300.826 56.354 300.734 56.3254 300.656 56.2729C300.577 56.2205 300.515 56.1464 300.477 56.0597C300.204 55.4595 299.923 54.8667 299.639 54.2991C299.61 54.2409 299.593 54.1775 299.588 54.1125C299.584 54.0476 299.592 53.9823 299.612 53.9206C299.633 53.8588 299.665 53.8017 299.708 53.7525C299.751 53.7033 299.803 53.663 299.861 53.6339C299.919 53.6048 299.983 53.5874 300.048 53.5828C300.113 53.5782 300.178 53.5864 300.24 53.607C300.301 53.6276 300.358 53.6601 300.408 53.7028C300.457 53.7455 300.497 53.7974 300.526 53.8556C300.814 54.4336 301.101 55.0382 301.379 55.6487C301.406 55.7074 301.421 55.7708 301.423 55.8353C301.425 55.8998 301.415 55.9641 301.392 56.0245C301.369 56.0849 301.335 56.1403 301.291 56.1874C301.247 56.2345 301.194 56.2725 301.135 56.2991C301.069 56.3344 300.996 56.3536 300.921 56.3553Z" fill="#CFDAE1"/>
<path d="M231.465 130.958C231.406 130.958 231.348 130.947 231.293 130.927C230.654 130.688 230.034 130.444 229.445 130.2C229.328 130.147 229.236 130.051 229.188 129.932C229.141 129.813 229.142 129.68 229.191 129.562C229.24 129.443 229.333 129.348 229.451 129.298C229.569 129.247 229.702 129.245 229.822 129.291C230.4 129.53 231.005 129.771 231.637 130.005C231.746 130.045 231.836 130.122 231.893 130.222C231.95 130.323 231.97 130.44 231.95 130.554C231.929 130.667 231.869 130.77 231.781 130.844C231.692 130.918 231.58 130.958 231.465 130.958Z" fill="#CFDAE1"/>
<path d="M287.037 43.9053C286.929 43.9054 286.824 43.8699 286.738 43.8041C286.652 43.7383 286.59 43.6461 286.562 43.5417C286.361 42.8026 286.185 42.0427 286.037 41.2903C285.915 40.6591 285.808 40.0131 285.723 39.3686C285.705 39.2394 285.74 39.1087 285.819 39.0051C285.898 38.9016 286.015 38.8337 286.145 38.8165C286.274 38.7992 286.405 38.834 286.508 38.9131C286.612 38.9923 286.679 39.1093 286.697 39.2385C286.781 39.8653 286.884 40.4935 287.004 41.1041C287.152 41.8343 287.318 42.569 287.511 43.2874C287.528 43.3497 287.533 43.4148 287.525 43.4789C287.516 43.543 287.496 43.6048 287.464 43.6608C287.431 43.7168 287.388 43.766 287.337 43.8054C287.286 43.8448 287.228 43.8738 287.165 43.8906C287.123 43.902 287.08 43.907 287.037 43.9053ZM286.054 32.9855H286.011C285.882 32.9735 285.762 32.9108 285.679 32.811C285.596 32.7113 285.556 32.5827 285.567 32.4533C285.691 31.0358 285.91 29.6282 286.224 28.2403C286.257 28.1177 286.336 28.0126 286.445 27.947C286.554 27.8814 286.684 27.8605 286.808 27.8886C286.932 27.9166 287.04 27.9915 287.11 28.0976C287.18 28.2036 287.206 28.3327 287.183 28.4576C286.879 29.8022 286.667 31.1658 286.547 32.5391C286.535 32.6612 286.478 32.7745 286.387 32.8565C286.295 32.9386 286.176 32.9835 286.054 32.9825V32.9855ZM288.916 22.3998C288.844 22.3996 288.773 22.384 288.707 22.3539C288.649 22.3265 288.596 22.2877 288.553 22.2399C288.509 22.1921 288.475 22.1362 288.454 22.0753C288.432 22.0145 288.422 21.9499 288.425 21.8853C288.428 21.8208 288.444 21.7575 288.472 21.6991C289.078 20.4131 289.77 19.1691 290.542 17.9753C290.613 17.867 290.725 17.7912 290.852 17.7646C290.979 17.7379 291.111 17.7626 291.22 17.8332C291.329 17.9038 291.406 18.0145 291.434 18.1414C291.461 18.2682 291.438 18.4009 291.368 18.5105C290.618 19.6668 289.947 20.8723 289.359 22.1189C289.319 22.2021 289.256 22.2723 289.177 22.3214C289.099 22.3706 289.008 22.3967 288.916 22.3968V22.3998ZM295.256 13.4563C295.158 13.4561 295.063 13.4268 294.982 13.3724C294.901 13.3179 294.838 13.2406 294.802 13.1503C294.765 13.0601 294.755 12.9609 294.775 12.8653C294.794 12.7698 294.842 12.6822 294.911 12.6137C295.923 11.6151 297.001 10.6857 298.137 9.83166C298.241 9.75325 298.373 9.71955 298.502 9.73799C298.631 9.75642 298.748 9.82548 298.827 9.92996C298.905 10.0344 298.939 10.1658 298.92 10.2951C298.902 10.4245 298.833 10.5412 298.728 10.6196C297.627 11.444 296.583 12.3414 295.602 13.3055C295.557 13.3517 295.503 13.3886 295.443 13.4139C295.384 13.4393 295.32 13.4527 295.256 13.4534V13.4563ZM304.292 7.24768C304.18 7.2473 304.071 7.20855 303.984 7.13787C303.897 7.0672 303.836 6.96883 303.813 6.85908C303.789 6.74933 303.804 6.63481 303.854 6.53448C303.905 6.43416 303.988 6.35407 304.09 6.3075C305.385 5.72293 306.719 5.2261 308.081 4.82038C308.205 4.78762 308.336 4.80431 308.448 4.8669C308.56 4.9295 308.642 5.0331 308.679 5.15573C308.715 5.27837 308.703 5.41041 308.644 5.52386C308.584 5.63732 308.483 5.72327 308.362 5.76351C307.042 6.15731 305.75 6.63831 304.493 7.20332C304.43 7.23097 304.362 7.24507 304.292 7.24472V7.24768ZM314.92 4.55726C314.792 4.5566 314.671 4.50685 314.579 4.41842C314.488 4.32999 314.435 4.20972 314.43 4.08277C314.426 3.95581 314.47 3.832 314.555 3.73722C314.639 3.64244 314.757 3.58404 314.884 3.57422C316.302 3.46973 317.726 3.46133 319.146 3.54909C319.21 3.55307 319.274 3.56972 319.332 3.5981C319.39 3.62648 319.442 3.66603 319.485 3.71448C319.527 3.76294 319.56 3.81935 319.581 3.88051C319.602 3.94166 319.611 4.00637 319.607 4.07092C319.603 4.13547 319.586 4.19859 319.558 4.2567C319.53 4.31481 319.49 4.36677 319.442 4.4096C319.393 4.45243 319.337 4.48529 319.276 4.50631C319.214 4.52733 319.15 4.53611 319.085 4.53213C317.71 4.44757 316.331 4.45547 314.956 4.55578L314.92 4.55726Z" fill="#CFDAE1"/>
<path d="M327.722 6.31646C327.665 6.31586 327.609 6.30588 327.555 6.2869C326.952 6.0696 326.332 5.86856 325.715 5.69561C325.65 5.67953 325.59 5.65065 325.537 5.61071C325.484 5.57077 325.44 5.52059 325.407 5.46316C325.374 5.40574 325.353 5.34225 325.345 5.2765C325.337 5.21075 325.343 5.14409 325.361 5.08051C325.38 5.01693 325.411 4.95774 325.453 4.90648C325.495 4.85521 325.547 4.81295 325.605 4.78218C325.664 4.75142 325.728 4.7328 325.794 4.72744C325.86 4.72209 325.927 4.7301 325.989 4.75101C326.628 4.93579 327.267 5.14422 327.889 5.36891C327.998 5.4084 328.089 5.48491 328.147 5.58503C328.205 5.68515 328.226 5.80248 328.206 5.91642C328.186 6.03037 328.127 6.13366 328.038 6.20817C327.95 6.28267 327.838 6.32363 327.722 6.32386V6.31646Z" fill="#CFDAE1"/>
<path d="M345.93 23.5514C345.834 23.5521 345.74 23.5244 345.659 23.4718C345.578 23.4192 345.515 23.3441 345.477 23.2557C345.228 22.6644 344.958 22.0731 344.67 21.4966C344.64 21.4384 344.623 21.375 344.618 21.31C344.614 21.2451 344.622 21.1799 344.643 21.1181C344.663 21.0563 344.696 20.9992 344.738 20.95C344.781 20.9008 344.833 20.8605 344.891 20.8314C344.95 20.8023 345.013 20.7849 345.078 20.7803C345.143 20.7757 345.208 20.7839 345.27 20.8045C345.332 20.8251 345.389 20.8576 345.438 20.9003C345.487 20.943 345.527 20.9949 345.556 21.0531C345.852 21.6518 346.133 22.2623 346.39 22.8699C346.415 22.9295 346.428 22.9934 346.429 23.0581C346.429 23.1227 346.416 23.1868 346.392 23.2467C346.368 23.3065 346.332 23.361 346.286 23.4069C346.241 23.4528 346.187 23.4894 346.127 23.5144C346.065 23.5403 345.998 23.5529 345.93 23.5514Z" fill="#CFDAE1"/>
<path d="M317.13 66.9306C315.952 66.9298 314.774 66.8637 313.603 66.7325C313.539 66.7252 313.477 66.7054 313.42 66.674C313.363 66.6427 313.314 66.6006 313.273 66.55C313.233 66.4994 313.203 66.4414 313.185 66.3792C313.167 66.3171 313.162 66.252 313.169 66.1878C313.176 66.1235 313.196 66.0613 313.228 66.0047C313.259 65.9482 313.301 65.8983 313.352 65.858C313.402 65.8177 313.46 65.7878 313.522 65.7699C313.585 65.7521 313.65 65.7466 313.714 65.7539C315.061 65.9059 316.416 65.9676 317.772 65.9387H317.782C317.913 65.9375 318.038 65.9883 318.131 66.0797C318.225 66.1712 318.278 66.296 318.279 66.4265C318.28 66.5571 318.229 66.6827 318.138 66.7759C318.046 66.869 317.921 66.922 317.791 66.9232C317.571 66.9276 317.35 66.9306 317.13 66.9306ZM324.425 66.0688C324.304 66.0705 324.186 66.0271 324.095 65.9471C324.003 65.867 323.945 65.7559 323.931 65.6353C323.917 65.5146 323.948 65.393 324.018 65.294C324.088 65.195 324.193 65.1255 324.311 65.099C325.63 64.7839 326.926 64.383 328.192 63.8987C328.313 63.8533 328.448 63.8577 328.567 63.9112C328.685 63.9646 328.777 64.0626 328.824 64.1839C328.87 64.3052 328.867 64.4399 328.814 64.5587C328.762 64.6775 328.665 64.7708 328.544 64.8182C327.238 65.3176 325.9 65.731 324.541 66.0555C324.503 66.0641 324.464 66.0686 324.425 66.0688ZM334.33 61.7937C334.224 61.7942 334.12 61.7604 334.035 61.6973C333.95 61.6343 333.888 61.5454 333.857 61.4439C333.827 61.3425 333.83 61.2339 333.866 61.1344C333.903 61.0349 333.97 60.9498 334.059 60.8919C335.19 60.1465 336.27 59.3273 337.293 58.4395C337.393 58.3672 337.516 58.3347 337.638 58.3485C337.76 58.3623 337.873 58.4214 337.954 58.5141C338.035 58.6069 338.078 58.7265 338.075 58.8495C338.072 58.9725 338.023 59.0899 337.938 59.1787C336.882 60.0946 335.767 60.94 334.6 61.7094C334.519 61.7636 334.424 61.7924 334.327 61.7922L334.33 61.7937ZM342.173 54.4024C342.082 54.4019 341.993 54.3762 341.915 54.3281C341.838 54.2801 341.776 54.2116 341.735 54.1302C341.694 54.0488 341.676 53.9577 341.684 53.8669C341.692 53.7762 341.724 53.6893 341.778 53.616C342.591 52.5321 343.331 51.3963 343.996 50.216C344.026 50.1577 344.068 50.106 344.119 50.0641C344.17 50.0222 344.228 49.9909 344.291 49.9721C344.355 49.9533 344.421 49.9473 344.486 49.9546C344.552 49.9618 344.615 49.9821 344.672 50.0142C344.73 50.0464 344.78 50.0897 344.821 50.1417C344.861 50.1937 344.891 50.2532 344.908 50.3168C344.925 50.3804 344.929 50.4468 344.92 50.512C344.91 50.5772 344.888 50.6399 344.855 50.6965C344.171 51.9165 343.409 53.0908 342.572 54.2117C342.524 54.2723 342.463 54.321 342.393 54.3538C342.324 54.3867 342.247 54.4028 342.17 54.401L342.173 54.4024ZM347.051 44.7805C346.975 44.7801 346.899 44.7617 346.831 44.727C346.762 44.6923 346.703 44.6421 346.657 44.5804C346.611 44.5187 346.581 44.4472 346.568 44.3716C346.555 44.296 346.559 44.2184 346.581 44.1449C346.975 42.8475 347.284 41.5255 347.504 40.1876C347.527 40.0612 347.6 39.9492 347.705 39.8755C347.81 39.8018 347.94 39.7722 348.067 39.793C348.194 39.8139 348.308 39.8835 348.384 39.9871C348.46 40.0907 348.493 40.2199 348.475 40.3472C348.248 41.7282 347.93 43.0926 347.523 44.4316C347.491 44.533 347.427 44.6212 347.34 44.6832C347.254 44.7453 347.15 44.7779 347.044 44.7761L347.051 44.7805ZM348.354 34.0706C348.228 34.0707 348.107 34.0225 348.015 33.9358C347.924 33.8492 347.869 33.7307 347.863 33.6049C347.79 32.2516 347.628 30.9044 347.378 29.5723C347.354 29.4439 347.382 29.3111 347.455 29.2033C347.529 29.0955 347.643 29.0213 347.771 28.9972C347.9 28.9731 348.032 29.001 348.14 29.0747C348.248 29.1485 348.322 29.262 348.346 29.3904C348.602 30.7658 348.769 32.1563 348.846 33.5532C348.852 33.6834 348.807 33.811 348.72 33.9079C348.632 34.0048 348.51 34.0633 348.38 34.0706H348.354Z" fill="#CFDAE1"/>
<path d="M305.295 56.0536C305.359 56.0991 305.435 56.1235 305.513 56.1235C305.591 56.1235 305.667 56.0991 305.73 56.0536L309.457 53.4253C311.451 54.2553 313.567 54.7546 315.721 54.9035L317.878 58.9184C317.915 58.987 317.973 59.0424 318.043 59.0768C318.113 59.1112 318.191 59.1231 318.268 59.1106L323.668 58.2444C323.745 58.2317 323.816 58.1955 323.872 58.1406C323.927 58.0858 323.964 58.0151 323.977 57.9384L324.753 53.4474C326.749 52.6232 328.596 51.4793 330.223 50.0608L334.59 51.3764C334.665 51.398 334.746 51.3954 334.82 51.3689C334.894 51.3424 334.958 51.2933 335.002 51.2286L338.201 46.7938C338.246 46.7303 338.27 46.6544 338.27 46.5765C338.27 46.4987 338.246 46.4227 338.201 46.3592L335.573 42.6311C336.403 40.6375 336.902 38.522 337.051 36.3677L341.066 34.211C341.134 34.1739 341.19 34.1164 341.224 34.0465C341.259 33.9766 341.271 33.8977 341.258 33.8207L340.381 28.4207C340.369 28.3436 340.333 28.2723 340.278 28.2169C340.223 28.1615 340.152 28.1247 340.075 28.1117L335.585 27.3356C334.761 25.3404 333.617 23.4929 332.198 21.8661L333.514 17.4979C333.536 17.4233 333.534 17.3436 333.509 17.2699C333.484 17.1963 333.436 17.1323 333.373 17.0869L328.938 13.888C328.875 13.8429 328.799 13.8187 328.721 13.8187C328.643 13.8187 328.567 13.8429 328.504 13.888L324.776 16.5178C322.782 15.6873 320.667 15.188 318.512 15.0395L316.356 11.0246C316.318 10.956 316.261 10.9007 316.191 10.8663C316.121 10.8318 316.042 10.82 315.965 10.8325L310.565 11.7091C310.488 11.7213 310.417 11.7574 310.361 11.8123C310.306 11.8672 310.269 11.9381 310.256 12.0151L309.48 16.506C307.485 17.3298 305.638 18.4732 304.011 19.8912L299.644 18.577C299.569 18.5549 299.49 18.5564 299.416 18.5813C299.342 18.6061 299.278 18.6532 299.231 18.716L296.034 23.1507C295.989 23.2142 295.965 23.2901 295.965 23.368C295.965 23.4459 295.989 23.5218 296.034 23.5853L298.662 27.312C297.833 29.3061 297.333 31.4221 297.184 33.5768L293.169 35.7336C293.1 35.7702 293.044 35.8276 293.01 35.8976C292.975 35.9676 292.963 36.0467 292.976 36.1238L293.852 41.5239C293.865 41.6008 293.901 41.6718 293.956 41.7272C294.011 41.7825 294.081 41.8194 294.158 41.8328L298.651 42.6089C299.474 44.6039 300.618 46.4513 302.036 48.0784L300.722 52.4452C300.699 52.5199 300.701 52.5996 300.725 52.6735C300.75 52.7473 300.798 52.8117 300.861 52.8576L305.295 56.0536Z" fill="#CFDAE1"/>
<path d="M317.128 40.563C315.742 40.564 314.405 40.0508 313.376 39.1228C312.347 38.1948 311.699 36.9179 311.557 35.5394C311.415 34.1609 311.789 32.7787 312.608 31.6605C313.427 30.5423 314.631 29.7675 315.988 29.4862C317.345 29.2049 318.758 29.4369 319.953 30.1376C321.149 30.8382 322.042 31.9574 322.46 33.2787C322.878 34.6 322.791 36.0294 322.215 37.2901C321.64 38.5508 320.617 39.5532 319.345 40.1032C318.646 40.4068 317.891 40.5633 317.128 40.563ZM317.115 30.8523C316.503 30.8534 315.899 30.9905 315.348 31.2539C314.796 31.5173 314.309 31.9002 313.924 32.375C313.538 32.8497 313.263 33.4043 313.118 33.9986C312.974 34.5929 312.964 35.2119 313.088 35.8106C313.212 36.4094 313.469 36.973 313.838 37.4604C314.207 37.9479 314.681 38.347 315.223 38.6288C315.766 38.9105 316.365 39.0679 316.976 39.0895C317.587 39.1111 318.196 38.9964 318.757 38.7536C319.627 38.3772 320.341 37.712 320.778 36.8704C321.215 36.0288 321.348 35.0622 321.155 34.1338C320.962 33.2054 320.455 32.3719 319.719 31.7741C318.983 31.1763 318.063 30.8507 317.115 30.8523Z" fill="#F1F5F7"/>
<path d="M317.165 48.8086H316.908C316.76 48.8086 316.612 48.8086 316.465 48.7938L316.539 47.3156C317.425 47.3602 318.313 47.3106 319.189 47.1678C322.105 46.6943 324.757 45.201 326.675 42.9539C328.592 40.7069 329.649 37.8521 329.658 34.8983C329.658 34.2209 329.603 33.5447 329.494 32.8761C329.185 30.9819 328.444 29.1846 327.327 27.6243C326.209 26.0639 324.747 24.7826 323.053 23.8804C321.36 22.9781 319.48 22.4792 317.562 22.4225C315.644 22.3659 313.739 22.753 311.995 23.5538C310.25 24.3545 308.715 25.5472 307.508 27.039C306.3 28.5307 305.454 30.2811 305.034 32.1537C304.615 34.0263 304.633 35.9706 305.088 37.8349C305.544 39.6991 306.423 41.4331 307.659 42.9016L306.531 43.855C305.147 42.2128 304.162 40.2731 303.651 38.1873C303.141 36.1015 303.119 33.926 303.588 31.8304C304.057 29.7349 305.004 27.776 306.354 26.1065C307.705 24.437 309.423 23.1021 311.374 22.2059C313.325 21.3097 315.457 20.8765 317.604 20.9399C319.75 21.0034 321.853 21.5619 323.748 22.5718C325.643 23.5817 327.279 25.0158 328.529 26.7622C329.778 28.5085 330.607 30.52 330.951 32.6395C331.072 33.3874 331.134 34.1437 331.135 34.9013C331.126 38.206 329.944 41.4002 327.799 43.9147C325.655 46.4292 322.687 48.1007 319.426 48.6312H319.399C318.66 48.7495 317.913 48.8088 317.165 48.8086Z" fill="#F1F5F7"/>
<path d="M290.497 51.953C290.413 51.9535 290.33 51.932 290.256 51.8908C290.183 51.8496 290.121 51.7901 290.077 51.718C289.733 51.1547 289.402 50.5694 289.091 49.9795C289.031 49.8635 289.019 49.7281 289.058 49.6032C289.097 49.4783 289.184 49.3742 289.3 49.3136C289.416 49.253 289.552 49.241 289.677 49.2803C289.802 49.3195 289.906 49.4067 289.966 49.5228C290.262 50.0948 290.589 50.661 290.921 51.2065C290.967 51.281 290.992 51.3664 290.994 51.4538C290.996 51.5413 290.974 51.6276 290.931 51.7039C290.888 51.7802 290.826 51.8436 290.75 51.8877C290.675 51.9318 290.589 51.9548 290.501 51.9545L290.497 51.953Z" fill="#CFDAE1"/>
<path d="M307.097 65.2616C307.043 65.2624 306.989 65.2534 306.939 65.2349C306.304 65.0191 305.675 64.7812 305.069 64.5299C305.007 64.5063 304.951 64.4707 304.904 64.4251C304.857 64.3795 304.819 64.3249 304.793 64.2645C304.767 64.2041 304.753 64.1391 304.753 64.0734C304.753 64.0077 304.765 63.9425 304.79 63.8818C304.816 63.8211 304.853 63.7661 304.9 63.7199C304.946 63.6737 305.002 63.6374 305.063 63.6131C305.124 63.5888 305.189 63.5769 305.255 63.5782C305.321 63.5795 305.386 63.594 305.446 63.6208C306.037 63.8647 306.643 64.0938 307.256 64.3052C307.367 64.3421 307.462 64.4174 307.522 64.5176C307.582 64.6178 307.605 64.7363 307.586 64.8516C307.566 64.967 307.506 65.0717 307.417 65.1468C307.327 65.222 307.214 65.2627 307.097 65.2616Z" fill="#CFDAE1"/>
<path d="M74.5088 8C74.2856 8 74.0636 8 73.8404 8C40.1772 8 12.8877 35.5878 12.8877 69.6199H74.5088V8Z" fill="#E0E7EC"/>
<path d="M74.4756 69.6375L108.006 17.8356C98.3272 11.6292 87.0987 8.2686 75.6019 8.13745C75.2249 8.13745 74.8502 8.13745 74.4756 8.13745V69.6375Z" fill="#CFDAE1"/>
<path d="M74.4756 69.6376L136.066 72.3802C136.084 71.994 136.099 71.6078 136.108 71.2239C136.686 48.8534 125.274 28.9575 107.714 17.7041L74.4756 69.6376Z" fill="#ACBEC7"/>
<path d="M67.8692 75.8052L7.03798 73.6833C6.05047 102.067 24.4235 126.63 50.2987 134.671L68.171 76.2227C68.1845 76.175 68.187 76.1249 68.1784 76.0761C68.1698 76.0273 68.1502 75.9811 68.1212 75.9409C68.0921 75.9007 68.0544 75.8677 68.0107 75.8442C67.9671 75.8207 67.9187 75.8074 67.8692 75.8052Z" fill="#9000FF"/>
<path d="M74.4756 69.6375L57.7676 128.786C62.9399 130.314 67.4415 130.908 73.0936 131.019C99.4638 131.535 122.284 115.408 131.53 92.2817L74.4756 69.6375Z" fill="#180A33"/>
<path d="M131.588 92.831C134.259 86.2987 135.785 79.3551 136.098 72.3049L74.4756 69.6375L131.588 92.831Z" fill="#4A5365"/>
<path d="M88.3439 295.197C88.3439 294.348 86.5724 293.515 84.7708 293.515H59.0378C57.2362 293.515 55.6289 294.348 55.6289 295.197V347.348C55.6289 348.197 57.2362 349.325 59.0378 349.325H84.772C86.5736 349.325 88.3451 348.197 88.3451 347.348L88.3439 295.197Z" fill="#CFDAE1"/>
<path d="M191.011 221.541H165.3C163.499 221.541 162 223.176 162 225.143V345.669C162 347.635 163.503 349.709 165.3 349.709H191.011C192.814 349.709 195.101 347.636 195.101 345.669V225.143C195.101 223.177 192.814 221.541 191.011 221.541Z" fill="#CFDAE1"/>
<path d="M137.683 195.753H112.263C110.461 195.753 109 197.214 109 199.017V346.061C109 347.863 110.461 349.324 112.263 349.324H137.683C139.485 349.324 140.946 347.863 140.946 346.061V199.017C140.946 197.214 139.485 195.753 137.683 195.753Z" fill="#CFDAE1"/>
<path d="M354.713 135.691C354.713 133.796 352.889 132.247 351.088 132.247H325.353C323.552 132.247 322 133.796 322 135.691V345.576C322 347.47 323.554 349.324 325.353 349.324H351.088C352.889 349.324 354.713 347.474 354.713 345.576V135.691Z" fill="#9000FF"/>
<path d="M244.683 171.505H219.263C217.461 171.505 216 172.966 216 174.768V346.061C216 347.863 217.461 349.324 219.263 349.324H244.683C246.485 349.324 247.946 347.863 247.946 346.061V174.768C247.946 172.966 246.485 171.505 244.683 171.505Z" fill="#180A33"/>
<path d="M297.683 143.408H272.263C270.461 143.408 269 144.869 269 146.672V346.446C269 348.248 270.461 349.709 272.263 349.709H297.683C299.485 349.709 300.946 348.248 300.946 346.446V146.672C300.946 144.869 299.485 143.408 297.683 143.408Z" fill="#9000FF"/>
<path d="M137.438 146.179L136.884 145.165L186.395 118.114L232.511 138.385L282.792 94.0761L334 71L334.587 71.9945L283.5 95L232.762 139.756L232.404 139.599L186.45 119.399L137.438 146.179Z" fill="#4A5365"/>
<path d="M139.539 150.461C142.174 149.144 143.242 145.94 141.925 143.306C140.608 140.671 137.405 139.603 134.77 140.92C132.136 142.237 131.068 145.441 132.385 148.075C133.702 150.71 136.905 151.778 139.539 150.461Z" fill="#4A5365"/>
<path d="M191.504 120.388C192.402 117.583 190.857 114.581 188.053 113.682C185.248 112.783 182.245 114.328 181.346 117.133C180.447 119.937 181.993 122.94 184.797 123.839C187.602 124.738 190.605 123.193 191.504 120.388Z" fill="#4A5365"/>
<path d="M236.408 141.826C238.49 139.743 238.49 136.367 236.408 134.284C234.325 132.201 230.948 132.201 228.866 134.284C226.783 136.367 226.783 139.743 228.866 141.826C230.948 143.909 234.325 143.909 236.408 141.826Z" fill="#4A5365"/>
<path d="M283.333 99.666C286.278 99.666 288.666 97.2783 288.666 94.333C288.666 91.3877 286.278 89 283.333 89C280.388 89 278 91.3877 278 94.333C278 97.2783 280.388 99.666 283.333 99.666Z" fill="#4A5365"/>
<path d="M338.313 75.313C340.396 73.2303 340.396 69.8537 338.313 67.771C336.23 65.6883 332.854 65.6883 330.771 67.771C328.688 69.8537 328.688 73.2303 330.771 75.313C332.854 77.3957 336.23 77.3957 338.313 75.313Z" fill="#4A5365"/>
<rect y="349" width="410" height="1" fill="#4A5365"/>
</svg>
