<svg width="116" height="116" viewBox="0 0 116 116" fill="none" xmlns="http://www.w3.org/2000/svg">
<path d="M58 116C90.0325 116 116 90.7891 116 59.6896C116 28.5901 90.0325 3.37891 58 3.37891C25.9675 3.37891 0 28.5901 0 59.6896C0 90.7891 25.9675 116 58 116Z" fill="#C970E7"/>
<mask id="mask0_5660_15610" style="mask-type:alpha" maskUnits="userSpaceOnUse" x="0" y="3" width="116" height="113">
<path d="M58 116C90.0325 116 116 90.7891 116 59.6896C116 28.5901 90.0325 3.37891 58 3.37891C25.9675 3.37891 0 28.5901 0 59.6896C0 90.7891 25.9675 116 58 116Z" fill="#C970E7"/>
</mask>
<g mask="url(#mask0_5660_15610)">
<rect x="14" y="36" width="88" height="86.1474" rx="4" fill="white"/>
<rect x="18" y="40" width="80" height="77.2093" rx="3" fill="#CFDAE1"/>
<path d="M19.6849 40L26.7586 64.4527M42.1695 117L26.7586 64.4527M26.7586 64.4527L100.425 43.1216M45.2356 40L67.2093 117M14.5747 103.473L83.5618 81.1014M83.5618 81.1014L92.7601 110.757M83.5618 81.1014L71.8084 40" stroke="white" stroke-width="3.54023"/>
</g>
<g clip-path="url(#clip0_5660_15610)">
<path fill-rule="evenodd" clip-rule="evenodd" d="M41.8252 31.3966C42.7045 22.3191 48.8429 16 57.5 16C66.1571 16 72.7388 22.1145 73.5878 31.3966C74.2356 38.4796 70.1513 45.0666 66.575 51.25C64.2347 55.2963 60.7997 59.7586 59.5625 60.9741C58.3253 62.1897 57.0509 62.4484 55.85 60.9741C54.6492 59.4999 51.1416 55.3163 48.8375 51.25C45.3436 45.0839 41.1446 38.4216 41.8252 31.3966Z" fill="#9000FF"/>
<ellipse cx="57.9125" cy="32.2069" rx="11.9625" ry="12.1552" fill="white"/>
<path d="M45.95 32.2069C45.95 38.92 51.3057 44.3621 57.9125 44.3621V20.0518C51.3057 20.0518 45.95 25.4938 45.95 32.2069Z" fill="#EFEFEF"/>
<ellipse cx="57.5" cy="63.5" rx="2.5" ry="0.5" fill="#A0A0A0"/>
</g>
<defs>
<clipPath id="clip0_5660_15610">
<rect width="33" height="48" fill="white" transform="translate(41 16)"/>
</clipPath>
</defs>
</svg>
