<svg width="80" height="35" viewBox="0 0 80 35" fill="none" xmlns="http://www.w3.org/2000/svg">
<path fill-rule="evenodd" clip-rule="evenodd" d="M18.052 34.2253L18.5606 33.6276C19.0213 34.0217 19.4824 34.2456 20.0801 34.2456C20.6027 34.2456 20.9327 34.0077 20.9327 33.6479V33.6343C20.9327 33.2948 20.7401 33.1111 19.8464 32.9074C18.8219 32.6627 18.2446 32.3639 18.2446 31.4875V31.4736C18.2446 30.6586 18.9322 30.0947 19.8875 30.0947C20.5891 30.0947 21.1457 30.3051 21.6339 30.6925L21.1805 31.3241C20.7469 31.0049 20.3138 30.8352 19.8739 30.8352C19.3789 30.8352 19.0904 31.0866 19.0904 31.3991V31.4126C19.0904 31.7796 19.3102 31.9426 20.2315 32.1602C21.2492 32.4045 21.7786 32.7648 21.7786 33.5526V33.5662C21.7786 34.4565 21.0702 34.9865 20.0593 34.9865C19.3242 34.9865 18.6298 34.735 18.052 34.2253" fill="#180A33"/>
<path fill-rule="evenodd" clip-rule="evenodd" d="M26.2209 30.1631H29.7893V30.9107H27.0664V32.1469H29.4796V32.8941H27.0664V34.1718H29.8236V34.919H26.2209V30.1631Z" fill="#180A33"/>
<path fill-rule="evenodd" clip-rule="evenodd" d="M34.0603 32.5542V32.5407C34.0603 31.2093 35.0915 30.0811 36.5423 30.0811C37.3809 30.0811 37.8967 30.3122 38.3918 30.7267L37.8552 31.3587C37.484 31.0463 37.12 30.849 36.5079 30.849C35.6209 30.849 34.9473 31.6165 34.9473 32.5272V32.5407C34.9473 33.5191 35.6001 34.2392 36.5834 34.2392C37.0373 34.2392 37.4501 34.0965 37.7457 33.8793V32.989H36.5147V32.2621H38.5636V34.2595C38.0889 34.6604 37.4085 34.9999 36.5559 34.9999C35.0504 34.9999 34.0603 33.9403 34.0603 32.5542" fill="#180A33"/>
<path fill-rule="evenodd" clip-rule="evenodd" d="M43.0337 32.9009V30.1631H43.8795V32.867C43.8795 33.7501 44.3402 34.2255 45.0966 34.2255C45.8461 34.2255 46.3068 33.7772 46.3068 32.9009V30.1631H47.1522V32.8602C47.1522 34.2801 46.3407 34.9935 45.0826 34.9935C43.8316 34.9935 43.0337 34.2801 43.0337 32.9009" fill="#180A33"/>
<path fill-rule="evenodd" clip-rule="evenodd" d="M53.8432 32.5207C54.4481 32.5207 54.8333 32.2083 54.8333 31.7257V31.7121C54.8333 31.2028 54.4617 30.9243 53.836 30.9243H52.6054V32.5207H53.8432ZM51.76 30.1631H53.9047C54.5101 30.1631 54.9843 30.34 55.294 30.6389C55.5481 30.8967 55.6927 31.2502 55.6927 31.6647V31.6782C55.6927 32.4597 55.2181 32.9284 54.5444 33.1185L55.8438 34.919H54.8469L53.6642 33.2611H53.6507H52.6054V34.919H51.76V30.1631Z" fill="#180A33"/>
<path fill-rule="evenodd" clip-rule="evenodd" d="M64.1092 32.5542V32.5407C64.1092 31.6165 63.4284 30.849 62.4727 30.849C61.517 30.849 60.8501 31.603 60.8501 32.5272V32.5407C60.8501 33.4649 61.5305 34.2324 62.4863 34.2324C63.4424 34.2324 64.1092 33.4784 64.1092 32.5542M59.9631 32.5542V32.5407C59.9631 31.2025 61.0084 30.0811 62.4863 30.0811C63.9646 30.0811 64.9962 31.189 64.9962 32.5272V32.5407C64.9962 33.8793 63.951 34.9999 62.4727 34.9999C60.9944 34.9999 59.9631 33.8929 59.9631 32.5542" fill="#180A33"/>
<path fill-rule="evenodd" clip-rule="evenodd" d="M69.1099 34.2253L69.6185 33.6276C70.0792 34.0217 70.5403 34.2456 71.1379 34.2456C71.6606 34.2456 71.9906 34.0077 71.9906 33.6479V33.6343C71.9906 33.2948 71.798 33.1111 70.9042 32.9074C69.8798 32.6627 69.3024 32.3639 69.3024 31.4875V31.4736C69.3024 30.6586 69.9901 30.0947 70.9454 30.0947C71.647 30.0947 72.2035 30.3051 72.6918 30.6925L72.2383 31.3241C71.8048 31.0049 71.3717 30.8352 70.9318 30.8352C70.4367 30.8352 70.1483 31.0866 70.1483 31.3991V31.4126C70.1483 31.7796 70.368 31.9426 71.2894 32.1602C72.307 32.4045 72.8364 32.7648 72.8364 33.5526V33.5662C72.8364 34.4565 72.128 34.9865 71.1172 34.9865C70.382 34.9865 69.6876 34.735 69.1099 34.2253" fill="#180A33"/>
<path fill-rule="evenodd" clip-rule="evenodd" d="M5.71435 28.0061C5.71435 30.0022 4.92874 30.7151 2.7857 30.7151H0V34.8495H2.07135C7.46416 34.8495 9.92874 32.5681 9.92874 27.543V9.93555H5.71435V28.0061Z" fill="#180A33"/>
<path fill-rule="evenodd" clip-rule="evenodd" d="M24.6425 19.7013C24.6425 21.9823 23.2138 23.4793 21.1781 23.4793C19.1424 23.4793 17.6785 21.9823 17.6785 19.7013V9.93555H13.4641V19.024C13.4641 21.2338 13.6783 22.9446 14.9284 24.5486C16.4284 26.4732 18.714 27.5781 21.1781 27.5781C25.6784 27.5781 28.8569 24.5131 28.8569 19.024V9.93555H24.6425V19.7013Z" fill="#180A33"/>
<path fill-rule="evenodd" clip-rule="evenodd" d="M39.8568 9.61426C35.357 9.61426 32.1428 12.6797 32.1428 18.1684V27.2572H36.3568V17.4555C36.3568 15.1745 37.8211 13.7131 39.8568 13.7131C41.8926 13.7131 43.3208 15.1745 43.3208 17.4555V27.2572H47.5352V18.1684C47.5352 15.9585 47.321 14.2478 46.0709 12.6442C44.5709 10.7192 42.321 9.61426 39.8568 9.61426" fill="#180A33"/>
<path fill-rule="evenodd" clip-rule="evenodd" d="M55.1783 5.4082H50.9639V19.9502C50.9639 24.9757 53.4641 27.2567 58.8569 27.2567H60.0353V23.1223H58.1425C55.9999 23.1223 55.1783 22.4094 55.1783 20.4137V14.0695H60.0353V9.93463H55.1783V5.4082Z" fill="#180A33"/>
<path fill-rule="evenodd" clip-rule="evenodd" d="M71.033 23.3981C68.358 23.3981 66.1895 21.234 66.1895 18.5644C66.1895 15.8947 68.358 13.7306 71.033 13.7306C73.708 13.7306 75.8765 15.8947 75.8765 18.5644C75.8765 21.234 73.708 23.3981 71.033 23.3981M71.033 9.61523C66.0805 9.61523 62.0659 13.6222 62.0659 18.5644C62.0659 23.5069 66.0805 27.5135 71.033 27.5135C75.9855 27.5135 80.0001 23.5069 80.0001 18.5644C80.0001 13.6222 75.9855 9.61523 71.033 9.61523" fill="#180A33"/>
<path fill-rule="evenodd" clip-rule="evenodd" d="M8.72781 1.98973C8.73078 1.9457 8.73459 1.9021 8.73459 1.85722C8.73459 0.831454 7.90105 0 6.87322 0C5.92387 0 5.1425 0.70953 5.02796 1.62608C3.90045 1.82336 3.04272 2.8034 3.04272 3.98497C3.04272 5.2622 4.04383 6.30279 5.30497 6.37561C5.828 7.23119 6.76929 7.80398 7.84718 7.80398C9.49263 7.80398 10.8263 6.47298 10.8263 4.83081C10.8263 3.49473 9.94313 2.36439 8.72781 1.98973" fill="white"/>
<path fill-rule="evenodd" clip-rule="evenodd" d="M6.87334 0C5.92399 0 5.14219 0.709953 5.02808 1.62608C5.01875 1.70228 5.01196 1.7789 5.01196 1.85765C5.01196 2.31698 5.18037 2.73652 5.45737 3.0608C5.79842 3.46086 6.30576 3.71487 6.87334 3.71487C7.20718 3.71487 7.51981 3.62597 7.79087 3.47229C8.31773 3.17383 8.68296 2.62645 8.72792 1.98973C8.73089 1.9457 8.73471 1.9021 8.73471 1.85765C8.73471 0.831454 7.90117 0 6.87334 0" fill="#7E6AAF"/>
<path fill-rule="evenodd" clip-rule="evenodd" d="M8.72786 1.98993C8.44959 1.90399 8.15393 1.85742 7.84723 1.85742C7.49303 1.85742 7.15452 1.92262 6.83934 2.03565C6.2828 2.23589 5.80388 2.59574 5.45731 3.061C5.08868 3.55589 4.86768 4.1672 4.86768 4.83101C4.86768 5.39745 5.02929 5.92494 5.30502 6.3758C5.82806 7.23139 6.76935 7.80418 7.84723 7.80418C9.49269 7.80418 10.8264 6.47317 10.8264 4.83101C10.8264 3.49493 9.94319 2.36459 8.72786 1.98993" fill="#49C2C6"/>
<path fill-rule="evenodd" clip-rule="evenodd" d="M6.8396 2.03565C7.31555 2.37518 7.66212 2.88277 7.79065 3.47249C8.3175 3.17361 8.68273 2.62622 8.72812 1.98993C8.44943 1.90399 8.15376 1.85742 7.84749 1.85742C7.49286 1.85742 7.15478 1.92262 6.8396 2.03565" fill="#3B5AA9"/>
<path fill-rule="evenodd" clip-rule="evenodd" d="M7.79076 3.47263C7.6618 2.88291 7.31524 2.37532 6.83971 2.03579C6.44606 1.75511 5.96544 1.58789 5.44495 1.58789C5.30242 1.58789 5.16371 1.60271 5.02797 1.62642C3.90045 1.82369 3.04272 2.80374 3.04272 3.9853C3.04272 5.26254 4.04383 6.30313 5.30497 6.37595C5.35163 6.37849 5.39787 6.38272 5.44495 6.38272C6.77184 6.38272 7.84718 5.30953 7.84718 3.9853C7.84718 3.80919 7.82682 3.63816 7.79076 3.47263" fill="#9695C9"/>
<path fill-rule="evenodd" clip-rule="evenodd" d="M5.45719 3.06114C5.80376 2.59546 6.28267 2.23561 6.83964 2.03579C6.44599 1.75511 5.96538 1.58789 5.44489 1.58789C5.30236 1.58789 5.16365 1.60271 5.0279 1.62642C5.01857 1.70219 5.01221 1.77924 5.01221 1.85756C5.01221 2.31732 5.18019 2.73685 5.45719 3.06114" fill="#5C5CA8"/>
<path fill-rule="evenodd" clip-rule="evenodd" d="M7.8473 3.98569C7.8473 3.80958 7.82694 3.63812 7.79088 3.47302C7.51982 3.62669 7.20718 3.71559 6.87334 3.71559C6.30577 3.71559 5.79885 3.46116 5.45737 3.06152C5.08875 3.55642 4.86816 4.16731 4.86816 4.83154C4.86816 5.39798 5.02978 5.92547 5.30509 6.37591C5.35175 6.37887 5.39799 6.3831 5.44507 6.3831C6.77196 6.3831 7.8473 5.30992 7.8473 3.98569" fill="#0F7AC0"/>
<path fill-rule="evenodd" clip-rule="evenodd" d="M6.83949 2.03516C6.28252 2.2354 5.80402 2.59482 5.45703 3.0605C5.79851 3.46014 6.30585 3.71457 6.87342 3.71457C7.20727 3.71457 7.5199 3.62567 7.79054 3.472C7.662 2.88227 7.31544 2.37468 6.83949 2.03516" fill="#3C4CA0"/>
</svg>
