<svg width="116" height="116" viewBox="0 0 116 116" fill="none" xmlns="http://www.w3.org/2000/svg">
<path d="M58 116C90.0325 116 116 90.7891 116 59.6896C116 28.5901 90.0325 3.37891 58 3.37891C25.9675 3.37891 0 28.5901 0 59.6896C0 90.7891 25.9675 116 58 116Z" fill="#9000FF"/>
<mask id="mask0_5660_15586" style="mask-type:alpha" maskUnits="userSpaceOnUse" x="0" y="3" width="116" height="113">
<path d="M58 116C90.0325 116 116 90.7891 116 59.6896C116 28.5901 90.0325 3.37891 58 3.37891C25.9675 3.37891 0 28.5901 0 59.6896C0 90.7891 25.9675 116 58 116Z" fill="#9000FF"/>
</mask>
<g mask="url(#mask0_5660_15586)">
<path d="M91.0526 37.4209V122.499C78.8877 130.305 64.1729 133.097 49.9941 130.291C35.8153 127.484 23.2739 119.297 15 107.445V37.4209C15 36.2345 15.4713 35.0966 16.3103 34.2576C17.1493 33.4186 18.2872 32.9473 19.4737 32.9473H86.5789C87.7654 32.9473 88.9033 33.4186 89.7423 34.2576C90.5813 35.0966 91.0526 36.2345 91.0526 37.4209Z" fill="#C1CED7"/>
<path d="M99.9999 37.4211V115.364C96.262 119.036 92.0265 122.165 87.4176 124.658H34.2927C30.5811 122.655 27.1102 120.234 23.9473 117.444V28.4737C23.9473 27.2872 24.4186 26.1493 25.2576 25.3103C26.0966 24.4713 27.2345 24 28.4209 24H86.5788L99.9999 37.4211Z" fill="white"/>
<path d="M92.2955 31H62.7045C62.3154 31 62 31.4797 62 32.0714V44.9286C62 45.5203 62.3154 46 62.7045 46H92.2955C92.6846 46 93 45.5203 93 44.9286V32.0714C93 31.4797 92.6846 31 92.2955 31Z" fill="#CFDAE1"/>
<path d="M92.4464 53.2368H62.5536C62.4068 53.2368 62.266 53.119 62.1621 52.9093C62.0583 52.6995 62 52.415 62 52.1184C62 51.8218 62.0583 51.5373 62.1621 51.3276C62.266 51.1178 62.4068 51 62.5536 51H92.4464C92.5932 51 92.734 51.1178 92.8379 51.3276C92.9417 51.5373 93 51.8218 93 52.1184C93 52.415 92.9417 52.6995 92.8379 52.9093C92.734 53.119 92.5932 53.2368 92.4464 53.2368Z" fill="#CFDAE1"/>
<path d="M92.1044 59.7896H62.2115C62.0647 59.7896 61.9239 59.6717 61.8201 59.462C61.7163 59.2523 61.658 58.9678 61.658 58.6712C61.658 58.3745 61.7163 58.0901 61.8201 57.8803C61.9239 57.6706 62.0647 57.5527 62.2115 57.5527H92.1044C92.2512 57.5527 92.392 57.6706 92.4958 57.8803C92.5996 58.0901 92.658 58.3745 92.658 58.6712C92.658 58.9678 92.5996 59.2523 92.4958 59.462C92.392 59.6717 92.2512 59.7896 92.1044 59.7896Z" fill="#CFDAE1"/>
<path d="M92.1711 66.5005H31.7764C31.4798 66.5005 31.1953 66.3827 30.9855 66.1729C30.7758 65.9632 30.658 65.6787 30.658 65.3821C30.658 65.0855 30.7758 64.801 30.9855 64.5912C31.1953 64.3815 31.4798 64.2637 31.7764 64.2637H92.1711C92.4677 64.2637 92.7522 64.3815 92.962 64.5912C93.1717 64.801 93.2895 65.0855 93.2895 65.3821C93.2895 65.6787 93.1717 65.9632 92.962 66.1729C92.7522 66.3827 92.4677 66.5005 92.1711 66.5005Z" fill="#CFDAE1"/>
<path d="M92.1711 73.2105H31.7764C31.4798 73.2105 31.1953 73.0926 30.9855 72.8829C30.7758 72.6732 30.658 72.3887 30.658 72.0921C30.658 71.7954 30.7758 71.511 30.9855 71.3012C31.1953 71.0915 31.4798 70.9736 31.7764 70.9736H92.1711C92.4677 70.9736 92.7522 71.0915 92.962 71.3012C93.1717 71.511 93.2895 71.7954 93.2895 72.0921C93.2895 72.3887 93.1717 72.6732 92.962 72.8829C92.7522 73.0926 92.4677 73.2105 92.1711 73.2105Z" fill="#CFDAE1"/>
<path d="M92.1711 79.9214H31.7764C31.4798 79.9214 31.1953 79.8036 30.9855 79.5938C30.7758 79.3841 30.658 79.0996 30.658 78.803C30.658 78.5064 30.7758 78.2219 30.9855 78.0121C31.1953 77.8024 31.4798 77.6846 31.7764 77.6846H92.1711C92.4677 77.6846 92.7522 77.8024 92.962 78.0121C93.1717 78.2219 93.2895 78.5064 93.2895 78.803C93.2895 79.0996 93.1717 79.3841 92.962 79.5938C92.7522 79.8036 92.4677 79.9214 92.1711 79.9214Z" fill="#CFDAE1"/>
<path d="M92.1711 86.6314H31.7764C31.4798 86.6314 31.1953 86.5135 30.9855 86.3038C30.7758 86.0941 30.658 85.8096 30.658 85.513C30.658 85.2163 30.7758 84.9319 30.9855 84.7221C31.1953 84.5124 31.4798 84.3945 31.7764 84.3945H92.1711C92.4677 84.3945 92.7522 84.5124 92.962 84.7221C93.1717 84.9319 93.2895 85.2163 93.2895 85.513C93.2895 85.8096 93.1717 86.0941 92.962 86.3038C92.7522 86.5135 92.4677 86.6314 92.1711 86.6314Z" fill="#CFDAE1"/>
<path d="M92.1711 93.3423H31.7764C31.4798 93.3423 31.1953 93.2245 30.9855 93.0147C30.7758 92.805 30.658 92.5205 30.658 92.2239C30.658 91.9273 30.7758 91.6428 30.9855 91.433C31.1953 91.2233 31.4798 91.1055 31.7764 91.1055H92.1711C92.4677 91.1055 92.7522 91.2233 92.962 91.433C93.1717 91.6428 93.2895 91.9273 93.2895 92.2239C93.2895 92.5205 93.1717 92.805 92.962 93.0147C92.7522 93.2245 92.4677 93.3423 92.1711 93.3423Z" fill="#CFDAE1"/>
<path d="M92.1711 100.053H31.7764C31.4798 100.053 31.1953 99.9354 30.9855 99.7257C30.7758 99.5159 30.658 99.2315 30.658 98.9348C30.658 98.6382 30.7758 98.3537 30.9855 98.144C31.1953 97.9342 31.4798 97.8164 31.7764 97.8164H92.1711C92.4677 97.8164 92.7522 97.9342 92.962 98.144C93.1717 98.3537 93.2895 98.6382 93.2895 98.9348C93.2895 99.2315 93.1717 99.5159 92.962 99.7257C92.7522 99.9354 92.4677 100.053 92.1711 100.053Z" fill="#CFDAE1"/>
<path d="M92.1711 106.763H31.7764C31.4798 106.763 31.1953 106.645 30.9855 106.436C30.7758 106.226 30.658 105.941 30.658 105.645C30.658 105.348 30.7758 105.064 30.9855 104.854C31.1953 104.644 31.4798 104.526 31.7764 104.526H92.1711C92.4677 104.526 92.7522 104.644 92.962 104.854C93.1717 105.064 93.2895 105.348 93.2895 105.645C93.2895 105.941 93.1717 106.226 92.962 106.436C92.7522 106.645 92.4677 106.763 92.1711 106.763Z" fill="#CFDAE1"/>
<path d="M65.329 113.474H31.7764C31.4798 113.474 31.1953 113.356 30.9855 113.147C30.7758 112.937 30.658 112.652 30.658 112.356C30.658 112.059 30.7758 111.775 30.9855 111.565C31.1953 111.355 31.4798 111.237 31.7764 111.237H65.329C65.6256 111.237 65.9101 111.355 66.1199 111.565C66.3296 111.775 66.4474 112.059 66.4474 112.356C66.4474 112.652 66.3296 112.937 66.1199 113.147C65.9101 113.356 65.6256 113.474 65.329 113.474Z" fill="#CFDAE1"/>
<path d="M99.9999 37.4211H89.9341C89.0442 37.4211 88.1908 37.0676 87.5616 36.4383C86.9324 35.8091 86.5789 34.9557 86.5789 34.0658V24L99.9999 37.4211Z" fill="#C1CED7"/>
<rect x="30.926" y="31" width="27.7778" height="30" rx="1.11111" fill="#ACBEC7"/>
<rect x="33.5557" y="34.1484" width="22.5185" height="23.7037" rx="1.18519" fill="#F1F5F7"/>
<path d="M33.5557 35.3336C33.5557 34.6791 34.0863 34.1484 34.7408 34.1484H38.889V57.8521H34.7409C34.0863 57.8521 33.5557 57.3215 33.5557 56.667V35.3336Z" fill="#C6D2D9"/>
<rect x="40.5623" y="37" width="7.91246" height="8.43996" rx="3.95623" fill="#4A5365"/>
<path d="M37.3972 51.7701C37.3972 48.8568 39.7589 46.4951 42.6722 46.4951H46.3647C49.278 46.4951 51.6397 48.8568 51.6397 51.7701V52.8251C51.6397 53.6991 50.9311 54.4076 50.0572 54.4076H38.9797C38.1057 54.4076 37.3972 53.6991 37.3972 52.8251V51.7701Z" fill="#4A5365"/>
</g>
</svg>
