<svg width="180" height="19" viewBox="0 0 180 19" fill="none" xmlns="http://www.w3.org/2000/svg">
<path d="M39.3674 17.9972V1.05945H42.5756L48.2507 10.1544L53.9909 1.05945H57.1114V17.9972H54.1161V5.74092L48.2231 15.1244L42.3527 5.7641V17.9972H39.3674Z" fill="#002C77"/>
<path d="M64.0036 18.3992C62.7047 18.3992 61.662 18.0316 60.8756 17.2964C60.483 16.9257 60.1739 16.4712 59.9697 15.9648C59.7655 15.4584 59.6713 14.9122 59.6935 14.3644C59.6753 13.5558 59.8944 12.7603 60.3221 12.0816C60.764 11.4152 61.3794 10.8902 62.0978 10.5667C62.9449 10.1892 63.8622 10.0071 64.785 10.0333C65.9139 10.0188 67.0341 10.2387 68.0784 10.68V10.6336C68.0784 9.54808 67.8004 8.7236 67.2444 8.16021C66.6884 7.59682 65.8327 7.31427 64.6773 7.31255C63.9681 7.31792 63.2634 7.43079 62.5861 7.6475C61.8744 7.86988 61.199 8.20076 60.5826 8.62913V5.96248C61.2188 5.60121 61.8904 5.31017 62.5861 5.0942C63.3592 4.85384 64.1628 4.734 64.9704 4.73866C66.8187 4.73866 68.2378 5.22904 69.2279 6.20982C70.218 7.1906 70.7189 8.59392 70.7306 10.4198V17.9972H68.2086L68.1635 16.1267C67.799 16.8446 67.2231 17.4254 66.5181 17.7859C65.7421 18.2012 64.8782 18.4119 64.0036 18.3992ZM62.4233 14.1866C62.4079 14.4648 62.4544 14.7429 62.5595 14.9996C62.6645 15.2564 62.8253 15.4851 63.0294 15.6681C63.5153 16.0414 64.1148 16.2242 64.7199 16.1834C65.7442 16.1834 66.5407 15.8819 67.1017 15.2791C67.6626 14.6762 67.9832 13.8053 68.0558 12.6613C67.1681 12.2661 66.2079 12.0727 65.2408 12.0945C64.3142 12.0945 63.6155 12.2775 63.1371 12.6407C62.903 12.8175 62.7152 13.0512 62.5906 13.321C62.4661 13.5909 62.4086 13.8883 62.4233 14.1866Z" fill="#002C77"/>
<path d="M73.8411 17.9972V5.138H76.6361L76.6561 7.8124C76.9577 6.97967 77.4842 6.25292 78.1738 5.71772C78.8352 5.20587 79.6428 4.93403 80.4704 4.94476C80.7453 4.94772 81.0197 4.96925 81.2919 5.00919C81.5479 5.04115 81.7998 5.10162 82.0432 5.18953V8.06231C81.745 7.97466 81.4412 7.90838 81.1341 7.86393C80.7903 7.80702 80.4429 7.77686 80.0947 7.77374C79.0095 7.77374 78.1822 8.13445 77.6128 8.85587C77.0435 9.57728 76.7588 10.6208 76.7588 11.9863V18.0024L73.8411 17.9972Z" fill="#002C77"/>
<path d="M87.9336 18.3991C87.4427 18.3937 86.9536 18.3376 86.4735 18.2317C85.956 18.1242 85.4483 17.9716 84.9558 17.7756C84.5138 17.6034 84.0893 17.3868 83.6886 17.1289V14.4983C84.8813 15.4042 86.3234 15.896 87.8059 15.9025C88.6574 15.9025 89.2785 15.7969 89.6667 15.5805C89.8501 15.4886 90.0033 15.3435 90.1074 15.1631C90.2116 14.9828 90.2621 14.7749 90.2528 14.5653C90.2529 14.3691 90.2042 14.1761 90.1112 14.0047C90.0183 13.8333 89.8842 13.6892 89.7218 13.5863C89.3687 13.3286 88.685 13.0426 87.6757 12.7154C86.2582 12.2568 85.2564 11.7226 84.6703 11.1129C84.0843 10.5031 83.7913 9.67776 83.7913 8.63686C83.7697 8.09115 83.8745 7.54798 84.097 7.0521C84.3195 6.55622 84.6534 6.12183 85.0711 5.7847C85.9226 5.08733 87.0846 4.73865 88.5572 4.73865C89.2099 4.75239 89.8581 4.85285 90.4857 5.03753C91.1431 5.21339 91.7766 5.47305 92.3715 5.81047V8.44106C91.8359 8.0463 91.2388 7.74832 90.6059 7.5599C89.9653 7.34303 89.2966 7.22664 88.6224 7.21465C87.2649 7.21465 86.5862 7.63805 86.5862 8.48486C86.5786 8.71134 86.6437 8.9341 86.7716 9.11866C86.9565 9.33958 87.19 9.51184 87.4528 9.62108C87.9173 9.838 88.395 10.0239 88.8828 10.1776C89.7644 10.4496 90.6117 10.8275 91.4073 11.3035C91.9538 11.6277 92.4093 12.092 92.7296 12.651C93.0104 13.2239 93.1481 13.8596 93.1304 14.5009C93.1426 15.0578 93.0191 15.6089 92.771 16.104C92.523 16.599 92.1583 17.0223 91.7104 17.3351C90.767 18.0445 89.5081 18.3991 87.9336 18.3991Z" fill="#002C77"/>
<path d="M95.6699 17.9972V1.05945H98.5926V6.98536C98.9429 6.28658 99.4856 5.70946 100.153 5.3261C100.869 4.92278 101.676 4.71937 102.492 4.73609C103.936 4.73609 105.049 5.20759 105.83 6.15058C106.612 7.09357 107.002 8.44966 107 10.2188V17.9946H104.075V10.7805C104.075 8.53725 103.24 7.41563 101.57 7.41563C101.161 7.39435 100.753 7.46831 100.376 7.63204C99.9985 7.79577 99.662 8.04502 99.3915 8.3612C98.8655 8.99158 98.6017 9.8796 98.6001 11.0253V17.9998L95.6699 17.9972Z" fill="#002C77"/>
<path d="M30.2888 4.10742L23.7046 0.20664C23.4433 0.0707796 23.1546 0 22.8618 0C22.5691 0 22.2804 0.0707796 22.0191 0.20664L3.85685 10.9609L13.9072 3.04078L9.11117 0.20664C8.84988 0.0707803 8.5612 0 8.26843 0C7.97565 0 7.68698 0.0707803 7.42568 0.20664L0.843996 4.10744C0.599159 4.2721 0.395262 4.49353 0.248685 4.75395C0.102108 5.01437 0.0169347 5.30653 0 5.60695V13.4085C0.0169353 13.7089 0.102112 14.0011 0.248689 14.2615C0.395266 14.5219 0.599159 14.7434 0.843996 14.908L7.42568 18.7934C7.68698 18.9292 7.97565 19 8.26843 19C8.5612 19 8.84988 18.9292 9.11117 18.7934L27.2734 8.03141L17.2231 15.9592L22.0191 18.7934C22.2804 18.9292 22.5691 19 22.8618 19C23.1546 19 23.4433 18.9292 23.7046 18.7934L30.2888 14.8926C30.5333 14.7278 30.7368 14.5063 30.8829 14.2458C31.0291 13.9854 31.1138 13.6933 31.1303 13.3931V5.60179C31.113 5.30244 31.028 5.01138 30.8819 4.7519C30.7357 4.49242 30.5326 4.27171 30.2888 4.10742Z" fill="#002C77"/>
<path d="M120.326 18L117.078 9.424H118.582L120.406 14.48C120.491 14.7147 120.582 14.976 120.678 15.264C120.774 15.552 120.859 15.8293 120.934 16.096C121.009 16.352 121.062 16.5707 121.094 16.752H121.158C121.201 16.5707 121.259 16.3467 121.334 16.08C121.419 15.8133 121.51 15.536 121.606 15.248C121.713 14.96 121.803 14.704 121.878 14.48L123.702 9.424H125.206L121.942 18H120.326ZM129.875 9.264C130.611 9.264 131.24 9.424 131.763 9.744C132.296 10.064 132.702 10.5173 132.979 11.104C133.267 11.68 133.411 12.3573 133.411 13.136V13.984H127.539C127.56 14.9547 127.806 15.696 128.275 16.208C128.755 16.7093 129.422 16.96 130.275 16.96C130.819 16.96 131.299 16.912 131.715 16.816C132.142 16.7093 132.579 16.56 133.027 16.368V17.6C132.59 17.792 132.158 17.9307 131.731 18.016C131.304 18.112 130.798 18.16 130.211 18.16C129.4 18.16 128.68 17.9947 128.051 17.664C127.432 17.3333 126.947 16.8427 126.595 16.192C126.254 15.5307 126.083 14.7253 126.083 13.776C126.083 12.8373 126.238 12.032 126.547 11.36C126.867 10.688 127.31 10.1707 127.875 9.808C128.451 9.44533 129.118 9.264 129.875 9.264ZM129.859 10.416C129.187 10.416 128.654 10.6347 128.259 11.072C127.875 11.4987 127.646 12.096 127.571 12.864H131.939C131.939 12.3733 131.864 11.9467 131.715 11.584C131.566 11.2213 131.336 10.9387 131.027 10.736C130.728 10.5227 130.339 10.416 129.859 10.416ZM139.722 9.264C140.746 9.264 141.52 9.51467 142.042 10.016C142.565 10.5067 142.826 11.3067 142.826 12.416V18H141.434V12.512C141.434 11.8187 141.28 11.3013 140.97 10.96C140.661 10.6187 140.176 10.448 139.514 10.448C138.565 10.448 137.909 10.7147 137.546 11.248C137.184 11.7813 137.002 12.5493 137.002 13.552V18H135.594V9.424H136.73L136.938 10.592H137.018C137.21 10.2933 137.445 10.048 137.722 9.856C138.01 9.65333 138.325 9.504 138.666 9.408C139.008 9.312 139.36 9.264 139.722 9.264ZM148.525 18.16C147.458 18.16 146.605 17.792 145.965 17.056C145.325 16.3093 145.005 15.2 145.005 13.728C145.005 12.256 145.325 11.1467 145.965 10.4C146.616 9.64267 147.474 9.264 148.541 9.264C148.989 9.264 149.378 9.32267 149.709 9.44C150.04 9.54667 150.328 9.696 150.573 9.888C150.818 10.08 151.026 10.2933 151.197 10.528H151.293C151.282 10.3893 151.261 10.1867 151.229 9.92C151.208 9.64267 151.197 9.424 151.197 9.264V5.84H152.605V18H151.469L151.261 16.848H151.197C151.026 17.0933 150.818 17.3173 150.573 17.52C150.328 17.712 150.034 17.8667 149.693 17.984C149.362 18.1013 148.973 18.16 148.525 18.16ZM148.749 16.992C149.656 16.992 150.29 16.7467 150.653 16.256C151.026 15.7547 151.213 15.0027 151.213 14V13.744C151.213 12.6773 151.037 11.8613 150.685 11.296C150.333 10.72 149.682 10.432 148.733 10.432C147.976 10.432 147.405 10.736 147.021 11.344C146.648 11.9413 146.461 12.7467 146.461 13.76C146.461 14.784 146.648 15.5787 147.021 16.144C147.405 16.7093 147.981 16.992 148.749 16.992ZM162.785 13.696C162.785 14.4107 162.689 15.0453 162.497 15.6C162.315 16.144 162.049 16.608 161.697 16.992C161.355 17.376 160.934 17.6693 160.433 17.872C159.942 18.064 159.393 18.16 158.785 18.16C158.219 18.16 157.697 18.064 157.217 17.872C156.737 17.6693 156.321 17.376 155.969 16.992C155.617 16.608 155.339 16.144 155.137 15.6C154.945 15.0453 154.849 14.4107 154.849 13.696C154.849 12.7467 155.009 11.9467 155.329 11.296C155.649 10.6347 156.107 10.1333 156.705 9.792C157.302 9.44 158.011 9.264 158.833 9.264C159.611 9.264 160.294 9.44 160.881 9.792C161.478 10.1333 161.942 10.6347 162.273 11.296C162.614 11.9467 162.785 12.7467 162.785 13.696ZM156.305 13.696C156.305 14.368 156.39 14.9547 156.561 15.456C156.742 15.9467 157.019 16.3253 157.393 16.592C157.766 16.8587 158.241 16.992 158.817 16.992C159.393 16.992 159.867 16.8587 160.241 16.592C160.614 16.3253 160.886 15.9467 161.057 15.456C161.238 14.9547 161.329 14.368 161.329 13.696C161.329 13.0133 161.238 12.432 161.057 11.952C160.875 11.472 160.598 11.104 160.225 10.848C159.862 10.5813 159.387 10.448 158.801 10.448C157.926 10.448 157.291 10.736 156.897 11.312C156.502 11.888 156.305 12.6827 156.305 13.696ZM169.016 9.264C169.176 9.264 169.347 9.27467 169.528 9.296C169.72 9.30667 169.886 9.328 170.024 9.36L169.848 10.656C169.71 10.624 169.555 10.5973 169.384 10.576C169.224 10.5547 169.07 10.544 168.92 10.544C168.59 10.544 168.275 10.6133 167.976 10.752C167.678 10.8907 167.411 11.088 167.176 11.344C166.942 11.5893 166.755 11.888 166.616 12.24C166.488 12.592 166.424 12.9867 166.424 13.424V18H165.016V9.424H166.168L166.328 10.992H166.392C166.574 10.672 166.792 10.384 167.048 10.128C167.304 9.86133 167.598 9.65333 167.928 9.504C168.259 9.344 168.622 9.264 169.016 9.264ZM177.21 15.632C177.21 16.1867 177.071 16.6507 176.794 17.024C176.516 17.3973 176.122 17.68 175.61 17.872C175.098 18.064 174.49 18.16 173.786 18.16C173.188 18.16 172.671 18.112 172.234 18.016C171.807 17.92 171.428 17.7867 171.098 17.616V16.336C171.439 16.5067 171.85 16.6667 172.33 16.816C172.82 16.9547 173.316 17.024 173.818 17.024C174.532 17.024 175.05 16.912 175.37 16.688C175.69 16.4533 175.85 16.144 175.85 15.76C175.85 15.5467 175.791 15.3547 175.674 15.184C175.556 15.0133 175.343 14.8427 175.034 14.672C174.735 14.5013 174.303 14.3093 173.738 14.096C173.183 13.8827 172.708 13.6693 172.314 13.456C171.919 13.2427 171.615 12.9867 171.402 12.688C171.188 12.3893 171.082 12.0053 171.082 11.536C171.082 10.8107 171.375 10.2507 171.962 9.856C172.559 9.46133 173.338 9.264 174.298 9.264C174.82 9.264 175.306 9.31733 175.754 9.424C176.212 9.52 176.639 9.65867 177.034 9.84L176.554 10.96C176.319 10.8533 176.068 10.7627 175.802 10.688C175.546 10.6027 175.284 10.5387 175.018 10.496C174.751 10.4427 174.479 10.416 174.202 10.416C173.626 10.416 173.183 10.512 172.874 10.704C172.575 10.8853 172.426 11.136 172.426 11.456C172.426 11.6907 172.495 11.8933 172.634 12.064C172.772 12.224 173.002 12.384 173.322 12.544C173.652 12.6933 174.09 12.8747 174.634 13.088C175.178 13.2907 175.642 13.4987 176.026 13.712C176.41 13.9253 176.703 14.1867 176.906 14.496C177.108 14.7947 177.21 15.1733 177.21 15.632Z" fill="#002C77"/>
</svg>
